<svg width="289" height="250" viewBox="0 0 289 250" fill="none" xmlns="http://www.w3.org/2000/svg">
<mask id="mask0_3166_72" style="mask-type:alpha" maskUnits="userSpaceOnUse" x="0" y="0" width="289" height="250">
<path d="M288.25 0H0.5V250H288.25V0Z" fill="white"/>
</mask>
<g mask="url(#mask0_3166_72)">
<path fill-rule="evenodd" clip-rule="evenodd" d="M146.914 16.947C173.976 19.6014 198.11 30.7204 218.196 48.0769C239.462 66.4529 262.093 88.2729 260.959 115.495C259.846 142.221 235.219 161.509 212.795 177.805C193.731 191.658 170.918 197.112 146.914 198.372C120.984 199.734 94.1648 199.74 73.288 185.131C49.2802 168.33 31.0954 143.634 28.4869 115.495C25.6729 85.1402 34.9481 52.6036 59.1364 32.4755C82.3687 13.1429 116.135 13.928 146.914 16.947Z" fill="#F2F2F2"/>
<path d="M207.474 227C207.474 227 189.583 186.5 193.583 181.5C197.583 176.5 200.083 176 200.083 176L206.583 172H236.583L209.083 184.5L217.974 227H207.474Z" fill="#223150"/>
<rect x="215" y="195" width="9" height="32" fill="#CCCCCC"/>
<path d="M223.691 194.546H214.912V203.325L223.691 194.546Z" fill="#AAAAAA"/>
<rect x="93.1083" y="184.304" width="8.77865" height="35.8462" fill="#CCCCCC"/>
<rect x="196.623" y="182.11" width="46.0879" height="12.4364" rx="6.21821" fill="#CCCCCC"/>
<rect x="74.0879" y="175.16" width="46.0879" height="12.4364" rx="6.21821" fill="#CCCCCC"/>
<path d="M217.632 186.682C240.603 186.682 243.785 170.588 242.505 162.541C240.5 149.94 212.389 156.444 201.721 159.797C157.096 159.797 153.499 174.428 157.279 181.744L172.5 227H184.5L176.482 181.744C183.797 184.524 206.963 186.194 217.632 186.682Z" fill="#2E4168"/>
<path d="M146.695 109.869C145.378 112.502 138.343 112.064 135.173 112.429L135.539 119.745C139.196 118.574 144.5 117.063 146.695 117.55V109.869Z" fill="#FFCCB3"/>
<path d="M118.112 66.3857C119.697 60.899 119.81 50.1754 108.837 46.6639C105.362 45.4447 100.241 45.9324 94.9371 48.8586C89.6334 51.7848 86.89 56.7228 87.8045 62.3924C89.8163 66.6598 87.8045 69.1593 98.0261 76.109C99.2138 79.0391 100.948 80.9132 102.201 81.7483L98.0261 76.109C96.7861 73.05 96.1417 68.84 97.2627 63.4594C102.201 59.314 113.284 54.0955 118.112 66.3857Z" fill="black"/>
<path d="M95.6166 84.3088C96.7871 82.5531 97.0797 79.3099 97.0797 77.9077C99.7011 76.9323 108.343 76.6591 105.675 79.9195C102.384 83.943 105.797 87.4179 106.773 88.6982H94.5193C94.2267 87.3814 95.1289 85.2233 95.6166 84.3088Z" fill="#FFCCB3"/>
<path d="M97.4455 79.188C99.0915 85.5891 105.858 88.6982 105.858 88.6982H106.773C104.029 84.6746 103.664 83.0286 104.395 79.5538L97.4455 79.188Z" fill="#FBB8A6"/>
<path d="M93.7877 70.9579C93.7877 79.6445 104.03 86.5034 108.419 86.5034C112.808 86.5034 119.026 79.6445 119.026 70.9579C119.026 62.2713 113.377 55.2295 106.407 55.2295C99.4376 55.2295 93.7877 62.2713 93.7877 70.9579Z" fill="#FFCCB3"/>
<circle cx="4.93799" cy="4.93799" r="4.93799" transform="matrix(-1 0 0 1 96.714 66.9343)" fill="#FFCCB3"/>
<path d="M95.4858 60.1978C99.1435 59.1736 104.883 58.3996 105.858 56.1439C112.881 56.1439 111.031 60.3806 111.031 64.1911C137.184 61.8135 109.934 40.6287 106.956 50.4744C98.3597 47.2127 90.8613 57.1194 90.4955 62.5451C93.1291 63.5692 92.5682 69.251 93.0559 71.1408C95.9822 69.824 95.6686 61.417 95.4858 60.1978Z" fill="#020202"/>
<path d="M85.6098 178.086C78.4771 176.44 80.4281 159.493 81.7692 155.225L116.884 147.178L122.005 160.529C142.671 166.747 144.744 171.441 144.5 179.549L148.671 227.101H132.064L129.137 184.305C119.627 185.036 112.129 181.927 109.02 181.195L122.005 227.101H102.984L85.6098 178.086Z" fill="#2E4168"/>
<path d="M138.818 110.258C113.732 116.819 137.367 100.616 110.3 90.9231L101.768 98.6805C101.768 133.993 117.977 142.291 141.133 128.011L138.818 110.258Z" fill="#B6BFC6"/>
<path fill-rule="evenodd" clip-rule="evenodd" d="M69.4308 155.087H128.478C123.022 134.599 121.639 108.406 110.454 89.7255L92.9161 85.2332C78.9178 103.222 72.1951 125.371 69.4308 155.087Z" fill="#C5CFD6"/>
<path d="M67.6869 130.535C65.1996 105.516 80.3672 95.1159 90.1822 91.9458L91.4624 100.542C87.8046 102.553 86.1586 105.699 84.8784 108.772C81.9522 115.794 86.0976 126.207 88.5361 130.535C85.6099 130.535 79.7575 135.9 77.1971 138.582C72.2225 137.119 68.7842 132.608 67.6869 130.535Z" fill="#B6BFC6"/>
<path d="M90.9139 150.287L76.4657 134.193L82.1352 128.523L93.8401 147.178L90.9139 150.287Z" fill="#FFCCB3"/>
<ellipse cx="93.9336" cy="150" rx="4.57954" ry="4.34552" transform="rotate(137.664 93.9336 150)" fill="#FFCCB3"/>
<ellipse cx="165.626" cy="150.366" rx="4.57954" ry="4.34552" transform="rotate(137.664 165.626 150.366)" fill="#FFCCB3"/>
<path d="M166.264 147.178L182.358 132.73L188.027 138.4L169.373 150.104L166.264 147.178Z" fill="#FFCCB3"/>
<path d="M65.4922 129.438C63.0049 104.419 82.0132 91.8239 91.8282 88.6538V100.907C89.0483 100.029 84.5736 105.053 82.6837 107.674C79.7575 114.697 83.903 125.11 86.3415 129.438C83.4153 129.438 77.5628 134.803 75.0024 137.485C70.0278 136.022 66.5895 131.511 65.4922 129.438Z" fill="#C5CFD6"/>
<ellipse cx="149.263" cy="113.554" rx="7.17956" ry="4.34552" transform="rotate(94.9253 149.263 113.554)" fill="#FFCCB3"/>
<path fill-rule="evenodd" clip-rule="evenodd" d="M153.66 111.456C153.743 111.73 153.589 112.018 153.316 112.101L150.966 112.815C150.693 112.898 150.404 112.744 150.321 112.471C150.238 112.198 150.392 111.909 150.665 111.826L153.015 111.112C153.289 111.029 153.577 111.183 153.66 111.456Z" fill="#E56441"/>
<path fill-rule="evenodd" clip-rule="evenodd" d="M153.773 114.126C153.856 114.399 153.701 114.688 153.428 114.771L151.078 115.485C150.805 115.568 150.516 115.414 150.433 115.141C150.35 114.867 150.504 114.579 150.778 114.496L153.128 113.782C153.401 113.699 153.69 113.853 153.773 114.126Z" fill="#E56441"/>
<path fill-rule="evenodd" clip-rule="evenodd" d="M153.509 116.758C153.592 117.031 153.438 117.32 153.165 117.403L150.814 118.117C150.541 118.2 150.252 118.046 150.169 117.773C150.086 117.499 150.241 117.211 150.514 117.128L152.864 116.414C153.137 116.331 153.426 116.485 153.509 116.758Z" fill="#E56441"/>
<path fill-rule="evenodd" clip-rule="evenodd" d="M153.548 108.787C153.631 109.06 153.477 109.349 153.203 109.432L150.853 110.146C150.58 110.229 150.291 110.075 150.208 109.802C150.125 109.528 150.28 109.24 150.553 109.157L152.903 108.443C153.176 108.36 153.465 108.514 153.548 108.787Z" fill="#E56441"/>
<path fill-rule="evenodd" clip-rule="evenodd" d="M260.268 135.29H255.879V135.29H37.5102H33.1208V139.68V220.151H37.5102V139.68H255.879V220.151H260.268V135.29Z" fill="#D9D9D9"/>
<path d="M221.502 80.3637C219.581 78.7061 218.198 75.0423 217.746 73.4176C214.395 73.1314 204.293 75.5972 208.434 78.5163C213.544 82.1185 210.707 87.2441 209.989 89.0416L224.187 85.0964C224.102 83.4764 222.362 81.2662 221.502 80.3637Z" fill="#FFCCB3"/>
<path d="M219.973 75.7481C223.092 83.736 215.574 84.9858 215.574 84.9858L209.989 89.0412C211.872 83.4957 211.766 81.4707 209.799 77.6798L219.973 75.7481Z" fill="#FBB8A6"/>
<path d="M195.888 61.9062C196.418 60.5162 198.628 60.4807 199.667 60.6367C202.608 54.5112 209.639 57.944 212.787 60.426C215.331 63.977 212.712 77.2348 211.084 83.4199C227.519 83.1559 230.922 67.7903 230.569 60.1405C230.391 49.0918 219.285 45.7014 213.754 45.3873C196.491 45.6645 192.883 54.0111 193.238 58.1498C193.216 56.7687 194.947 57.0862 195.816 57.4176C194.335 59.7899 195.247 61.3984 195.888 61.9062Z" fill="#020202"/>
<path d="M213.936 67.4877C215.482 75.5413 214.21 84.5122 209.019 84.5956C203.828 84.6789 201.406 82.8849 197.488 75.5225C192.592 60.9234 198.857 56.4827 205.319 55.2423C211.78 54.002 212.39 59.4341 213.936 67.4877Z" fill="#FFCCB3"/>
<circle cx="213.558" cy="65.4216" r="3.62582" transform="rotate(-0.920054 213.558 65.4216)" fill="#FFCCB3"/>
<path d="M210.58 62.7977C205.47 62.8798 199.491 60.4671 197.559 58.4259C197.486 53.8683 201.423 51.7205 202.982 52.0408C210.064 52.1813 215.149 56.9347 215.042 61.0807C212.476 62.5848 212.834 63.361 212.866 65.3512L212.901 67.5043C211.322 65.9755 210.609 64.6055 210.58 62.7977Z" fill="#020202"/>
<path d="M225.131 82.6184L209.477 86.588C210.006 87.4701 209.698 88.7198 209.477 89.2344C197.307 90.4694 193.382 96.512 192.941 97.8352C189.414 121.3 173.686 137.605 166.264 144.368L176.406 153.409C183.108 149.705 193.162 131.577 197.351 122.976L195.587 159.805C215.695 170.391 235.273 164.216 242.549 159.805L233.95 111.508C237.478 114.507 242.034 123.638 243.871 127.828C243.871 132.591 240.785 136.428 239.241 137.752L242.549 155.394L252.25 140.619C256.659 135.502 256.145 125.99 255.336 121.873L239.903 89.896C238.492 87.0732 228.659 85.8529 226.013 86.1469L225.131 82.6184Z" fill="#2F2E41"/>
</g>
<path fill-rule="evenodd" clip-rule="evenodd" d="M97.1538 98.4857C94.041 95.4992 91.2714 91.9729 89.6036 89.8048L90.3963 89.1951C92.0618 91.3603 94.7922 94.834 97.8461 97.7641C99.373 99.2292 100.968 100.546 102.539 101.494C104.105 102.438 105.608 102.992 106.971 103C108.173 102.85 109.383 101.615 110.21 99.5399C111.027 97.4908 111.393 94.7876 111.005 92.0706L111.995 91.9292C112.407 94.8122 112.023 97.6923 111.139 99.91C110.273 102.086 108.845 103.798 107.055 103.997L107.028 104H107C105.371 104 103.675 103.347 102.023 102.35C100.365 101.35 98.7102 99.979 97.1538 98.4857Z" fill="white"/>
<rect x="102" y="101" width="10" height="14" rx="3" fill="white"/>
<rect x="105" y="103" width="4" height="5" rx="1" fill="#ECECEC"/>
<rect x="104" y="110" width="6" height="1" rx="0.5" fill="#ECECEC"/>
<rect x="104" y="112" width="6" height="1" rx="0.5" fill="#ECECEC"/>
</svg>
