<svg width="289" height="250" viewBox="0 0 289 250" fill="none" xmlns="http://www.w3.org/2000/svg">
<mask id="mask0_3156_7094" style="mask-type:alpha" maskUnits="userSpaceOnUse" x="0" y="0" width="289" height="250">
<path d="M288.5 0H0.75V250H288.5V0Z" fill="white"/>
</mask>
<g mask="url(#mask0_3156_7094)">
<path d="M189.163 176.059C190.811 176.059 192.276 177.707 192.276 179.355V184.665C192.276 186.496 190.811 187.961 189.163 187.961H97.9742C96.3262 187.961 94.8613 186.496 94.8613 184.665V179.355C94.8613 177.707 96.3262 176.059 97.9742 176.059H189.163Z" fill="#CCCCCC"/>
<path fill-rule="evenodd" clip-rule="evenodd" d="M143.5 70.6078C143.211 70.6063 142.922 70.6055 142.633 70.6055H142.627C130.451 70.6057 118.275 71.979 104.451 74.7254C96.5777 76.7397 92 79.3032 92 86.4445V164.295C92 166.504 93.7909 168.295 96 168.295H127.706H132.691H143.5H154.309H159.294H191C193.209 168.295 195 166.504 195 164.295V86.4445C195 79.3032 190.422 76.7397 182.549 74.7254C168.724 71.9788 156.547 70.6055 144.37 70.6055C144.08 70.6055 143.79 70.6062 143.5 70.6078ZM143.5 77.3032V77.3033C132.551 77.2761 121.689 79.6236 113.458 84.2848C120.253 102.745 120.253 102.745 125.342 112.552H143.456H143.5H143.543H161.657C166.745 102.745 166.745 102.745 173.54 84.2849L173.54 84.2848C165.31 79.6238 154.448 77.2763 143.5 77.3032ZM143.5 153.89C143.84 153.887 144.182 153.886 144.525 153.886C158.804 153.886 170.223 157.593 177.689 163.185H187.587C188.692 163.185 189.587 162.29 189.587 161.185V159.724L162.392 148.164C158.1 146.018 155.874 140.296 160.241 137.435C174.966 127.787 185.148 108.039 189.587 96.3827V90.0703C189.587 84.6197 186.612 82.1545 181.375 80.4299C176.148 94.36 174.201 99.5196 171.857 104.492C170.507 107.358 169.024 110.161 166.704 114.546L166.704 114.546C157.624 131.713 151.678 131.713 143.808 131.713C143.706 131.713 143.603 131.711 143.5 131.707C143.396 131.711 143.293 131.713 143.19 131.713C135.321 131.713 129.375 131.713 120.295 114.546L120.295 114.546C117.975 110.161 116.492 107.358 115.142 104.492C112.798 99.5196 110.851 94.36 105.624 80.4299C100.387 82.1545 97.412 84.6197 97.412 90.0703V96.382C101.851 108.038 112.033 127.787 126.759 137.435C131.126 140.296 128.899 146.018 124.607 148.164L97.412 159.724V161.185C97.412 162.29 98.3075 163.185 99.412 163.185H109.311C116.777 157.593 128.196 153.886 142.475 153.886C142.818 153.886 143.16 153.887 143.5 153.89ZM103.849 133.143C110.28 144.025 101.752 146.107 97.412 146.605V118.61C98.5416 122.725 100.497 127.469 103.849 133.143ZM121.731 141.727C121.731 144.887 119.169 147.449 116.009 147.449C112.849 147.449 110.287 144.887 110.287 141.727C110.287 138.566 112.849 136.004 116.009 136.004C119.169 136.004 121.731 138.566 121.731 141.727ZM113.148 130.997C113.148 132.973 111.547 134.574 109.572 134.574C107.597 134.574 105.995 132.973 105.995 130.997C105.995 129.022 107.597 127.421 109.572 127.421C111.547 127.421 113.148 129.022 113.148 130.997ZM111.717 130.997C111.717 132.182 110.756 133.143 109.571 133.143C108.386 133.143 107.425 132.182 107.425 130.997C107.425 129.812 108.386 128.851 109.571 128.851C110.756 128.851 111.717 129.812 111.717 130.997ZM183.15 133.143C176.719 144.025 185.247 146.107 189.587 146.605V118.611C188.457 122.726 186.502 127.47 183.15 133.143ZM165.268 141.727C165.268 144.887 167.83 147.449 170.99 147.449C174.15 147.449 176.712 144.887 176.712 141.727C176.712 138.566 174.15 136.004 170.99 136.004C167.83 136.004 165.268 138.566 165.268 141.727ZM173.851 130.997C173.851 132.973 175.452 134.574 177.427 134.574C179.402 134.574 181.003 132.973 181.003 130.997C181.003 129.022 179.402 127.421 177.427 127.421C175.452 127.421 173.851 129.022 173.851 130.997ZM175.281 130.997C175.281 132.182 176.242 133.143 177.427 133.143C178.612 133.143 179.573 132.182 179.573 130.997C179.573 129.812 178.612 128.851 177.427 128.851C176.242 128.851 175.281 129.812 175.281 130.997Z" fill="#CCCCCC"/>
<path d="M190.276 175.961C191.924 175.961 193.389 177.609 193.389 179.257V184.567C193.389 186.398 191.924 187.863 190.276 187.863H99.0875C97.4395 187.863 95.9746 186.398 95.9746 184.567V179.257C95.9746 177.609 97.4395 175.961 99.0875 175.961H190.276Z" fill="#3F3D56"/>
<path d="M91.2705 74.5969L79.787 74.5901C78.2995 74.6033 77.4325 74.0253 76.9236 73.0763C76.4967 72.2816 76.5623 71.4836 77.137 70.5871L78.8479 68.0619C79.4587 67.1588 80.4669 66.6169 81.5571 66.6137L84.4075 66.6006C85.9378 66.5907 87.3662 65.8288 88.2234 64.5613L91.4547 59.7734H80.8413C77.3933 59.7734 74.9172 61.0148 72.7992 64.1442L70.9307 66.8895C68.5204 70.4689 68.5204 73.467 70.0835 76.6689C71.443 79.4503 74.4839 81.4535 78.5095 81.4568L82.7325 81.4534L80.0265 85.4564C79.5635 86.146 79.3107 86.9538 79.3074 87.7846L79.3007 95.5444C79.3007 96.1814 80.1249 96.431 80.4828 95.9056L92.7187 77.7758C93.6808 76.321 92.8828 74.5969 91.2705 74.5969Z" fill="#8FC31F"/>
<path d="M92.2037 66.5916L103.684 66.6015C105.171 66.5884 106.038 67.1663 106.547 68.1121C106.974 68.91 106.912 69.708 106.334 70.6045L104.623 73.1297C104.012 74.0328 103.004 74.5747 101.914 74.5779L99.0634 74.5911C97.5331 74.5978 96.1079 75.3595 95.2508 76.6271L92.0163 81.4182H102.63C106.078 81.4182 108.554 80.1768 110.672 77.0474L112.544 74.2988C114.954 70.7227 114.951 67.7246 113.388 64.5194C112.031 61.7413 109.283 59.7348 104.962 59.7348L100.742 59.7382L103.444 55.7319C103.911 55.0456 104.16 54.2345 104.164 53.407L104.17 45.6472C104.17 45.0102 103.346 44.7573 102.991 45.286L90.7521 63.4124C89.79 64.8705 90.588 66.5916 92.2037 66.5916Z" fill="#0095D8"/>
<path d="M198 49C186.955 49 178 57.9583 178 69C178 80.0481 186.955 89 198 89C209.045 89 218 80.0481 218 69C218 57.9583 209.045 49 198 49ZM198 57.871C199.871 57.871 201.387 59.3874 201.387 61.2581C201.387 63.1287 199.871 64.6452 198 64.6452C196.129 64.6452 194.613 63.1287 194.613 61.2581C194.613 59.3874 196.129 57.871 198 57.871ZM202.516 78.3548C202.516 78.8893 202.083 79.3226 201.548 79.3226H194.452C193.917 79.3226 193.484 78.8893 193.484 78.3548V76.4194C193.484 75.8849 193.917 75.4516 194.452 75.4516H195.419V70.2903H194.452C193.917 70.2903 193.484 69.857 193.484 69.3226V67.3871C193.484 66.8527 193.917 66.4194 194.452 66.4194H199.613C200.147 66.4194 200.581 66.8527 200.581 67.3871V75.4516H201.548C202.083 75.4516 202.516 75.8849 202.516 76.4194V78.3548Z" fill="#5661AE"/>
</g>
</svg>
