<svg width="289" height="250" viewBox="0 0 289 250" fill="none" xmlns="http://www.w3.org/2000/svg">
<mask id="mask0_3173_14398" style="mask-type:alpha" maskUnits="userSpaceOnUse" x="0" y="0" width="289" height="250">
<path d="M288.5 0H0.75V250H288.5V0Z" fill="white"/>
</mask>
<g mask="url(#mask0_3173_14398)">
<path fill-rule="evenodd" clip-rule="evenodd" d="M147.867 55.0494C166.064 53.9229 178.125 72.301 191.018 85.2214C203.912 98.1434 218.646 110.366 221.132 128.471C223.93 148.848 220.344 172.108 204.789 185.524C189.751 198.493 167.307 195.619 147.867 191.656C132.444 188.511 122.543 176.008 110.189 166.235C94.8039 154.063 68.1176 148.117 68.0004 128.471C67.8832 108.837 95.2993 103.525 109.736 90.2532C122.975 78.0824 129.936 56.1594 147.867 55.0494Z" fill="#F2F2F2"/>
<path d="M192.61 155.482C198.19 145.251 195.71 130.473 193.54 123.859L182.069 131.92L185.169 148.661L192.61 155.482Z" fill="#F1C1A9"/>
<path d="M167.255 48.7527C159.799 39.9904 156.488 32.9468 135.085 38.7018C110.774 45.2385 110.656 75.0056 117.589 97.9814L153.248 98.8772L177.955 83.2776C181.488 61.6432 167.255 48.7527 167.255 48.7527Z" fill="black"/>
<path d="M146.646 100.063L148.835 89.9389L156.497 87.2026L161.149 100.063L153.897 104.988L146.646 100.063Z" fill="#FFCCB3"/>
<path d="M146.646 100.064L148.835 89.9397L157.577 87.8965L155.129 95.6859L146.646 100.064Z" fill="#FBB8A6"/>
<path d="M163.626 67.7047C167.001 80.2553 157.775 93.3626 151.433 95.0678C145.091 96.773 130.535 90.0602 127.161 77.5096C123.786 64.959 129.214 52.5898 139.283 49.8822C149.353 47.1747 160.252 55.1541 163.626 67.7047Z" fill="#FFCCB3"/>
<path d="M132.424 64.6345L124.233 66.837C120.709 53.7306 131.617 46.5284 137.512 44.5656C151.887 40.7005 159.84 51.0293 162.019 56.6769L137.445 63.2845L133.515 54.9908L132.424 64.6345Z" fill="black"/>
<path d="M162.677 95.4092L144.386 99.3678V101.628C137.948 101.628 125.85 112.176 119.753 114.249C132.337 140.002 125.104 193.58 122.544 206.017L192.61 202.917C167.187 153.003 182.646 118.887 191.059 110.839C185.789 105.258 172.798 100.531 163.774 100.896L162.677 95.4092Z" fill="#C5CFD6"/>
<path d="M149.305 111.202C149.484 111.786 149.642 112.417 149.686 113.028C149.783 114.364 149.437 114.96 148.382 115.74C147.151 116.652 147.76 118.011 147.728 119.321" stroke="#DD2727" stroke-linecap="round"/>
<path d="M198.5 132.85C195.4 116.729 193.539 110.218 185.169 106.808L174.383 104.554L160.116 177.35L176.943 186.13C172.261 171.79 180.281 145.865 184.549 141.841L198.5 132.85Z" fill="#C5CFD6"/>
<path d="M108.902 125.404C108.902 125.404 113.666 114.994 120.373 111.148C125.479 108.221 133.046 106.382 133.046 106.382L159.385 168.57L130.485 167.107C126.681 137.842 114.512 127.111 108.902 125.404Z" fill="#C5CFD6"/>
<circle cx="4.98238" cy="4.98238" r="4.98238" transform="matrix(-0.642114 0.766609 0.766609 0.642114 139.516 132.876)" fill="#FFCCB3"/>
<path d="M157.672 201.719C129.894 200.478 117.162 176.193 114.269 164.205L128.84 150.254C167.531 144.302 181.338 169.889 183.404 183.427C198.782 198.804 172.657 202.029 157.672 201.719Z" fill="#5661AE"/>
<path d="M136.281 141.62V152.471L143.721 154.331V141.62H136.281Z" fill="#FFCCB3"/>
<path d="M146.105 179.974C134.945 177.99 103.942 162.303 115.103 148.042L103.322 143.701C96.1911 170.363 130.191 184.831 143.315 188.035L146.105 179.974Z" fill="#FFCCB3"/>
<circle cx="7.34262" cy="7.34262" r="7.34262" transform="matrix(-0.642114 0.766609 0.766609 0.642114 147.474 173.564)" fill="#FFCCB3"/>
<circle cx="7.34262" cy="7.34262" r="7.34262" transform="matrix(-0.642114 0.766609 0.766609 0.642114 159.255 112.078)" fill="#FFCCB3"/>
<path d="M117.758 130.181C116.262 129.691 114.76 131.484 114.196 132.442C107.2 130.777 105.336 138.845 105.279 143.088C106.503 147.545 119.148 154.228 125.317 157.012C114.148 170.347 99.2476 162.904 93.1938 157.516C84.2287 150.007 88.8429 138.617 92.2707 133.86C104.004 119.852 113.27 122.449 116.436 125.499C115.316 124.56 114.422 126.195 114.116 127.13C117.053 127.493 117.768 129.315 117.758 130.181Z" fill="#020202"/>
<path d="M110.318 148.738C115.909 155.377 124.132 160.309 127.66 156.097C131.188 151.885 131.328 148.698 127.886 140.571C119.147 126.816 111.32 129.007 105.994 133.493C100.668 137.978 104.727 142.1 110.318 148.738Z" fill="#FFCCB3"/>
<circle cx="3.83726" cy="3.83726" r="3.83726" transform="matrix(-0.642114 0.766609 0.766609 0.642114 108.394 141.645)" fill="#FFCCB3"/>
<path d="M126.913 156.838C130.368 152.231 114.173 132.184 113.783 129.235C110.085 126.137 105.695 127.943 104.919 129.438C100.315 135.354 93.2572 142.644 96.7364 145.32C99.6831 144.213 104.796 152.26 106.411 153.613L113.783 163.748C117.699 163.748 125.761 157.989 126.913 156.838Z" fill="#020202"/>
<circle cx="3.83726" cy="3.83726" r="3.83726" transform="matrix(-0.642114 0.766609 0.766609 0.642114 119.402 132.19)" fill="#FFCCB3"/>
<path d="M183.822 155.462C178.399 151.985 165.099 131.802 159.127 122.145C159.708 119.634 164.372 121.099 166.632 122.145C169.925 123.304 185.436 139.689 192.78 147.736C194.717 151.599 193.587 154.496 192.78 155.462C189.1 156.621 185.275 155.945 183.822 155.462Z" fill="#FFCCB3"/>
<rect x="161.652" y="129.572" width="2.10014" height="3.45642" transform="rotate(-30.6317 161.652 129.572)" fill="#B5B5B5"/>
<rect x="152.569" y="114.233" width="2.10014" height="4.84599" transform="rotate(-30.6317 152.569 114.233)" fill="#B5B5B5"/>
<ellipse cx="153.546" cy="110.218" rx="3.72032" ry="4.96042" transform="rotate(-26.3185 153.546 110.218)" fill="#B5B5B5"/>
<path d="M151.996 105.567L148.586 107.118L152.926 115.798L156.026 114.248L151.996 105.567Z" fill="#B5B5B5"/>
<ellipse cx="151.019" cy="111.353" rx="3.72032" ry="4.96042" transform="rotate(-26.3185 151.019 111.353)" fill="white"/>
<path d="M155.538 108.91C156.149 108.91 156.798 108.943 157.396 109.08C158.701 109.379 159.17 109.884 159.607 111.121C160.118 112.565 161.595 112.381 162.839 112.796" stroke="#DD2727" stroke-linecap="round"/>
<circle cx="162.847" cy="112.698" r="0.620053" fill="black"/>
<circle cx="147.966" cy="119.519" r="0.620053" fill="black"/>
</g>
</svg>
