<svg width="288" height="250" viewBox="0 0 288 250" fill="none" xmlns="http://www.w3.org/2000/svg">
<g clip-path="url(#clip0_3208_48)">
<mask id="mask0_3208_48" style="mask-type:alpha" maskUnits="userSpaceOnUse" x="0" y="0" width="288" height="250">
<path d="M288 0H0.25V250H288V0Z" fill="white"/>
</mask>
<g mask="url(#mask0_3208_48)">
<path d="M-1 81.6339H10.1448C11.2182 86.4641 17.1218 86.643 21.952 89.3265C34.296 97.5558 28.9978 118.641 24.4566 120.812C16.2273 124.748 14.1998 133.574 14.2594 137.808H-1V81.6339Z" fill="#CCCCCC"/>
<path d="M217 78.7716H197.666C195.519 87.0009 188.542 84.4963 182.28 87.5376C169.758 97.0191 176.198 120.991 180.313 122.959C189.311 127.263 190.39 133.574 190.331 137.808H217V78.7716Z" fill="#CCCCCC"/>
<path d="M92.8752 61.7762H47.5471C47.5471 67.501 52.3774 70.7973 55.7764 71.6156C63.5048 73.4761 65.5561 77.877 65.6158 79.8449C65.6158 83.9953 59.5332 86.8219 56.492 87.7164C49.1572 90.7576 48.9187 101.969 48.6205 107.574C48.1912 117.306 53.9507 121.992 56.6709 124.033C61.68 127.789 62.6341 134.409 62.5745 137.808H76.0589C74.7708 126.931 82.8894 122.06 87.5407 121.047C95.1696 116.423 93.7825 106.714 93.5745 103.459C92.9057 92.9958 88.0031 89.3753 82.6781 87.4631C75.5222 86.7476 73.6139 81.932 73.5543 79.8449C73.4112 74.8358 79.5772 72.2716 82.6781 71.6156C90.4065 69.8982 92.6963 64.3404 92.8752 61.7762Z" fill="#CCCCCC"/>
<path fill-rule="evenodd" clip-rule="evenodd" d="M31.6881 72.3897L31.5594 72.4798C30.1677 73.454 26.5602 75.376 22.5179 75.7177C21.2275 75.9059 19.3214 76.433 17.7929 77.3513C16.2513 78.2775 15.5011 79.3252 15.4802 80.5095C15.5249 81.0529 16.1651 83.2532 19.9068 83.8035L19.9271 83.8065L19.9473 83.8098C24.9834 84.6492 33.544 90.3823 33.5484 105.237C33.579 108.209 33.0972 112.787 31.5208 117.006C29.9615 121.18 27.1456 125.459 22.2226 126.97C21.4422 127.247 18.4561 129.299 17.8962 135.661H58.2724C58.344 133.069 57.2981 128.723 52.136 125.282L52.1141 125.267L52.0926 125.252C49.2248 123.237 44.564 116.854 44.5609 105.975C44.5304 102.826 45.0475 98.0021 46.7422 93.6505C48.425 89.3294 51.4824 84.9832 56.808 83.8293L56.8142 83.828L56.8203 83.8267C57.7521 83.6305 59.171 83.1386 60.2992 82.3667C61.4449 81.5828 61.9139 80.7936 61.9139 80.0238C61.9139 79.6515 61.2152 76.456 54.6948 75.1519L54.6625 75.1454L54.6304 75.1379C52.6769 74.6845 49.8363 73.516 47.4408 71.4199C45.4225 69.6539 43.6721 67.1768 43.1265 63.923H35.6656C35.5302 64.7802 35.3226 65.7356 35.0228 66.7072C34.4498 68.5643 33.471 70.7059 31.8023 72.2818L31.6881 72.3897ZM33.7273 61.7762H45.0976C45.0976 68.9321 51.7764 72.2716 55.1158 73.0468C62.2717 74.478 64.0607 78.2944 64.0607 80.0238C64.0607 83.6017 59.5286 85.4503 57.2626 85.9274C48.6755 87.7879 46.648 100.06 46.7076 105.964C46.7076 116.268 51.1204 121.945 53.3269 123.496C60.6259 128.362 60.9002 135.065 60.125 137.808H15.6587C15.6587 137.054 15.688 136.338 15.743 135.661C16.324 128.495 19.7644 125.526 21.5623 124.927C29.5769 122.494 31.4613 110.794 31.4017 105.248C31.4017 91.3659 23.5302 86.5834 19.5944 85.9274C14.7284 85.2118 13.3926 82.0513 13.333 80.5605C13.333 75.9807 19.2963 74.0009 22.2779 73.5835C25.8558 73.2972 29.1356 71.556 30.3283 70.7211C32.9044 68.2881 33.6677 63.7441 33.7273 61.7762Z" fill="#CCCCCC"/>
<path fill-rule="evenodd" clip-rule="evenodd" d="M90.9703 72.3897L90.8416 72.4798C89.3419 73.5296 86.1594 74.9108 82.0849 75.6697C79.8692 76.3842 78.7762 76.8817 78.1724 77.4598C77.7606 77.8541 77.3909 78.4678 77.4392 80.1627C77.4638 80.2139 77.5232 80.3263 77.6525 80.5014C77.9084 80.8481 78.3297 81.289 78.9211 81.7446C80.1021 82.6545 81.8067 83.5044 83.8403 83.8035L83.8606 83.8065L83.8809 83.8098C86.616 84.7518 88.0992 85.2633 91.7404 88.5781C95.4541 91.9589 98.1069 97.6473 98.1069 105.248C98.1069 109.707 97.7178 114.505 95.1605 118.148C92.5995 121.795 90.8287 124.017 84.8905 125.546C83.6891 126.021 82.3767 127.322 81.3953 129.516C80.6265 131.234 80.1343 133.354 80.071 135.661H122.786C122.773 135.598 122.759 135.533 122.744 135.467C122.528 134.523 122.101 133.367 121.423 132.108C120.068 129.591 117.782 126.792 114.443 124.567L114.421 124.552L114.4 124.537C114.286 124.457 114.156 124.368 114.011 124.27C112.867 123.495 110.832 122.115 109.095 119.559C107.12 116.653 105.617 112.4 105.616 105.975C105.585 102.89 105.908 98.3987 107.472 94.1911C109.046 89.9579 111.964 85.8171 117.2 83.9193C117.562 83.7771 118.107 83.6009 118.666 83.4201C118.924 83.3367 119.185 83.2522 119.433 83.1696C120.329 82.8709 121.3 82.5212 122.195 82.1036C123.11 81.6769 123.822 81.2346 124.278 80.8002C124.721 80.3791 124.758 80.1321 124.758 80.0238C124.758 79.3796 124.657 78.4183 123.995 77.4932C123.357 76.6005 121.972 75.4304 118.791 74.7941L118.759 74.7876L118.726 74.7802C115.137 73.9469 109.728 70.8861 108.796 63.923H96.5148C96.4549 64.0986 96.3914 64.2713 96.3259 64.4397C95.9909 65.3016 95.535 66.2281 95.0102 67.1427C93.971 68.9537 92.5669 70.8818 91.0845 72.2818L90.9703 72.3897ZM94.7985 61.7762H110.804C110.804 68.9321 115.872 71.9138 119.212 72.689C126.368 74.1202 126.905 78.2944 126.905 80.0238C126.905 83.0151 121.903 84.6309 119.217 85.4985C118.691 85.6687 118.253 85.8101 117.96 85.9274C109.015 89.1476 107.703 100.06 107.763 105.964C107.763 117.415 112.782 120.835 115.212 122.49C115.363 122.593 115.504 122.689 115.634 122.78C122.933 127.646 125.712 135.065 124.937 137.808H77.9821C77.4454 131.01 80.3078 124.927 84.2435 123.496C95.5141 120.634 95.9601 113.657 95.9601 105.248C95.9601 91.3659 87.4637 86.5834 83.528 85.9274C78.662 85.2118 75.3583 81.8724 75.2987 80.3816C75.1269 76.088 77.0876 75.0147 81.5601 73.5835C85.4957 72.8679 88.4178 71.556 89.6105 70.7211C92.1866 68.2881 94.7389 63.7441 94.7985 61.7762Z" fill="#CCCCCC"/>
<path d="M153.12 61.7762H113.082C113.082 67.501 117.912 70.7973 121.311 71.6156C129.04 73.4761 129.302 77.877 129.362 79.8449C129.362 83.9953 121.133 86.8219 118.091 87.7164C110.756 90.7576 110.518 101.969 110.22 107.574C109.79 117.306 116.802 120.74 119.522 122.78C124.532 126.537 127.632 134.409 127.573 137.808H142.744C142.028 128.326 144.175 126.609 148.469 124.033C155.625 119.739 154.551 107.574 154.551 103.459C153.406 91.4374 152.047 88.432 147.932 87.0008C141.85 84.8851 139.584 81.932 139.524 79.8449C139.381 74.8358 141.671 72.5101 144.354 71.6156C152.083 69.8982 152.941 64.3404 153.12 61.7762Z" fill="#CCCCCC"/>
<path fill-rule="evenodd" clip-rule="evenodd" d="M150.94 127.232L150.897 127.259C149.959 127.874 147.397 130.796 146.804 135.84H186.27C186.154 135.053 185.954 134.162 185.634 133.264C185.001 131.485 183.97 129.86 182.4 128.832C178.042 127.162 171.374 120.431 171.367 106.163C171.306 102.828 171.904 97.7238 173.936 93.0813C175.982 88.4069 179.625 83.9221 185.756 82.5782L185.888 82.5494L186.022 82.5372C187.481 82.4045 189.655 81.9436 191.39 81.0586C193.177 80.1477 193.909 79.1305 193.909 78.056V78.001L193.911 77.946C193.937 77.4554 193.718 76.3512 192.521 75.3256C191.329 74.3045 188.993 73.2257 184.606 73.2257H184.479L184.353 73.2108C182.353 72.9736 179.375 72.1848 176.832 70.5173C174.723 69.1345 172.781 67.0421 172.133 64.102H157.854C157.4 65.601 156.637 67.3489 155.485 68.9897C153.807 71.3789 151.22 73.6481 147.48 74.4319C146.824 74.5716 145.718 75.0202 144.811 75.865C143.977 76.6424 143.311 77.7465 143.282 79.375C143.378 79.9298 144.313 82.448 148.944 83.6541C151.104 84.0934 153.441 86.0328 155.189 89.4604C156.987 92.9866 158.302 98.3115 158.308 106.089C158.431 108.624 158.236 112.601 157.261 116.531C156.293 120.426 154.457 124.682 150.981 127.202L150.94 127.232ZM156.161 106.143C156.4 110.854 155.446 121.313 149.721 125.464C148.175 126.476 145.249 130.08 144.644 135.84C144.572 136.525 144.533 137.241 144.533 137.987H188.542C188.555 137.718 188.556 137.407 188.542 137.062C188.526 136.69 188.493 136.279 188.437 135.84C188.075 132.996 186.774 128.992 183.354 126.895C180.074 125.762 173.514 120.025 173.514 106.143C173.395 99.9411 175.768 86.9651 186.216 84.6752C189.496 84.377 196.055 82.6357 196.055 78.056C196.175 75.7303 194.052 71.079 184.606 71.079C181.088 70.6615 174.051 68.2524 174.051 61.9552H156.161C155.684 64.8772 153.191 71.0432 147.037 72.3313C145.07 72.7487 141.134 74.7643 141.134 79.4872C141.253 80.978 142.887 84.3174 148.469 85.7486C151.033 86.2256 156.161 90.9724 156.161 106.143Z" fill="#CCCCCC"/>
<path d="M168.147 60.7029H121.813L152.762 51.758C158.487 50.0406 161.23 51.6387 161.886 52.6525L168.147 60.7029Z" fill="#CCCCCC"/>
</g>
<g filter="url(#filter0_d_3208_48)">
<path d="M178.344 233.053L178.042 231.094L180.605 229.135L183.317 230.491L182.865 233.053H178.344Z" fill="#FFCCB3"/>
<path d="M198.884 233.053L198.539 231.094L201.467 229.135L204.567 230.491L204.051 233.053H198.884Z" fill="#FFCCB3"/>
<path d="M183.619 232.451H177.59V235.314C177.59 235.314 173 240.17 170.808 240.89C169.962 241.169 170.507 243.151 170.507 243.151L180.303 240.89L181.66 238.78L182.714 240.288L184.222 239.835L183.619 235.314V232.451Z" fill="black"/>
<path d="M198.539 232.451H204.567V235.314L211.349 240.89C212.5 241.67 211.651 243.151 211.651 243.151L201.855 240.89L200.498 238.78L199.443 240.288L197.936 239.835L198.539 235.314V232.451Z" fill="black"/>
<path d="M180.424 108.513L174.084 110.199C174.084 110.199 175.3 119.817 177.862 127.955C180.044 134.888 185.849 136.575 185.849 142.574L189.768 140.012C183.287 130.517 176.686 118.966 180.424 108.513Z" fill="#FFCCB3"/>
<path d="M175.028 142.176C175.51 139.161 178.746 134.389 180.303 132.379L189.496 128.009L200.498 135.846C206.044 144.527 205.823 203.263 205.019 231.546H197.484L189.496 161.014C187.567 167.163 188.692 187.288 189.496 196.582C189.496 202.61 185.779 222.403 183.92 231.546H177.289V194.622C174.877 182.204 174.777 154.484 175.028 142.176Z" fill="#3D537E"/>
<path d="M214.062 118.062L207.722 119.747C207.722 119.747 208.637 125.899 211.199 134.037C213.381 140.97 219.488 149.108 219.488 152.122L223.406 149.56C216.926 140.066 214.343 123.27 214.062 118.062Z" fill="#FFCCB3"/>
<path d="M202.485 80.4403C200.456 76.1565 199.892 73 190.761 73C180.39 73 177.158 84.8303 177.459 94.7131L191.55 98.8841L203.048 95.3208C206.769 87.0914 202.485 80.4403 202.485 80.4403Z" fill="#AFAFAF"/>
<path d="M188.619 100.237L189.521 96.0658L192.677 94.9385L194.594 100.237L191.606 102.266L188.619 100.237Z" fill="#FFCCB3"/>
<path d="M188.619 100.237L189.521 96.0658L194.03 95.3894L192.114 98.4331L188.619 100.237Z" fill="#FBB8A6"/>
<path d="M199.014 87.5923C199.014 92.9467 193.941 97.1745 191.235 97.1745C188.53 97.1745 183.457 92.9467 183.457 87.5923C183.457 82.238 186.939 77.8975 191.235 77.8975C195.531 77.8975 199.014 82.238 199.014 87.5923Z" fill="#FFCCB3"/>
<path d="M194.394 79.3129L192.928 83.033C192.928 83.033 192.5 83 188 84.5C183.5 86 187.5 97 187.5 97L180.5 94C180.5 88.4085 182 75.5928 191.099 75.5928C197.232 75.5928 199.291 80.5529 199.554 83.033H195.07L194.394 79.3129Z" fill="#AFAFAF"/>
<circle cx="186.117" cy="88.1168" r="1.72841" transform="rotate(-15 186.117 88.1168)" fill="#FFCCB3"/>
<path d="M195.223 98.3192L187.688 99.2235V100.881C185.036 100.881 179.349 102.589 176.837 103.443C182.021 114.053 181.207 126.954 180.153 132.078L201.553 137.805C199.262 120.805 205.17 104.197 208.637 100.881C206.949 100.278 199.393 100.429 195.676 100.58L195.223 98.3192Z" fill="#C5CFD6"/>
<path d="M216.323 118.514C215.238 108.145 210.747 102.439 208.637 100.881L200.046 102.087L194.168 132.078L201.101 135.695C199.172 129.787 202.206 124.995 203.965 123.337L216.323 118.514Z" fill="#C5CFD6"/>
<ellipse cx="223.156" cy="152.178" rx="4.48949" ry="2.71732" transform="rotate(159.816 223.156 152.178)" fill="#FFCCB3"/>
<ellipse cx="219.004" cy="153.079" rx="1.65402" ry="0.708866" transform="rotate(153.314 219.004 153.079)" fill="#FFCCB3"/>
<path fill-rule="evenodd" clip-rule="evenodd" d="M225.629 154.242C225.424 154.427 225.108 154.411 224.923 154.205L223.895 153.064C223.71 152.859 223.727 152.543 223.932 152.358C224.137 152.173 224.453 152.19 224.638 152.395L225.666 153.536C225.851 153.741 225.834 154.058 225.629 154.242Z" fill="#E56441"/>
<path fill-rule="evenodd" clip-rule="evenodd" d="M224.147 155.014C223.942 155.199 223.626 155.183 223.441 154.977L222.413 153.836C222.228 153.631 222.245 153.315 222.45 153.13C222.655 152.945 222.971 152.962 223.156 153.167L224.184 154.308C224.369 154.513 224.352 154.83 224.147 155.014Z" fill="#E56441"/>
<path fill-rule="evenodd" clip-rule="evenodd" d="M222.587 155.563C222.382 155.748 222.066 155.732 221.881 155.526L220.853 154.385C220.668 154.18 220.685 153.864 220.89 153.679C221.095 153.494 221.411 153.511 221.596 153.716L222.624 154.857C222.809 155.062 222.792 155.379 222.587 155.563Z" fill="#E56441"/>
<path fill-rule="evenodd" clip-rule="evenodd" d="M227.111 153.47C226.906 153.655 226.59 153.639 226.405 153.433L225.377 152.292C225.192 152.087 225.209 151.771 225.414 151.586C225.619 151.401 225.935 151.418 226.12 151.623L227.148 152.764C227.333 152.969 227.316 153.286 227.111 153.47Z" fill="#E56441"/>
<path d="M173.069 110.677C173.069 110.677 174.073 105.028 176.837 103.443C178.94 102.237 183.016 102.84 183.016 102.84L193.867 128.461L181.961 127.858C180.394 115.802 175.38 111.381 173.069 110.677Z" fill="#C5CFD6"/>
<path d="M268.691 233.053L268.993 231.094L266.431 229.135L263.718 230.491L264.17 233.053H268.691Z" fill="#FFCCB3"/>
<path d="M248.152 233.053L248.496 231.094L245.568 229.135L242.468 230.491L242.984 233.053H248.152Z" fill="#FFCCB3"/>
<path d="M269.284 232.451H263.256V235.314C263.256 235.314 258.666 240.17 256.474 240.89C255.628 241.169 256.173 243.151 256.173 243.151L265.969 240.89L267.325 238.78L268.38 240.288L269.887 239.835L269.284 235.314V232.451Z" fill="black"/>
<path d="M248.496 232.451H242.468V235.314L235.686 240.89C234.535 241.67 235.384 243.151 235.384 243.151L245.18 240.89L246.537 238.78L247.592 240.288L249.099 239.835L248.496 235.314V232.451Z" fill="black"/>
<path d="M266.611 108.513L272.951 110.199C272.951 110.199 271.735 119.817 269.173 127.955C266.991 134.888 261.186 136.575 261.186 142.574L257.267 140.012C263.748 130.517 270.349 118.966 266.611 108.513Z" fill="#FFCCB3"/>
<path d="M272.007 142.176C271.524 139.161 268.289 134.389 266.732 132.379L257.539 128.009L246.537 135.846C240.991 144.527 241.212 203.263 242.016 231.546H249.551L257.539 161.014C259.468 167.163 258.342 187.288 257.539 196.582C257.539 202.61 261.256 222.403 263.115 231.546H269.746V194.622C272.157 182.204 272.258 154.484 272.007 142.176Z" fill="#2F2E41"/>
<path d="M232.973 118.062L239.313 119.747C239.313 119.747 238.399 125.899 235.836 134.037C233.654 140.97 227.547 149.108 227.547 152.122L223.629 149.56C230.11 140.066 232.692 123.27 232.973 118.062Z" fill="#FFCCB3"/>
<path d="M258.416 100.237L257.514 96.0658L254.358 94.9385L252.442 100.237L255.429 102.266L258.416 100.237Z" fill="#FFCCB3"/>
<path d="M258.416 100.237L257.514 96.0658L253.005 95.3894L254.922 98.4331L258.416 100.237Z" fill="#FBB8A6"/>
<path d="M248.022 87.5923C248.022 92.9467 253.095 97.1745 255.8 97.1745C258.506 97.1745 263.579 92.9467 263.579 87.5923C263.579 82.238 260.096 77.8975 255.8 77.8975C251.504 77.8975 248.022 82.238 248.022 87.5923Z" fill="#FFCCB3"/>
<path d="M251.812 98.3192L259.347 99.2235V100.881C262 100.881 267.686 102.589 270.198 103.443C265.014 114.053 265.828 126.954 266.883 132.078L245.482 137.805C247.773 120.805 241.865 104.197 238.399 100.881C240.086 100.278 247.642 100.429 251.36 100.58L251.812 98.3192Z" fill="#5661AE"/>
<path d="M230.712 118.514C231.797 108.145 236.289 102.439 238.399 100.881L246.989 102.087L252.867 132.078L245.934 135.695C247.863 129.787 244.829 124.995 243.071 123.337L230.712 118.514Z" fill="#5661AE"/>
<ellipse cx="4.48949" cy="2.71732" rx="4.48949" ry="2.71732" transform="matrix(0.938592 0.345029 0.345029 -0.938592 218.728 153.179)" fill="#FFCCB3"/>
<ellipse cx="1.65402" cy="0.708866" rx="1.65402" ry="0.708866" transform="matrix(0.893478 0.449106 0.449106 -0.893478 226.235 152.969)" fill="#FFCCB3"/>
<path fill-rule="evenodd" clip-rule="evenodd" d="M221.406 154.242C221.611 154.427 221.928 154.411 222.112 154.205L223.14 153.064C223.325 152.859 223.308 152.543 223.103 152.358C222.898 152.173 222.582 152.19 222.397 152.395L221.369 153.536C221.184 153.741 221.201 154.058 221.406 154.242Z" fill="#E56441"/>
<path fill-rule="evenodd" clip-rule="evenodd" d="M222.888 155.014C223.093 155.199 223.409 155.183 223.594 154.977L224.622 153.836C224.807 153.631 224.79 153.315 224.585 153.13C224.38 152.945 224.064 152.962 223.879 153.167L222.851 154.308C222.666 154.513 222.683 154.83 222.888 155.014Z" fill="#E56441"/>
<path fill-rule="evenodd" clip-rule="evenodd" d="M224.448 155.563C224.653 155.748 224.97 155.732 225.154 155.526L226.182 154.385C226.367 154.18 226.35 153.864 226.145 153.679C225.94 153.494 225.624 153.511 225.439 153.716L224.411 154.857C224.226 155.062 224.243 155.379 224.448 155.563Z" fill="#E56441"/>
<path fill-rule="evenodd" clip-rule="evenodd" d="M219.924 153.47C220.129 153.655 220.446 153.639 220.63 153.433L221.658 152.292C221.843 152.087 221.827 151.771 221.621 151.586C221.416 151.401 221.1 151.418 220.915 151.623L219.887 152.764C219.703 152.969 219.719 153.286 219.924 153.47Z" fill="#E56441"/>
<path d="M273.966 110.677C273.966 110.677 272.962 105.028 270.198 103.443C268.095 102.237 264.019 102.84 264.019 102.84L253.168 128.461L265.074 127.858C266.642 115.802 271.655 111.381 273.966 110.677Z" fill="#5661AE"/>
<path d="M245.648 93.7544C245.138 79.7972 251.449 76.8531 254.668 77.1257C260.936 76.0353 264.082 82.3052 264.872 85.5764C269.536 93.9361 269.245 109.293 268.516 115.926C266.839 125.158 259.679 128.556 256.308 129.102C251.352 128.593 247.562 124.71 246.286 122.832C245.339 123.995 245.466 125.376 245.648 125.921C243.389 123.086 243.249 112.14 243.462 107.021C242.879 107.384 240.911 107.718 240 107.839C244.009 105.658 245.436 97.5405 245.648 93.7544Z" fill="#AFAFAF"/>
</g>
</g>
<defs>
<filter id="filter0_d_3208_48" x="150.334" y="53" width="143.632" height="210.151" filterUnits="userSpaceOnUse" color-interpolation-filters="sRGB">
<feFlood flood-opacity="0" result="BackgroundImageFix"/>
<feColorMatrix in="SourceAlpha" type="matrix" values="0 0 0 0 0 0 0 0 0 0 0 0 0 0 0 0 0 0 127 0" result="hardAlpha"/>
<feOffset/>
<feGaussianBlur stdDeviation="10"/>
<feComposite in2="hardAlpha" operator="out"/>
<feColorMatrix type="matrix" values="0 0 0 0 1 0 0 0 0 1 0 0 0 0 1 0 0 0 0.94 0"/>
<feBlend mode="normal" in2="BackgroundImageFix" result="effect1_dropShadow_3208_48"/>
<feBlend mode="normal" in="SourceGraphic" in2="effect1_dropShadow_3208_48" result="shape"/>
</filter>
<clipPath id="clip0_3208_48">
<rect width="288" height="250" fill="white"/>
</clipPath>
</defs>
</svg>
