<svg width="289" height="250" viewBox="0 0 289 250" fill="none" xmlns="http://www.w3.org/2000/svg">
<mask id="mask0_3177_15449" style="mask-type:alpha" maskUnits="userSpaceOnUse" x="0" y="0" width="289" height="250">
<path d="M288.5 0H0.75V250H288.5V0Z" fill="white"/>
</mask>
<g mask="url(#mask0_3177_15449)">
<path fill-rule="evenodd" clip-rule="evenodd" d="M143.209 40.0567C164.807 40.9618 181.381 55.5304 198.89 68.2289C221.876 84.9003 257.428 95.6151 258.948 124C260.472 152.436 228.009 169.089 205.204 186.095C186.709 199.887 166.205 208.621 143.209 210.306C117.909 212.159 91.6686 211.213 71.4301 195.894C48.4051 178.466 26.747 152.803 29.1886 124C31.5566 96.0633 60.1101 79.9628 82.6646 63.3579C100.774 50.0254 120.753 39.1155 143.209 40.0567Z" fill="#F2F2F2"/>
<path d="M180.09 122.232L168.664 100.357L162.573 103.741L176.314 122.863L180.09 122.232Z" fill="#FFCCB3"/>
<path d="M174.408 102.002C167.911 97.9416 162.001 69.9711 159.52 62.0762L160.197 106.4C162.633 102.611 170.235 103.581 174.408 102.002Z" fill="#B6BFC6"/>
<path d="M113.842 212.982L121.286 209.598L126.023 215.35L115.534 218.395L113.842 212.982Z" fill="#FFCCB3"/>
<path d="M145.132 231.352C143.497 227.264 144.996 223.381 145.95 221.95L153.513 220.519C154.003 223.462 156.851 227.741 158.214 229.512L145.132 231.352Z" fill="white"/>
<path d="M141.307 236.666C140.816 230.616 143.555 225.697 144.986 223.994C147.602 229.88 153.571 227.196 157.045 226.446C162.278 231.188 169.188 231.849 172.17 233.191C176.258 235.031 173.806 236.666 172.17 236.666C155.165 236.666 150.232 235.576 149.892 235.031L148.665 236.666H141.307Z" fill="#8B4E18"/>
<path d="M107.408 216.496C109.473 213.521 112.818 212.79 114.232 212.796L118.641 217.339C116.843 219.01 115.197 222.904 114.598 224.642L107.408 216.496Z" fill="white"/>
<path d="M102.026 216.278C105.957 213.2 110.575 212.851 112.392 213.061C109.537 217.525 114.084 220.405 116.173 222.451C115.289 228.191 117.967 233.235 118.397 235.89C118.987 239.53 116.753 238.587 116.012 237.464C108.306 225.791 106.819 221.911 107.039 221.43L105.361 221.329L102.026 216.278Z" fill="#8B4E18"/>
<path d="M114.181 210.951L122.978 224.147C122.978 224.147 162.904 193.695 165.61 185.913C167.847 179.485 165.61 123.318 165.61 123.318L139.622 118.581C133.667 123.995 148.016 172.492 148.354 179.485L114.181 210.951Z" fill="#2F2E41"/>
<path d="M142.602 223.809H160.873C160.873 223.809 165.307 192.95 165.272 173.056C165.238 153.556 160.873 123.318 160.873 123.318L134.885 118.581C128.93 123.995 130.083 126.025 130.083 136.175C130.083 136.175 130.083 142.266 136.85 150.048L146.662 182.191C142.602 210.951 142.602 223.809 142.602 223.809Z" fill="#474663"/>
<path d="M130.422 139.559C130.422 139.559 150.456 133.475 156.813 135.498C164.257 137.867 162.227 165.612 159.52 166.627C156.813 167.642 148.354 167.642 148.354 167.642L142.264 167.642L140.234 161.89L132.114 142.942L130.422 139.559Z" fill="#2F2E41"/>
<path d="M163.357 29.9038C164.752 25.0755 164.851 15.6385 155.194 12.5484C152.136 11.4754 147.63 11.9046 142.963 14.4798C138.295 17.0549 135.881 21.4004 136.686 26.3897C138.456 30.1451 136.686 32.3446 145.681 38.4605C146.726 41.0391 148.252 42.6883 149.355 43.4232L145.681 38.4605C144.59 35.7686 144.023 32.0637 145.009 27.3287C149.355 23.6806 159.108 19.0883 163.357 29.9038Z" fill="black"/>
<path d="M143.561 45.6763C144.591 44.1313 144.848 41.2772 144.848 40.0433C147.155 39.1849 154.76 38.9445 152.413 41.8137C149.515 45.3544 152.52 48.4124 153.378 49.539H142.595C142.337 48.3802 143.131 46.4811 143.561 45.6763Z" fill="#FFCCB3"/>
<path d="M145.17 41.1699C146.618 46.803 152.573 49.539 152.573 49.539H153.378C150.964 45.9983 150.642 44.5498 151.286 41.4918L145.17 41.1699Z" fill="#FBB8A6"/>
<path d="M141.951 33.9277C141.951 41.572 150.964 47.608 154.827 47.608C158.689 47.608 164.161 41.572 164.161 33.9277C164.161 26.2834 159.19 20.0864 153.056 20.0864C146.923 20.0864 141.951 26.2834 141.951 33.9277Z" fill="#FFCCB3"/>
<circle cx="4.34551" cy="4.34551" r="4.34551" transform="matrix(-1 0 0 1 144.526 30.3867)" fill="#FFCCB3"/>
<path d="M143.445 24.4581C146.664 23.5568 151.715 22.8757 152.573 20.8907C158.753 20.8907 157.126 24.6191 157.126 27.9723C180.141 25.88 156.16 7.23704 153.539 15.9015C145.974 13.0311 139.376 21.7491 139.054 26.5238C141.371 27.4251 140.878 32.4251 141.307 34.0882C143.882 32.9294 143.606 25.5311 143.445 24.4581Z" fill="#020202"/>
<path fill-rule="evenodd" clip-rule="evenodd" d="M123.654 125.01C123.654 125.01 140.514 118.193 147.532 120.773C156.899 124.216 167.302 125.01 167.302 125.01C162.034 105.017 167.302 68.5051 155.121 49.5573L142.211 45.8354C128.697 63.3902 126.323 96.0124 123.654 125.01Z" fill="#C5CFD6"/>
<path d="M125.346 90.8362C122.799 65.2181 128.846 56.1595 138.896 52.9136L140.207 61.7151C136.461 63.7751 134.604 66.9299 133.465 70.1421C124.65 94.9926 132.393 105.92 134.89 110.352C131.775 110.799 130.76 111.137 128.053 112.152C128.053 107.077 126.47 92.9586 125.346 90.8362Z" fill="#B6BFC6"/>
<path d="M126.959 121.626L119.594 105.596L121.861 99.9717L126.959 101.097L131.775 119.095L126.959 121.626Z" fill="#FFCCB3"/>
<path d="M113.615 91.303C111.068 65.6849 130.531 52.7884 140.581 49.5425V62.0894C137.735 61.1905 128.584 81.1691 128.584 86.5308C128.584 94.9923 129.833 104.384 132.33 108.816C129.334 108.816 119.08 113.749 116.459 116.495C111.365 114.997 113.615 102.16 113.615 91.303Z" fill="#C5CFD6"/>
<circle cx="178.592" cy="120.436" r="3.72188" transform="rotate(35.5023 178.592 120.436)" fill="#FFCCB3"/>
<rect x="179.787" y="110.507" width="7.44377" height="12.8574" rx="2" transform="rotate(37.0126 179.787 110.507)" fill="#040404"/>
<path d="M107.413 142.561H158.748V144.699C158.748 151.76 158.748 155.29 157.308 157.957C156.197 160.018 154.506 161.708 152.446 162.82C149.779 164.259 146.248 164.259 139.188 164.259H126.973C119.913 164.259 116.383 164.259 113.715 162.82C111.655 161.708 109.964 160.018 108.853 157.957C107.413 155.29 107.413 151.76 107.413 144.699V142.561Z" fill="#5661AE"/>
<path d="M107.414 140.973C107.414 135.127 112.152 130.389 117.998 130.389H148.163C154.009 130.389 158.748 135.127 158.748 140.973V140.973H107.414V140.973Z" fill="#6B77C8"/>
<path fill-rule="evenodd" clip-rule="evenodd" d="M135.462 138.857H130.17V144.149H135.462V138.857ZM127.524 136.21V146.795H138.108V136.21H127.524Z" fill="black"/>
<path fill-rule="evenodd" clip-rule="evenodd" d="M125.407 130.389H126.995C126.995 130.389 126.995 130.389 126.995 130.389C126.995 127.174 129.601 124.567 132.816 124.567C136.031 124.567 138.637 127.174 138.637 130.389C138.637 130.389 138.637 130.389 138.637 130.389H140.225C140.225 126.297 136.908 122.98 132.816 122.98C128.724 122.98 125.407 126.297 125.407 130.389Z" fill="black"/>
<circle cx="131.775" cy="122.98" r="4.73694" fill="#FFCCB3"/>
</g>
</svg>
