<svg width="288" height="250" viewBox="0 0 288 250" fill="none" xmlns="http://www.w3.org/2000/svg">
<mask id="mask0_3161_725" style="mask-type:alpha" maskUnits="userSpaceOnUse" x="0" y="0" width="288" height="250">
<path d="M287.75 0H0V250H287.75V0Z" fill="white"/>
</mask>
<g mask="url(#mask0_3161_725)">
<path fill-rule="evenodd" clip-rule="evenodd" d="M153.017 85.5797L155.733 72V91.9169C154.333 91.917 153.198 93.0519 153.198 94.4518C153.198 95.8518 154.333 96.9867 155.733 96.9867C157.133 96.9867 158.268 95.8518 158.268 94.4518C158.268 93.0518 157.133 91.9169 155.733 91.9169V72L158.449 85.5797H163.7L162.432 92.2791H160.803V99.5216L174.564 107.85V108.213H171.667L174.564 112.739V150.762H155.733H136.902V107.85L150.663 99.5216V92.2791H149.034L147.766 85.5797H153.017ZM153.922 106.764C153.922 105.764 154.733 104.954 155.733 104.953C156.733 104.953 157.544 105.764 157.544 106.764C157.544 107.764 156.733 108.575 155.733 108.575C154.733 108.575 153.922 107.764 153.922 106.764ZM155.371 116.904H155.733H159.535V145.693H155.733H151.931V116.904H155.371ZM149.577 145.693V117.266C145.521 117.7 142.696 120.827 141.791 122.336V145.693H149.577ZM161.527 117.266V145.693H169.313V122.336C168.407 120.827 165.583 117.7 161.527 117.266ZM139.799 108.213H136.902V112.739L139.799 108.213Z" fill="#CCCCCC"/>
<path fill-rule="evenodd" clip-rule="evenodd" d="M50.8979 151.848H155.371H262.38V157.461H254.628L253.406 158.909H250.35L249.127 157.461H234.712L233.489 158.909H230.433L229.211 157.461H216.243L215.021 158.909H211.964L210.742 157.461H199.585L198.363 158.909H195.306L194.084 157.461H179.306L178.084 158.909H175.027L174.564 158.36L174.1 158.909H171.044L169.822 157.461H141.283L140.06 158.909H137.004L136.722 158.574L136.439 158.909H133.383L132.161 157.461H117.02L115.798 158.909H112.742L111.519 157.461H100.362L99.1402 158.909H96.0838L94.8615 157.461H81.8941L80.6718 158.909H77.6154L76.3931 157.461H61.9772L60.7549 158.909H57.6985L56.4762 157.461H50.8979V151.848ZM58.6835 180.999V160.076L57.6985 158.909H50.7168V180.999H58.6835ZM59.7699 180.999V160.076L60.7549 158.909H77.6154L78.6004 160.076V180.999H59.7699ZM97.0688 180.999H79.6868V160.076L80.6718 158.909H96.0838L97.0688 160.076V180.999ZM113.727 180.999H98.1552V160.076L99.1402 158.909H112.742L113.727 160.076V180.999ZM134.368 180.999H114.813V160.076L115.798 158.909H133.383L134.368 160.076V180.999ZM137.989 180.999H135.454V160.076L136.439 158.909H137.004L137.989 160.076V180.999ZM141.973 180.999H139.076V160.076L140.06 158.909H171.044L172.029 160.076V180.999H169.494V163.617H141.973V180.999ZM176.012 180.999H173.115V160.076L174.1 158.909H175.027L176.012 160.076V180.999ZM196.291 180.999H177.099V160.076L178.084 158.909H195.306L196.291 160.076V180.999ZM212.949 180.999H197.378V160.076L198.363 158.909H211.964L212.949 160.076V180.999ZM231.418 180.999H214.036V160.076L215.021 158.909H230.433L231.418 160.076V180.999ZM251.335 180.999H232.504V160.076L233.489 158.909H250.35L251.335 160.076V180.999ZM252.421 180.999V160.076L253.406 158.909H262.199V180.999H252.421Z" fill="#CCCCCC"/>
<path fill-rule="evenodd" clip-rule="evenodd" d="M134.911 108.937L128.574 103.867L122.236 108.937H118.615L121.331 112.196V150.763H128.574H135.816V112.196L138.532 108.937H134.911ZM128.574 145.512H127.125V119.076H128.574V145.512ZM128.574 145.512H130.022V119.076H128.574V145.512Z" fill="#CCCCCC"/>
<path fill-rule="evenodd" clip-rule="evenodd" d="M189.411 108.937L183.074 103.867L176.736 108.937H173.115L175.831 112.196V150.763H183.074H190.316V112.196L193.032 108.937H189.411ZM183.074 145.512H181.625V119.076H183.074V145.512ZM183.074 145.512H184.522V119.076H183.074V145.512Z" fill="#CCCCCC"/>
<path d="M93.991 108.938H115.537L119.702 113.102V128.492H117.71V130.122H107.752V128.492H100.871V130.122H90.9129V128.492H83.8515V130.122H73.7119V128.492H67.0126V130.122H56.873L93.991 108.938Z" fill="#CCCCCC"/>
<path fill-rule="evenodd" clip-rule="evenodd" d="M50.897 132.836H48L50.897 135.552V150.942H119.52V129.758H118.615V131.387H106.302V129.758H101.957V131.387H89.6445V129.758H85.1179V131.387H72.2625V129.758H68.4601V131.387H54.3372V129.758H50.897V132.836ZM65.7441 140.621C62.1228 138.738 59.1655 139.837 58.1394 140.621V148.407H65.7441V140.621ZM75.3404 140.621C76.3665 139.837 79.3238 138.738 82.9451 140.621V148.407H75.3404V140.621ZM99.965 140.621C96.3438 138.738 93.3864 139.837 92.3604 140.621V148.407H99.965V140.621ZM109.38 140.621C110.406 139.837 113.364 138.738 116.985 140.621V148.407H109.38V140.621Z" fill="#CCCCCC"/>
<path d="M217.655 108.938H196.109L191.945 113.102V128.492H193.936V130.122H203.895V128.492H210.775V130.122H220.734V128.492H227.795V130.122H237.935V128.492H244.634V130.122H254.773L217.655 108.938Z" fill="#CCCCCC"/>
<path fill-rule="evenodd" clip-rule="evenodd" d="M260.749 132.836H263.646L260.749 135.552V150.942H192.127V129.758H193.032V131.387H205.344V129.758H209.69V131.387H222.002V129.758H226.529V131.387H239.384V129.758H243.186V131.387H257.309V129.758H260.749V132.836ZM245.902 140.621C249.523 138.738 252.481 139.837 253.507 140.621V148.407H245.902V140.621ZM236.306 140.621C235.28 139.837 232.322 138.738 228.701 140.621V148.407H236.306V140.621ZM211.681 140.621C215.302 138.738 218.26 139.837 219.286 140.621V148.407H211.681V140.621ZM202.266 140.621C201.24 139.837 198.283 138.738 194.661 140.621V148.407H202.266V140.621Z" fill="#CCCCCC"/>
<path d="M75.1968 105.613C77.2702 98.4363 77.418 84.4086 63.0636 79.8152C58.5181 78.2202 51.8195 78.8583 44.8815 82.6861C37.9435 86.5139 37.4651 91.4404 38.6613 98.8568C41.2929 104.439 35.5512 109.242 48.9222 118.333C50.4759 122.166 52.7444 124.617 54.383 125.71L48.9222 118.333C47.3001 114.331 46.4572 108.824 47.9236 101.786C54.383 96.3629 68.8808 89.5366 75.1968 105.613Z" fill="black"/>
<path d="M45.7704 129.059C47.3016 126.762 47.6843 122.52 47.6843 120.686C51.1134 119.41 62.4181 119.052 58.9286 123.317C54.6223 128.58 59.0881 133.126 60.364 134.801H44.335C43.9522 133.078 45.1325 130.255 45.7704 129.059Z" fill="#FFCCB3"/>
<path d="M48.1628 122.36C50.316 130.734 59.1678 134.801 59.1678 134.801H60.364C56.7754 129.538 56.2969 127.384 57.2539 122.839L48.1628 122.36Z" fill="#FBB8A6"/>
<path d="M43.378 111.595C43.378 122.958 56.7753 131.93 62.5171 131.93C68.2588 131.93 76.3929 122.958 76.3929 111.595C76.3929 100.232 69.0023 91.02 59.8855 91.02C50.7686 91.02 43.378 100.232 43.378 111.595Z" fill="#FFCCB3"/>
<circle cx="6.45945" cy="6.45945" r="6.45945" transform="matrix(-1 0 0 1 47.2058 106.331)" fill="#FFCCB3"/>
<path d="M45.5991 97.5191C50.3839 96.1793 57.8915 95.1668 59.1674 92.2162C68.3542 92.2162 68.0876 85.4992 68.0876 90.4836C76.9395 86.8951 64.499 71.9205 60.6029 84.7998C49.3586 80.5331 39.5498 93.4922 39.0713 100.59C42.5164 101.929 41.7827 109.362 42.4207 111.834C46.2485 110.111 45.8383 99.114 45.5991 97.5191Z" fill="#020202"/>
<path d="M77.7484 249.817C78.675 232.433 75.0455 216.066 72.6516 209.593L31.8783 208.668C23.909 221.799 23.77 241.572 24.6967 249.817H77.7484Z" fill="#678544"/>
<mask id="mask1_3161_725" style="mask-type:alpha" maskUnits="userSpaceOnUse" x="24" y="208" width="54" height="42">
<path d="M77.7482 249.817C78.6749 232.433 75.0454 216.066 72.6515 209.593L31.8782 208.668C23.9089 221.799 23.7699 241.572 24.6965 249.817H77.7482Z" fill="#678544"/>
</mask>
<g mask="url(#mask1_3161_725)">
<path fill-rule="evenodd" clip-rule="evenodd" d="M76.3496 211.061C78.8079 211.094 80.4832 213.212 81.2501 215.507C82.0265 217.828 82.0008 220.553 80.0158 222.026C77.9344 223.572 75.0294 223.214 72.945 221.673C70.9703 220.213 70.2653 217.681 71.0082 215.366C71.7735 212.98 73.8034 211.026 76.3496 211.061Z" fill="#466139"/>
<path fill-rule="evenodd" clip-rule="evenodd" d="M51.4688 215.845C53.927 215.879 55.6023 217.997 56.3693 220.291C57.1456 222.613 57.1199 225.338 55.1349 226.811C53.0536 228.357 50.1486 227.998 48.0642 226.458C46.0894 224.998 45.3844 222.466 46.1274 220.15C46.8926 217.765 48.9225 215.81 51.4688 215.845Z" fill="#466139"/>
<path fill-rule="evenodd" clip-rule="evenodd" d="M26.3543 236.898C28.9194 236.932 30.6676 239.05 31.4679 241.344C32.278 243.666 32.2512 246.391 30.1799 247.864C28.008 249.409 24.9767 249.051 22.8017 247.511C20.7411 246.051 20.0054 243.519 20.7807 241.203C21.5792 238.818 23.6974 236.863 26.3543 236.898Z" fill="#C8A37A"/>
<path fill-rule="evenodd" clip-rule="evenodd" d="M62.9953 243.899C63.2031 244.79 62.9435 245.765 62.13 246.258C61.3701 246.718 60.482 246.345 59.7579 245.861C58.7934 245.216 57.5132 244.498 57.8578 243.402C58.2469 242.163 59.7358 241.571 61.0653 241.7C62.1715 241.807 62.7523 242.859 62.9953 243.899Z" fill="#CDAA83"/>
<path fill-rule="evenodd" clip-rule="evenodd" d="M75.1604 238.095C77.5828 236.373 80.8282 235.677 83.0452 237.47C85.3132 239.303 85.6315 242.734 84.2395 245.436C83.1194 247.61 80.3328 247.508 77.9533 247.352C75.8183 247.213 73.4961 246.734 72.8807 244.694C72.1563 242.294 73.0544 239.592 75.1604 238.095Z" fill="#81593E"/>
<path fill-rule="evenodd" clip-rule="evenodd" d="M41.0802 237.869C42.5143 237.868 44.3435 237.625 44.7978 239.208C45.2565 240.806 43.7316 241.994 42.5381 242.948C41.482 243.792 40.2161 244.527 39.1285 243.739C37.7969 242.774 36.8241 240.921 37.3901 239.218C37.9045 237.671 39.6548 237.872 41.0802 237.869Z" fill="#81593E"/>
<path fill-rule="evenodd" clip-rule="evenodd" d="M62.1359 238.91C62.1211 240.344 62.3424 242.176 60.7546 242.612C59.1508 243.052 57.9805 241.514 57.041 240.309C56.2091 239.243 55.489 237.969 56.2889 236.891C57.2693 235.57 59.1341 234.619 60.83 235.205C62.371 235.737 62.1498 237.485 62.1359 238.91Z" fill="#81593E"/>
<path fill-rule="evenodd" clip-rule="evenodd" d="M30.0558 215.373C32.3767 215.282 34.8239 216.167 35.5625 218.191C36.3181 220.261 35.1186 222.537 33.0805 223.66C31.4404 224.565 29.6272 223.365 28.1069 222.299C26.743 221.343 25.3941 220.098 25.8235 218.571C26.329 216.776 28.0379 215.451 30.0558 215.373Z" fill="#81593E"/>
<path fill-rule="evenodd" clip-rule="evenodd" d="M55.8937 223.986C58.2145 223.895 60.6618 224.78 61.4004 226.804C62.156 228.874 60.9565 231.15 58.9183 232.273C57.2783 233.177 55.4651 231.978 53.9448 230.912C52.5809 229.956 51.232 228.711 51.6614 227.184C52.1669 225.388 53.8758 224.064 55.8937 223.986Z" fill="#81593E"/>
<path fill-rule="evenodd" clip-rule="evenodd" d="M37.259 220.647C39.0516 220.645 41.3381 220.347 41.906 222.294C42.4795 224.262 40.5733 225.724 39.0814 226.898C37.7612 227.937 36.179 228.841 34.8194 227.872C33.155 226.684 31.9389 224.403 32.6464 222.307C33.2894 220.403 35.4773 220.651 37.259 220.647Z" fill="#4D6840"/>
</g>
<path d="M72.1547 249.914C72.1547 236.756 72.2143 232.166 69.2839 223.598L70.687 231.573C71.4371 237.474 71.6763 243.455 70.9586 249.914H72.1547Z" fill="#526B35"/>
<path fill-rule="evenodd" clip-rule="evenodd" d="M31.0057 209.625H72.6333C72.6333 183.787 78.6143 152.925 64.26 137.614L42.2381 130.268C23.9267 153.8 34.6218 170.753 31.0057 209.625Z" fill="#5B763C"/>
<mask id="mask2_3161_725" style="mask-type:alpha" maskUnits="userSpaceOnUse" x="29" y="130" width="45" height="80">
<path fill-rule="evenodd" clip-rule="evenodd" d="M31.0056 209.625H72.6332C72.6332 183.787 78.6141 153.643 64.499 137.614L42.2379 130.268C20.2398 157.71 34.6217 170.753 31.0056 209.625Z" fill="#5B763C"/>
</mask>
<g mask="url(#mask2_3161_725)">
<path fill-rule="evenodd" clip-rule="evenodd" d="M36.9475 140.725C40.7953 140.777 43.4175 144.081 44.6179 147.66C45.8331 151.282 45.7929 155.532 42.6858 157.831C39.4282 160.242 34.8811 159.684 31.6187 157.28C28.5277 155.002 27.4243 151.053 28.587 147.441C29.7849 143.72 32.9622 140.67 36.9475 140.725Z" fill="#466139"/>
<path fill-rule="evenodd" clip-rule="evenodd" d="M46.8955 182.83C48.8194 182.857 50.1305 184.551 50.7307 186.387C51.3383 188.244 51.3182 190.424 49.7647 191.603C48.1358 192.839 45.8623 192.553 44.2311 191.32C42.6856 190.152 42.1339 188.127 42.7153 186.274C43.3142 184.366 44.9029 182.802 46.8955 182.83Z" fill="#466139"/>
<path fill-rule="evenodd" clip-rule="evenodd" d="M67.9485 142.159C69.8724 142.186 71.1835 143.881 71.7837 145.716C72.3913 147.573 72.3712 149.753 70.8176 150.932C69.1888 152.168 66.9153 151.882 65.2841 150.649C63.7386 149.481 63.1869 147.456 63.7682 145.603C64.3672 143.695 65.9558 142.131 67.9485 142.159Z" fill="#466139"/>
<path fill-rule="evenodd" clip-rule="evenodd" d="M43.3871 141.205C45.6382 141.178 48.3544 141.355 49.0511 143.527C49.7482 145.7 47.6436 147.449 45.821 148.792C43.9982 150.136 41.769 151.538 39.8859 150.283C37.8019 148.893 37.2082 146.013 38.1169 143.657C38.8953 141.638 41.2506 141.23 43.3871 141.205Z" fill="#C8A37A"/>
<path fill-rule="evenodd" clip-rule="evenodd" d="M37.9217 184.755C41.9003 184.599 46.0955 186.123 47.3618 189.609C48.6571 193.174 46.6008 197.094 43.1068 199.028C40.2953 200.585 37.1869 198.52 34.5808 196.684C32.2425 195.038 29.9302 192.892 30.6663 190.263C31.5329 187.171 34.4625 184.89 37.9217 184.755Z" fill="#81593E"/>
<path fill-rule="evenodd" clip-rule="evenodd" d="M69.9106 184.755C71.9275 184.843 73.853 186.018 74.4254 188.118C74.9603 190.078 73.6446 191.808 72.189 193.108C70.2505 194.84 67.9714 197.223 65.8377 195.786C63.4283 194.164 63.0404 190.514 64.0943 187.658C64.9714 185.283 67.5528 184.65 69.9106 184.755Z" fill="#CDAA83"/>
</g>
<path d="M49.9055 137.614L42.2499 130.197C65.2168 134.025 65.9345 138.092 69.5231 145.509C63.0637 137.614 56.684 136.577 49.9055 137.614Z" fill="#4D6840"/>
<path fill-rule="evenodd" clip-rule="evenodd" d="M47.7045 161.942L48.4234 170.263L56.744 169.544L56.0251 161.223L47.7045 161.942ZM55.9052 159.837L47.5846 160.556L47.345 157.782L55.6656 157.063L55.9052 159.837ZM47.2251 156.395C46.4592 156.461 45.892 157.136 45.9582 157.902L47.0366 170.383C47.1028 171.149 47.7773 171.716 48.5432 171.65L56.8639 170.931C57.6298 170.865 58.197 170.19 58.1308 169.424L57.0524 156.943C56.9862 156.177 56.3117 155.61 55.5458 155.676L47.2251 156.395Z" fill="#415C3D"/>
<path d="M31.9627 186.18C29.4746 168.954 21.1969 142.877 40.0968 140.963L39.1398 151.251C36.269 153.643 33.9563 175.095 36.269 177.328L31.9627 186.18Z" fill="#3E5632"/>
<path d="M15.2159 160.102C12.7278 142.877 32.3613 133.467 42.4891 130.915L38.4221 150.293C34.355 151.25 32.9993 157.869 35.312 160.102H15.2159Z" fill="#5B763C"/>
<circle cx="25.2639" cy="161.777" r="10.048" fill="#344929"/>
<circle cx="25.2639" cy="161.777" r="9.09108" fill="black"/>
<ellipse cx="9.59197" cy="5.80567" rx="9.59197" ry="5.80567" transform="matrix(-0.289755 -0.957101 -0.957101 0.289755 34.0176 167.429)" fill="#FFCCB3"/>
<ellipse cx="3.53388" cy="1.51452" rx="3.53388" ry="1.51452" transform="matrix(-0.179498 -0.983758 -0.983758 0.179498 24.0001 154.894)" fill="#FFCCB3"/>
<path fill-rule="evenodd" clip-rule="evenodd" d="M31.7972 161.442C31.8201 161.178 31.6253 160.946 31.362 160.923L28.093 160.638C27.8297 160.615 27.5977 160.81 27.5747 161.074C27.5518 161.337 27.7466 161.569 28.0099 161.592L31.2789 161.877C31.5422 161.9 31.7742 161.705 31.7972 161.442Z" fill="#E56441"/>
<path fill-rule="evenodd" clip-rule="evenodd" d="M31.2074 157.921C31.2304 157.658 31.0356 157.426 30.7723 157.403L27.5032 157.118C27.24 157.095 27.008 157.29 26.985 157.553C26.9621 157.816 27.1569 158.048 27.4202 158.071L30.6892 158.356C30.9525 158.379 31.1845 158.184 31.2074 157.921Z" fill="#E56441"/>
<path fill-rule="evenodd" clip-rule="evenodd" d="M30.1368 154.553C30.1597 154.29 29.9649 154.058 29.7016 154.035L26.4326 153.75C26.1693 153.727 25.9373 153.922 25.9143 154.185C25.8914 154.448 26.0862 154.68 26.3495 154.703L29.6185 154.988C29.8818 155.011 30.1138 154.816 30.1368 154.553Z" fill="#E56441"/>
<path fill-rule="evenodd" clip-rule="evenodd" d="M32.387 164.962C32.41 164.699 32.2151 164.467 31.9519 164.444L28.6828 164.159C28.4196 164.136 28.1875 164.331 28.1646 164.594C28.1416 164.858 28.3365 165.09 28.5997 165.112L31.8688 165.397C32.132 165.42 32.3641 165.226 32.387 164.962Z" fill="#E56441"/>
<path d="M73.5905 211.777C61.6285 214.409 44.6425 212.974 30.049 211.777C30.5274 208.667 30.7832 208.078 31.0059 206.753C43.2071 209.385 62.5855 208.189 72.6335 206.275C73.5905 208.428 73.3512 209.624 73.5905 211.777Z" fill="#3D5739"/>
<path fill-rule="evenodd" clip-rule="evenodd" d="M67.9502 207.259L62.9954 207.516L63.2476 212.124L68.2024 211.867L67.9502 207.259ZM69.5676 211.797L69.3154 207.189L70.5356 207.126L70.7877 211.733L69.5676 211.797ZM71.9006 207.056C71.8606 206.322 71.2168 205.76 70.4629 205.799L62.9228 206.189C62.1689 206.228 61.5902 206.854 61.6303 207.586L61.8825 212.194C61.9225 212.927 62.5663 213.49 63.3202 213.45L70.8603 213.061C71.6142 213.022 72.1929 212.396 72.1529 211.663L71.9006 207.056Z" fill="#2C3F2A"/>
<mask id="mask3_3161_725" style="mask-type:alpha" maskUnits="userSpaceOnUse" x="37" y="79" width="43" height="27">
<path d="M43.6017 82.0519C35.9064 85.8191 37.7173 96.3794 37.8278 102.211C37.2332 103.656 36.5573 106.234 38.6113 104.984L63.0962 94.6114L77.8399 100.386C78.9592 100.484 80.4598 100.056 77.5086 97.56C75.992 86.1859 73.6652 81.3932 68.7652 79.6754C57.9936 77.729 47.5012 80.4488 43.6017 82.0519Z" fill="#678444"/>
</mask>
<g mask="url(#mask3_3161_725)">
<path d="M43.6017 82.0519C35.9064 85.8191 37.7173 96.3794 37.8278 102.211C37.2332 103.656 36.5573 106.234 38.6113 104.984L63.0962 94.7785L77.8399 100.386C78.9592 100.484 80.4598 100.056 77.5086 97.56C75.992 86.1859 73.6652 81.3932 68.7652 79.6754C57.9936 77.729 47.5012 80.4488 43.6017 82.0519Z" fill="#678444"/>
<path fill-rule="evenodd" clip-rule="evenodd" d="M38.3469 88.9714C40.2811 88.7212 42.4383 89.0307 43.324 90.7646C44.3079 92.6908 43.8629 95.1324 42.2053 96.5258C40.721 97.7733 38.6356 97.0868 36.9572 96.1164C35.3694 95.1987 33.9156 93.7344 34.2654 91.9362C34.6199 90.1134 36.5022 89.2097 38.3469 88.9714Z" fill="#CCA880"/>
<path fill-rule="evenodd" clip-rule="evenodd" d="M62.7632 91.6129C63.0005 91.4881 63.2759 91.4565 63.5353 91.524L76.0873 96.4262C76.6621 96.5761 77.0067 97.1636 76.8568 97.7384C76.7068 98.3133 76.1193 98.6577 75.5445 98.5077L63.3957 93.7109L40.1406 102.659C39.6149 102.936 38.9645 102.734 38.6879 102.208C38.4115 101.682 38.6135 101.032 39.1392 100.756L62.7632 91.6129Z" fill="#415C3D"/>
<path fill-rule="evenodd" clip-rule="evenodd" d="M64.6332 77.636C66.3953 77.3845 68.089 78.4111 68.7989 80.0036C69.472 81.5144 68.844 83.1954 67.6211 84.3398C66.3131 85.5641 64.4353 86.4278 62.8735 85.5492C61.3488 84.6915 61.3363 82.7025 61.7114 81.0155C62.0653 79.4241 62.9865 77.8711 64.6332 77.636Z" fill="#775036"/>
<path fill-rule="evenodd" clip-rule="evenodd" d="M45.0137 87.0448C46.66 86.8064 48.5735 86.8923 49.323 88.3553C50.139 89.9483 49.4713 91.8915 48.0923 93.0546C46.8582 94.0956 45.094 93.905 43.6937 93.1033C42.3658 92.343 41.4661 90.9307 41.7895 89.4466C42.1023 88.0115 43.5425 87.258 45.0137 87.0448Z" fill="#4B663E"/>
<path fill-rule="evenodd" clip-rule="evenodd" d="M48.1084 73.2371C50.5698 73.0822 53.0598 73.742 54.2456 75.902C55.76 78.6612 56.5691 82.3017 54.2589 84.4419C51.9369 86.5932 48.4597 85.3599 45.6889 83.8293C42.8396 82.2552 39.6554 79.9463 40.3799 76.7748C41.0769 73.7237 44.982 73.4339 48.1084 73.2371Z" fill="#4A653D"/>
<path fill-rule="evenodd" clip-rule="evenodd" d="M74.1727 84.7682C76.3695 84.5124 78.7785 85.0814 79.6886 87.0461C80.5904 88.993 79.3941 91.1014 77.7822 92.5606C76.1591 94.0299 73.9311 95.0179 71.9778 94.0255C69.8593 92.9493 68.7663 90.5363 69.3071 88.2551C69.8083 86.1409 71.9692 85.0249 74.1727 84.7682Z" fill="#4E6A41"/>
</g>
</g>
</svg>
