<svg width="310" height="250" viewBox="0 0 310 250" fill="none" xmlns="http://www.w3.org/2000/svg">
<mask id="mask0_3152_6328" style="mask-type:alpha" maskUnits="userSpaceOnUse" x="0" y="0" width="310" height="250">
<rect width="310" height="250" fill="white"/>
</mask>
<g mask="url(#mask0_3152_6328)">
<path fill-rule="evenodd" clip-rule="evenodd" d="M154.998 140.273L139.917 147.968H137.3V148.738H137.916V149.353H139.763V150.123H140.84V149.353H142.687V150.123H143.61V149.353H145.303V150.123H146.38V149.353H148.381V150.123H149.458V149.353H151.305V150.123H152.228V149.353H154.229V150.123H154.998V150.123H155.768V149.353H157.768V150.123H158.692V149.353H160.538V150.123H161.616V149.353H163.616V150.123H164.694V149.353H166.386V150.123H167.31V149.353H169.157V150.123H170.234V149.353H172.081V148.738H172.696V147.968H170.08L154.998 140.274V140.273Z" fill="#CCCCCC"/>
<path fill-rule="evenodd" clip-rule="evenodd" d="M154.999 129.962C152.844 129.962 147.304 132.425 145.149 137.657H154.998V137.657H164.848C162.693 132.425 157.153 129.963 154.999 129.962V129.962Z" fill="#CCCCCC"/>
<path fill-rule="evenodd" clip-rule="evenodd" d="M154.998 138.58H167.002V139.658H166.387V143.197H170.08V146.891L154.998 139.35V139.35L139.917 146.891V143.198H143.61V139.658H142.995V138.581H154.998V138.58Z" fill="#CCCCCC"/>
<path fill-rule="evenodd" clip-rule="evenodd" d="M154.998 103.031L150.997 106.262H146.842V107.955H140.84V110.571H139.455V109.956H137.146V110.571H125.297V109.956H122.68V110.571H110.984V109.956H107.752V110.571H100.673L101.289 111.803V114.727H98.8265V116.266H143.918C144.79 114.162 148.227 109.956 154.998 109.956V103.031ZM154.998 103.031L159 106.263H163.155V107.955H169.157V110.572H170.542V109.956H172.85V110.572H184.7V109.956H187.316V110.572H199.013V109.956H202.244V110.572H209.324L208.708 111.803V114.727H211.17V116.266H166.079C165.207 114.162 161.77 109.956 154.998 109.956V103.031Z" fill="#CCCCCC"/>
<path d="M115.909 105.185L94.9792 101.492L88.9773 104.57V114.881L94.5175 115.65V117.035H96.9798L100.212 109.033H115.909V105.185Z" fill="#CCCCCC"/>
<path d="M194.088 105.185L215.017 101.492L221.019 104.57V114.881L215.479 115.65V117.035H213.017L209.785 109.033H194.088V105.185Z" fill="#CCCCCC"/>
<path fill-rule="evenodd" clip-rule="evenodd" d="M154.999 127.962V128.885C159.185 128.885 162.899 132.476 164.232 134.272V115.958C161.893 112.265 157.153 111.495 154.999 111.495V122.421C154.999 122.421 154.999 122.421 154.999 122.421C154.998 122.421 154.998 122.421 154.998 122.421V111.495C152.844 111.495 148.104 112.265 145.765 115.958V134.272C147.098 132.476 150.812 128.885 154.998 128.885V127.962C154.998 127.962 154.998 127.962 154.999 127.962C154.999 127.962 154.999 127.962 154.999 127.962ZM154.998 127.962C153.469 127.962 152.228 126.721 152.228 125.192C152.228 123.662 153.469 122.422 154.998 122.421V127.962ZM154.999 127.962V122.421C156.528 122.422 157.769 123.662 157.769 125.192C157.769 126.721 156.528 127.962 154.999 127.962Z" fill="#CCCCCC"/>
<path fill-rule="evenodd" clip-rule="evenodd" d="M154.998 91.9501V91.9503H122.527L109.446 94.8743L106.675 101.8L117.448 103.954V109.033H138.686V107.032H145.765V105.185H149.92L154.998 101.8L160.077 105.185H164.232V107.032H171.311V109.033H192.549V103.954L203.321 101.799L200.551 94.8741L187.47 91.9501H154.998ZM135.449 100.111C136.142 100.804 136.531 103.898 136.531 104.877H132.837H129.144C129.144 103.898 129.533 100.804 130.226 100.111C130.918 99.4185 131.858 99.0294 132.837 99.0294C133.817 99.0294 134.756 99.4185 135.449 100.111ZM181.161 104.877C181.161 103.898 180.772 100.804 180.079 100.111C179.386 99.4185 178.447 99.0294 177.467 99.0294C176.488 99.0294 175.548 99.4185 174.855 100.111C174.163 100.804 173.774 103.898 173.774 104.877H177.467H181.161ZM159.307 103.185L154.998 100.261L150.689 103.185V98.4141L154.998 95.6443V95.6437L154.998 95.644L154.998 95.644V95.6441L159.307 98.4138V103.185Z" fill="#CCCCCC"/>
<path fill-rule="evenodd" clip-rule="evenodd" d="M170.388 151.2V176.439H166.233V152.739H165.463V176.285H161.77V152.739H154.999V152.739H148.227V176.285H144.533V152.739H143.764V176.439H139.609V151.2H154.999V151.2H170.388Z" fill="#CCCCCC"/>
<path fill-rule="evenodd" clip-rule="evenodd" d="M143.918 137.657V117.189H97.4414V176.439H138.685V150.276H136.377V146.891H138.685V142.274H142.071V137.657H143.918ZM121.295 121.96H111.292V123.499L110.214 124.422V145.813H122.526V124.422L121.295 123.499V121.96ZM126.22 121.96H136.223V123.499L137.454 124.422V145.813H125.142V124.422L126.22 123.499V121.96ZM120.525 161.511C120.525 160.205 120.007 158.952 119.083 158.029C118.16 157.105 116.907 156.586 115.601 156.586C114.295 156.586 113.042 157.105 112.119 158.029C111.195 158.952 110.676 160.205 110.676 161.511H110.676V173.822H120.526V161.511H120.525ZM133.857 158.029C134.781 158.952 135.3 160.205 135.3 161.511H135.3V173.822H125.451V161.511H125.45C125.45 160.205 125.969 158.952 126.893 158.029C127.816 157.105 129.069 156.586 130.375 156.586C131.681 156.586 132.934 157.105 133.857 158.029Z" fill="#CCCCCC"/>
<path fill-rule="evenodd" clip-rule="evenodd" d="M166.694 137.657V117.189H213.171V176.439H171.927V150.276H174.235V146.891H171.927V142.274H168.541V137.657H166.694ZM189.317 121.96H199.32V123.499L200.397 124.422V145.813H188.086V124.422L189.317 123.499V121.96ZM184.392 121.96H174.389V123.499L173.158 124.422V145.813H185.469V124.422L184.392 123.499V121.96ZM190.086 161.511C190.086 160.205 190.605 158.952 191.529 158.029C192.452 157.105 193.705 156.586 195.011 156.586C196.317 156.586 197.57 157.105 198.493 158.029C199.417 158.952 199.936 160.205 199.936 161.511H199.935V173.822H190.086V161.511H190.086ZM175.313 161.511C175.313 160.205 175.831 158.952 176.755 158.029C177.678 157.105 178.931 156.586 180.237 156.586C181.543 156.586 182.796 157.105 183.719 158.029C184.643 158.952 185.162 160.205 185.162 161.511H185.162V173.822H175.313V161.511H175.313Z" fill="#CCCCCC"/>
<path d="M73.8956 114.419V112.265L30.0354 120.575V181.364L64.354 178.747V124.576L73.8956 114.419Z" fill="#CCCCCC"/>
<path fill-rule="evenodd" clip-rule="evenodd" d="M87.2842 105.493V116.42L96.0563 118.112V176.439L65.7389 178.747V124.884L75.896 114.265V107.648C76.7681 105.288 80.2666 101.553 87.2842 105.493ZM78.8203 127.962L83.591 126.884V151.046L78.8203 151.969V127.962ZM88.208 125.653L85.9629 126.289L85.7457 150.738L88.208 150.122V125.653ZM73.9591 129.213L76.2041 128.578V152.431L73.7418 153.047L73.9591 129.213Z" fill="#CCCCCC"/>
<path d="M236.563 114.419V112.265L280.423 120.575V181.364L246.104 178.747V124.576L236.563 114.419Z" fill="#CCCCCC"/>
<path fill-rule="evenodd" clip-rule="evenodd" d="M223.174 105.493V116.42L214.402 118.112V176.439L244.719 178.747V124.884L234.562 114.265V107.648C233.69 105.288 230.192 101.553 223.174 105.493ZM231.638 127.962L226.867 126.884V151.046L231.638 151.969V127.962ZM222.25 125.653L224.495 126.289L224.713 150.738L222.25 150.122V125.653ZM236.499 129.213L234.254 128.578V152.431L236.717 153.047L236.499 129.213Z" fill="#CCCCCC"/>
<path d="M159.461 72.5594L155.46 62.0945V69.6354L159.461 72.5594Z" fill="#CCCCCC"/>
<path d="M148.535 84.8709L144.533 74.406V81.9469L148.535 84.8709Z" fill="#CCCCCC"/>
<path d="M170.08 87.3336L166.079 76.8687V84.4096L170.08 87.3336Z" fill="#CCCCCC"/>
<path d="M157.615 74.5601L156.999 71.1744L159.307 72.7134L157.615 74.5601Z" fill="#CCCCCC"/>
<path d="M146.688 86.8717L146.072 83.486L148.381 85.0249L146.688 86.8717Z" fill="#CCCCCC"/>
<path d="M168.233 89.3339L167.618 85.9482L169.926 87.4871L168.233 89.3339Z" fill="#CCCCCC"/>
<path d="M154.383 61.479C154.383 61.139 154.658 60.8634 154.998 60.8634V60.8634C155.338 60.8634 155.614 61.139 155.614 61.479V93.4892C155.614 93.8292 155.338 94.1048 154.998 94.1048V94.1048C154.658 94.1048 154.383 93.8292 154.383 93.4892V61.479Z" fill="#CCCCCC"/>
<path d="M143.61 73.1752C143.61 72.8352 143.886 72.5596 144.226 72.5596V72.5596C144.565 72.5596 144.841 72.8352 144.841 73.1752V93.6433C144.841 93.9832 144.565 94.2588 144.226 94.2588V94.2588C143.886 94.2588 143.61 93.9832 143.61 93.6433V73.1752Z" fill="#CCCCCC"/>
<path d="M165.155 73.1752C165.155 72.8352 165.431 72.5596 165.771 72.5596V72.5596C166.111 72.5596 166.387 72.8352 166.387 73.1752V94.2588C166.387 94.5988 166.111 94.8744 165.771 94.8744V94.8744C165.431 94.8744 165.155 94.5988 165.155 94.2588L165.155 73.1752Z" fill="#CCCCCC"/>
<path d="M43.4712 39.8274V25.0194H38.4792V22.0434H52.0632V25.0194H47.0232V39.8274H43.4712Z" fill="#5661AE"/>
<path d="M56.1626 40.1634C53.7626 40.1634 52.1786 38.4594 52.1786 36.1794C52.1786 33.2994 54.5066 31.7874 59.9306 31.2114C59.8586 29.8914 59.2826 28.8834 57.6266 28.8834C56.3786 28.8834 55.1786 29.4354 53.9306 30.1554L52.6586 27.8274C54.2426 26.8434 56.1626 26.0514 58.2746 26.0514C61.6826 26.0514 63.4346 28.0914 63.4346 31.9794V39.8274H60.5546L60.3146 38.3874H60.2186C59.0426 39.3954 57.6986 40.1634 56.1626 40.1634ZM57.3146 37.4034C58.3226 37.4034 59.0666 36.9234 59.9306 36.0834V33.3714C56.6426 33.7794 55.5386 34.6914 55.5386 35.8914C55.5386 36.9474 56.2826 37.4034 57.3146 37.4034Z" fill="#5661AE"/>
<path d="M67.0302 39.8274V26.3874H70.5582V39.8274H67.0302ZM68.8062 24.2274C67.5822 24.2274 66.7422 23.4594 66.7422 22.2834C66.7422 21.1314 67.5822 20.3634 68.8062 20.3634C70.0062 20.3634 70.8462 21.1314 70.8462 22.2834C70.8462 23.4594 70.0062 24.2274 68.8062 24.2274Z" fill="#5661AE"/>
<path d="M80.0313 40.1634C76.3113 40.1634 73.4793 37.5714 73.4793 33.1074C73.4793 28.6434 76.6953 26.0514 80.3433 26.0514C81.9993 26.0514 83.2713 26.6994 84.2553 27.5394L82.5753 29.8194C81.9033 29.2434 81.2793 28.9314 80.5353 28.9314C78.4713 28.9314 77.0793 30.5874 77.0793 33.1074C77.0793 35.6514 78.4953 37.2834 80.4153 37.2834C81.3753 37.2834 82.2873 36.8274 83.0313 36.2034L84.4473 38.5314C83.1513 39.6594 81.5193 40.1634 80.0313 40.1634Z" fill="#5661AE"/>
<path d="M86.9756 39.8274V20.6754H90.5036V25.4994L90.3356 28.0194C91.4156 27.0114 92.7356 26.0514 94.5596 26.0514C97.4636 26.0514 98.7116 28.0674 98.7116 31.4514V39.8274H95.1836V31.8834C95.1836 29.7954 94.6076 29.0754 93.2876 29.0754C92.1836 29.0754 91.4876 29.6034 90.5036 30.5874V39.8274H86.9756Z" fill="#5661AE"/>
<path d="M106.335 40.1634C103.431 40.1634 102.183 38.1474 102.183 34.7874V26.3874H105.711V34.3314C105.711 36.3954 106.287 37.1394 107.583 37.1394C108.687 37.1394 109.407 36.6594 110.319 35.4594V26.3874H113.847V39.8274H110.967L110.703 37.9074H110.607C109.455 39.2754 108.159 40.1634 106.335 40.1634Z" fill="#5661AE"/>
<path d="M117.608 39.8274V26.3874H120.488L120.752 28.1634H120.824C122 27.0114 123.368 26.0514 125.192 26.0514C128.096 26.0514 129.344 28.0674 129.344 31.4514V39.8274H125.816V31.8834C125.816 29.7954 125.24 29.0754 123.92 29.0754C122.816 29.0754 122.12 29.6034 121.136 30.5874V39.8274H117.608Z" fill="#5661AE"/>
<path d="M137.711 45.6594C134.543 45.6594 132.095 44.5794 132.095 42.2034C132.095 41.0754 132.791 40.1154 134.015 39.4194V39.2994C133.319 38.8434 132.791 38.1474 132.791 37.0434C132.791 36.0354 133.487 35.0994 134.303 34.5234V34.4274C133.367 33.7554 132.503 32.4834 132.503 30.8994C132.503 27.7554 135.071 26.0514 137.927 26.0514C138.671 26.0514 139.391 26.1954 139.943 26.3874H144.791V28.9794H142.511C142.847 29.4354 143.111 30.1794 143.111 31.0194C143.111 34.0434 140.807 35.5794 137.927 35.5794C137.399 35.5794 136.775 35.4594 136.199 35.2674C135.839 35.5794 135.623 35.8674 135.623 36.4194C135.623 37.1394 136.151 37.5234 137.735 37.5234H140.015C143.255 37.5234 145.031 38.5314 145.031 40.8834C145.031 43.5954 142.199 45.6594 137.711 45.6594ZM137.927 33.3954C139.103 33.3954 140.039 32.5074 140.039 30.8994C140.039 29.3394 139.127 28.4514 137.927 28.4514C136.727 28.4514 135.815 29.3394 135.815 30.8994C135.815 32.5074 136.751 33.3954 137.927 33.3954ZM138.239 43.4274C140.255 43.4274 141.647 42.5394 141.647 41.4834C141.647 40.5234 140.855 40.2834 139.415 40.2834H137.783C136.967 40.2834 136.391 40.2114 135.911 40.0914C135.311 40.5714 135.047 41.0994 135.047 41.6514C135.047 42.7794 136.295 43.4274 138.239 43.4274Z" fill="#5661AE"/>
<path d="M39.9432 74.8274V57.0434H43.5672L48.7272 66.5234L50.5032 70.3634H50.6232C50.4552 68.5154 50.1672 66.1634 50.1672 64.1474V57.0434H53.5272V74.8274H49.9272L44.7912 65.3234L42.9912 61.5074H42.8712C43.0392 63.4274 43.3032 65.6594 43.3032 67.6994V74.8274H39.9432Z" fill="#5661AE"/>
<path d="M63.4878 75.1634C59.7198 75.1634 56.7918 72.5474 56.7918 68.1074C56.7918 63.7634 59.8638 61.0514 63.0558 61.0514C66.7518 61.0514 68.6718 63.7634 68.6718 67.4594C68.6718 68.1314 68.5998 68.7794 68.5038 69.0914H60.2238C60.5118 71.2994 61.9518 72.4514 63.9438 72.4514C65.0478 72.4514 66.0078 72.1154 66.9678 71.5154L68.1678 73.6754C66.8478 74.5874 65.1438 75.1634 63.4878 75.1634ZM60.1758 66.7394H65.6478C65.6478 64.9394 64.8318 63.7874 63.1038 63.7874C61.6878 63.7874 60.4398 64.7954 60.1758 66.7394Z" fill="#5661AE"/>
<path d="M73.7154 74.8274L70.2354 61.3874H73.7634L75.2274 68.0114C75.4914 69.3314 75.6594 70.6034 75.8994 71.9474H75.9954C76.2594 70.6034 76.4994 69.3074 76.8354 68.0114L78.4674 61.3874H81.5874L83.2674 68.0114C83.5794 69.3314 83.8194 70.6034 84.1074 71.9474H84.2274C84.4674 70.6034 84.6594 69.3314 84.8994 68.0114L86.3634 61.3874H89.6274L86.3154 74.8274H82.1634L80.7474 68.9714C80.4594 67.6994 80.2434 66.4754 79.9794 65.0594H79.8594C79.5954 66.4754 79.4034 67.7234 79.1154 68.9714L77.7474 74.8274H73.7154Z" fill="#5661AE"/>
<path d="M96.0421 75.1634C94.2421 75.1634 92.2741 74.3714 90.9301 73.2674L92.5381 71.0594C93.7381 71.9954 94.8901 72.5234 96.1381 72.5234C97.4821 72.5234 98.0821 71.9474 98.0821 71.1074C98.0821 70.0994 96.6901 69.6434 95.2741 69.0914C93.5701 68.4434 91.6741 67.4114 91.6741 65.1554C91.6741 62.7554 93.6181 61.0514 96.6901 61.0514C98.6341 61.0514 100.146 61.8674 101.25 62.7074L99.6661 64.8434C98.7061 64.1474 97.7701 63.6914 96.7861 63.6914C95.5621 63.6914 94.9861 64.2194 94.9861 64.9874C94.9861 65.9714 96.2341 66.3314 97.6501 66.8594C99.4261 67.5314 101.394 68.4194 101.394 70.9154C101.394 73.2674 99.5461 75.1634 96.0421 75.1634Z" fill="#5661AE"/>
<path d="M229.975 158.877C228.672 154.364 228.579 145.545 237.604 142.657C240.462 141.654 244.673 142.055 249.035 144.462C253.397 146.868 255.654 150.93 254.902 155.592C253.247 159.102 254.902 161.158 246.495 166.874C245.518 169.283 244.092 170.825 243.062 171.512L246.495 166.874C247.515 164.358 248.045 160.895 247.123 156.47C243.062 153.061 233.946 148.769 229.975 158.877Z" fill="black"/>
<path d="M248.476 173.617C247.514 172.173 247.273 169.506 247.273 168.353C245.117 167.551 238.01 167.326 240.204 170.007C242.911 173.317 240.103 176.174 239.301 177.227H249.379C249.62 176.144 248.878 174.369 248.476 173.617Z" fill="#FFCCB3"/>
<path d="M246.972 169.406C245.619 174.67 240.053 177.227 240.053 177.227H239.301C241.557 173.918 241.858 172.564 241.257 169.707L246.972 169.406Z" fill="#FBB8A6"/>
<path d="M249.981 162.637C249.981 169.781 241.557 175.422 237.947 175.422C234.338 175.422 229.223 169.781 229.223 162.637C229.223 155.493 233.87 149.701 239.602 149.701C245.334 149.701 249.981 155.493 249.981 162.637Z" fill="#FFCCB3"/>
<circle cx="251.635" cy="163.389" r="4.06121" fill="#FFCCB3"/>
<path d="M248.584 153.787C245.576 152.945 240.856 152.309 240.053 150.453C234.277 150.453 235.799 153.938 235.799 157.072C214.289 155.116 236.701 137.693 239.151 145.791C246.22 143.108 252.387 151.256 252.688 155.718C250.522 156.56 250.984 161.233 250.583 162.788C248.176 161.705 248.434 154.79 248.584 153.787Z" fill="#020202"/>
<path d="M228.073 249.602C227.472 238.291 229.828 227.641 231.383 223.43L257.856 222.828C263.03 231.372 263.12 244.237 262.518 249.602H228.073Z" fill="#2E4168"/>
<path d="M241.816 249.602C241.816 241.329 241.778 238.443 243.62 233.056L242.738 238.07C242.267 241.78 242.116 245.541 242.568 249.602H241.816Z" fill="#3D537E"/>
<path d="M212.946 194.959C233.577 200.355 214.139 187.029 236.401 179.057L243.417 185.437C243.417 214.48 230.086 221.304 211.042 209.56L212.946 194.959Z" fill="#2F2E41"/>
<path d="M205.114 175.447C205.114 175.447 213.086 185.224 225.872 188.233L220.757 227.34C214.926 224.601 213.054 220.766 207.37 221.173C208.724 207.185 206.937 186.33 205.114 175.447Z" fill="#E9E9E9"/>
<path fill-rule="evenodd" clip-rule="evenodd" d="M270.013 231.828H221.45C225.937 214.978 236.273 200.991 236.273 178.072L250.697 174.378C262.21 189.173 267.739 207.389 270.013 231.828Z" fill="#2F2E41"/>
<path d="M250.651 195.168C252.682 190.216 252.556 190.724 253.032 186.757L259.538 186.28L263.982 202.468L249.699 207.547C248.937 200.945 249.646 198.077 250.651 195.168Z" fill="#B0B9C0"/>
<path fill-rule="evenodd" clip-rule="evenodd" d="M252.238 174.854C259.221 188.661 286.677 212.308 253.984 218.18L250.016 205.642C249.57 188.715 256.974 189.802 250.333 176.845L251.286 175.013L252.238 174.854Z" fill="#B0B9C0"/>
<path fill-rule="evenodd" clip-rule="evenodd" d="M251.784 174.094C274.454 187.438 287.39 210.156 258.762 216.511C255.89 211.795 254.28 209.152 251.408 204.437C250.905 187.492 257.124 189.057 249.637 176.087L250.711 174.252L251.784 174.094Z" fill="#2F2E41"/>
<path d="M273.704 171.236C273.704 171.236 250.69 181.765 225.871 188.233L220.757 227.34C232.744 224.366 259.108 224.508 270.792 224.95C266.297 212.628 269.958 183.054 273.704 171.236Z" fill="#E9E9E9"/>
<path d="M276.411 174.094C276.411 174.094 239.384 185.798 225.872 188.233L220.757 227.34C232.744 224.366 259.108 224.508 270.792 224.95C266.297 212.628 272.665 185.911 276.411 174.094Z" fill="#999999"/>
<path d="M227.977 187.781C227.977 187.781 227.075 187.932 225.872 188.233L220.757 227.341L222.562 226.889C222.262 219.218 224.231 199.599 227.977 187.781Z" fill="#8D8D8D"/>
<path d="M200.15 176.801C200.15 176.801 213.086 185.224 225.871 188.233L220.757 227.34C214.926 224.601 212.302 220.164 206.618 220.572C207.972 206.583 201.973 187.684 200.15 176.801Z" fill="#999999"/>
<ellipse cx="268.876" cy="203.895" rx="6.03069" ry="3.65016" transform="rotate(-73.1567 268.876 203.895)" fill="#FFCCB3"/>
<ellipse cx="271.269" cy="198.714" rx="2.22183" ry="0.952215" transform="rotate(-79.6595 271.269 198.714)" fill="#FFCCB3"/>
<path fill-rule="evenodd" clip-rule="evenodd" d="M265.031 204.845C265.016 204.68 265.139 204.534 265.304 204.519L267.36 204.34C267.525 204.326 267.671 204.448 267.686 204.614C267.7 204.779 267.577 204.925 267.412 204.94L265.357 205.119C265.191 205.133 265.045 205.011 265.031 204.845Z" fill="#E56441"/>
<path fill-rule="evenodd" clip-rule="evenodd" d="M265.402 202.632C265.387 202.466 265.51 202.32 265.675 202.306L267.731 202.127C267.896 202.112 268.042 202.235 268.056 202.4C268.071 202.566 267.948 202.712 267.783 202.726L265.727 202.905C265.562 202.92 265.416 202.797 265.402 202.632Z" fill="#E56441"/>
<path fill-rule="evenodd" clip-rule="evenodd" d="M266.075 200.514C266.06 200.349 266.183 200.203 266.348 200.188L268.404 200.009C268.569 199.995 268.715 200.117 268.73 200.283C268.744 200.448 268.622 200.594 268.456 200.609L266.401 200.788C266.235 200.802 266.089 200.68 266.075 200.514Z" fill="#E56441"/>
<path fill-rule="evenodd" clip-rule="evenodd" d="M264.66 207.059C264.646 206.893 264.768 206.747 264.934 206.733L266.989 206.554C267.154 206.539 267.3 206.662 267.315 206.827C267.329 206.993 267.207 207.139 267.041 207.153L264.986 207.332C264.82 207.347 264.674 207.224 264.66 207.059Z" fill="#E56441"/>
<ellipse cx="4.17737" cy="2.52841" rx="4.17737" ry="2.52841" transform="matrix(-0.0858573 -0.996307 -0.996307 0.0858573 205.871 196.626)" fill="#FFCCB3"/>
<path fill-rule="evenodd" clip-rule="evenodd" d="M205.552 193.902C205.6 193.743 205.51 193.575 205.351 193.527L203.984 193.111C203.825 193.063 203.657 193.153 203.609 193.312C203.56 193.471 203.65 193.639 203.809 193.687L205.176 194.102C205.335 194.151 205.503 194.061 205.552 193.902Z" fill="#E56441"/>
<path fill-rule="evenodd" clip-rule="evenodd" d="M205.617 192.349C205.665 192.19 205.576 192.022 205.417 191.973L204.049 191.558C203.89 191.51 203.722 191.599 203.674 191.758C203.626 191.917 203.715 192.085 203.874 192.134L205.242 192.549C205.401 192.597 205.569 192.508 205.617 192.349Z" fill="#E56441"/>
<path fill-rule="evenodd" clip-rule="evenodd" d="M205.464 190.817C205.512 190.658 205.422 190.49 205.263 190.442L203.896 190.027C203.737 189.978 203.569 190.068 203.521 190.227C203.472 190.386 203.562 190.554 203.721 190.602L205.088 191.018C205.247 191.066 205.415 190.976 205.464 190.817Z" fill="#E56441"/>
<path fill-rule="evenodd" clip-rule="evenodd" d="M205.486 195.455C205.535 195.296 205.445 195.128 205.286 195.08L203.919 194.665C203.76 194.616 203.592 194.706 203.543 194.865C203.495 195.024 203.585 195.192 203.744 195.24L205.111 195.656C205.27 195.704 205.438 195.614 205.486 195.455Z" fill="#E56441"/>
<path fill-rule="evenodd" clip-rule="evenodd" d="M266.66 184.321C251.428 185.64 237.921 191.37 233.087 194.061L232.795 193.535C237.688 190.811 251.276 185.049 266.608 183.721L266.66 184.321Z" fill="#D7D7D7"/>
<path fill-rule="evenodd" clip-rule="evenodd" d="M266.66 189.435C251.428 190.754 237.921 196.484 233.087 199.175L232.795 198.649C237.688 195.925 251.276 190.163 266.608 188.835L266.66 189.435Z" fill="#D7D7D7"/>
<path fill-rule="evenodd" clip-rule="evenodd" d="M261.4 194.248C248.495 195.545 237.049 201.181 232.954 203.828L232.627 203.322C236.783 200.637 248.319 194.958 261.339 193.649L261.4 194.248Z" fill="#D7D7D7"/>
<path fill-rule="evenodd" clip-rule="evenodd" d="M265.607 199.362C250.785 200.661 237.642 206.302 232.938 208.951L232.643 208.427C237.406 205.744 250.631 200.07 265.555 198.763L265.607 199.362Z" fill="#D7D7D7"/>
<path fill-rule="evenodd" clip-rule="evenodd" d="M254.481 207.183C244.717 208.195 236.054 212.592 232.957 214.655L232.624 214.154C235.78 212.052 244.535 207.609 254.419 206.585L254.481 207.183Z" fill="#D7D7D7"/>
<path fill-rule="evenodd" clip-rule="evenodd" d="M261.4 210.492C248.495 211.79 237.049 217.426 232.954 220.072L232.627 219.567C236.783 216.882 248.319 211.203 261.339 209.894L261.4 210.492Z" fill="#D7D7D7"/>
<path fill-rule="evenodd" clip-rule="evenodd" d="M261.391 216.209C249.153 217.102 238.303 220.98 234.422 222.8L234.167 222.255C238.103 220.409 249.025 216.508 261.348 215.609L261.391 216.209Z" fill="#D7D7D7"/>
</g>
</svg>
