<svg width="288" height="250" viewBox="0 0 288 250" fill="none" xmlns="http://www.w3.org/2000/svg">
<mask id="mask0_3167_303" style="mask-type:alpha" maskUnits="userSpaceOnUse" x="0" y="0" width="288" height="250">
<path d="M288 0H0.25V250H288V0Z" fill="white"/>
</mask>
<g mask="url(#mask0_3167_303)">
<path d="M144.5 208C197.271 208 240.052 197.593 240.052 184.758C240.052 171.916 197.271 161.516 144.5 161.516C91.7281 161.516 48.9485 171.916 48.9485 184.758C48.9485 197.593 91.7281 208 144.5 208Z" fill="#E1E2E9"/>
<path fill-rule="evenodd" clip-rule="evenodd" d="M197.01 91.7887C197.01 92.0762 197.008 92.3631 197.003 92.6495H197.01V109.866H205.619V123.639H197.01V137.412H202.175V151.186H197.01V168.402H200.454L205.619 182.175H86.8248L91.9898 168.402H95.4331V151.186H90.2681V137.412H95.4331V123.639H86.8248V109.866H95.4331V92.6495H95.4402C95.4355 92.3631 95.4331 92.0762 95.4331 91.7887C95.4331 63.7389 118.172 41 146.222 41C174.272 41 197.01 63.7389 197.01 91.7887Z" fill="#D9D9D9"/>
<path fill-rule="evenodd" clip-rule="evenodd" d="M130.368 93.5606C128.19 95.0077 126.04 96.7429 125.679 97.0525C124.596 97.9807 122.966 97.8553 122.037 96.7724C121.109 95.6895 121.235 94.0592 122.318 93.131C122.811 92.708 125.129 90.8405 127.51 89.2584C128.686 88.4778 129.998 87.6841 131.168 87.1894C131.735 86.9498 132.447 86.702 133.185 86.6391C133.885 86.5794 135.248 86.6525 136.19 87.8566C136.729 88.5447 136.951 89.3473 137.065 89.8759C137.192 90.4654 137.259 91.1029 137.303 91.6969C137.348 92.2999 137.373 92.943 137.395 93.552C137.397 93.6049 137.399 93.6577 137.401 93.7101C137.422 94.2778 137.442 94.82 137.473 95.3452C137.516 96.0459 137.574 96.5955 137.644 97.0083C139.127 96.6141 140.65 95.9756 142.297 95.2111C142.761 94.9956 143.242 94.7662 143.736 94.531C145.303 93.7842 146.993 92.9783 148.654 92.3698C148.761 92.3306 148.943 92.2536 149.235 92.1296C149.393 92.0626 149.583 91.9818 149.812 91.8858C150.395 91.641 151.127 91.341 151.876 91.0743C152.604 90.8151 153.451 90.5493 154.245 90.4145C154.639 90.3474 155.122 90.2946 155.623 90.3302C156.088 90.3632 156.867 90.4919 157.572 91.0554C157.573 91.0563 157.58 91.0617 157.597 91.0704C157.615 91.0794 157.647 91.0936 157.698 91.109C157.806 91.141 157.98 91.1733 158.242 91.1815C158.79 91.1987 159.502 91.1074 160.402 90.9211C160.971 90.8034 161.484 90.6787 162.029 90.5462C162.396 90.4568 162.778 90.3639 163.201 90.2672C164.118 90.0579 165.215 89.836 166.236 89.836C167.662 89.836 168.818 90.9922 168.818 92.4185C168.818 93.8447 167.662 95.001 166.236 95.001C165.853 95.001 165.257 95.0957 164.351 95.3026C164.076 95.3654 163.751 95.4438 163.404 95.528C162.777 95.6796 162.074 95.8495 161.449 95.9789C160.425 96.1908 159.24 96.3804 158.08 96.3439C157.121 96.3138 156.012 96.1246 154.988 95.5292C154.644 95.5994 154.173 95.7388 153.609 95.9398C152.997 96.158 152.369 96.4139 151.812 96.6478C151.689 96.6996 151.559 96.7544 151.43 96.8092C151.048 96.9712 150.666 97.1333 150.431 97.2196C149.018 97.7373 147.641 98.3929 146.133 99.1114C145.599 99.366 145.047 99.6286 144.472 99.8957C142.373 100.871 140.031 101.862 137.538 102.324C136.511 102.514 135.44 102.335 134.533 101.671C133.718 101.075 133.275 100.263 133.022 99.626C132.532 98.3937 132.39 96.8643 132.318 95.655C132.282 95.0665 132.26 94.4642 132.24 93.9074C132.238 93.8521 132.236 93.7973 132.234 93.743C132.216 93.2747 132.199 92.8436 132.176 92.4466C131.636 92.7468 131.022 93.1263 130.368 93.5606ZM131.968 90.7852C131.968 90.7851 131.969 90.7879 131.971 90.7939C131.969 90.7883 131.968 90.7853 131.968 90.7852ZM137.851 97.7836C137.851 97.7838 137.849 97.7798 137.845 97.7709C137.849 97.7789 137.851 97.7834 137.851 97.7836Z" fill="#5661AE"/>
<path fill-rule="evenodd" clip-rule="evenodd" d="M178.389 111.241C178.918 112.565 178.274 114.068 176.95 114.598C175.179 115.306 173.484 116.267 171.629 117.35C171.478 117.438 171.325 117.528 171.171 117.618C169.489 118.602 167.661 119.672 165.707 120.554C165.583 120.61 165.398 120.722 164.993 120.978C164.979 120.987 164.964 120.997 164.948 121.007C164.641 121.201 164.123 121.528 163.598 121.745C163.212 121.904 161.71 122.487 160.317 121.453C159.039 120.505 158.973 118.986 158.973 118.349C158.973 117.981 159.003 117.491 159.031 117.068C157.611 117.423 155.724 118.072 153.73 118.832C151.666 119.619 149.581 120.488 147.942 121.188C147.355 121.438 146.795 121.681 146.309 121.891C145.527 122.229 144.936 122.485 144.735 122.558C143.482 123.014 142.331 123.403 141.347 123.602C140.432 123.787 139.103 123.934 137.867 123.265C136.51 122.53 135.994 121.234 135.767 120.268C135.734 120.13 135.705 119.988 135.679 119.843C135.498 119.99 135.311 120.139 135.133 120.274C134.888 120.461 134.548 120.709 134.187 120.9C133.99 121.004 133.781 121.116 133.563 121.233C132.495 121.806 131.193 122.504 129.859 123.021C128.216 123.657 126.248 124.139 124.123 123.812C122.295 123.531 121.761 121.897 121.647 121.485C121.48 120.883 121.457 120.262 121.456 119.848C121.455 119.392 121.484 118.943 121.508 118.615C121.515 118.52 121.52 118.45 121.525 118.388C121.53 118.321 121.534 118.264 121.539 118.196C121.546 118.102 121.547 118.068 121.547 118.068C121.547 118.068 121.547 118.073 121.547 118.082C121.547 117.782 121.552 117.471 121.556 117.183C121.557 117.097 121.558 117.013 121.56 116.932C121.561 116.835 121.562 116.74 121.563 116.647C121.472 116.728 121.374 116.816 121.27 116.911C120.807 117.333 120.264 117.854 119.753 118.364C119.238 118.879 118.785 119.352 118.494 119.681C118.47 119.708 118.448 119.733 118.429 119.755C117.949 120.732 116.88 121.335 115.745 121.173C115.364 121.118 114.83 120.953 114.35 120.512C113.858 120.059 113.633 119.509 113.552 119.06C113.42 118.332 113.64 117.764 113.689 117.64C113.689 117.637 113.69 117.635 113.691 117.634C113.825 117.286 114.012 117.022 114.07 116.941L114.072 116.938C114.238 116.705 114.448 116.458 114.63 116.253C115.02 115.814 115.554 115.258 116.104 114.71C116.657 114.156 117.257 113.58 117.789 113.095C118.258 112.667 118.843 112.153 119.298 111.863C120.368 111.182 121.671 110.545 123.042 110.637C123.821 110.689 124.564 110.973 125.176 111.5C125.753 111.997 126.082 112.596 126.277 113.093C126.64 114.023 126.703 115.063 126.722 115.802C126.734 116.28 126.726 116.865 126.719 117.372C126.716 117.639 126.712 117.884 126.712 118.082C126.712 118.256 126.699 118.443 126.691 118.56C126.69 118.576 126.689 118.593 126.687 118.612C127.096 118.52 127.529 118.384 127.994 118.204C129.003 117.813 129.966 117.298 131.027 116.731C131.271 116.6 131.52 116.467 131.776 116.332C131.769 116.336 131.766 116.338 131.766 116.337C131.765 116.337 131.835 116.294 132.003 116.166C132.188 116.025 132.404 115.85 132.674 115.629C132.701 115.607 132.728 115.585 132.756 115.562C133.246 115.161 133.898 114.628 134.535 114.204C134.875 113.977 135.287 113.73 135.735 113.54C136.145 113.366 136.829 113.133 137.634 113.208C138.606 113.299 139.498 113.82 140.046 114.71C140.501 115.45 140.598 116.25 140.612 116.832C140.629 117.538 140.658 118.062 140.698 118.452C141.235 118.312 141.962 118.071 142.97 117.704C142.963 117.706 142.966 117.705 142.981 117.699C143.007 117.688 143.071 117.662 143.19 117.611C143.352 117.542 143.567 117.449 143.835 117.334C143.899 117.306 143.967 117.277 144.036 117.246C144.541 117.028 145.183 116.75 145.915 116.438C147.58 115.727 149.735 114.827 151.89 114.006C154.02 113.194 156.25 112.419 158.033 111.995C158.895 111.79 159.838 111.62 160.678 111.637C161.089 111.646 161.684 111.701 162.284 111.968C162.957 112.268 163.711 112.884 164.009 113.927C164.165 114.474 164.228 115.03 164.248 115.535C165.699 114.834 167.102 114.014 168.599 113.138C168.74 113.056 168.882 112.973 169.025 112.89C170.867 111.814 172.863 110.67 175.032 109.803C176.356 109.273 177.859 109.917 178.389 111.241ZM139.925 118.593C139.925 118.593 139.927 118.593 139.931 118.593ZM140.833 119.222C140.835 119.227 140.836 119.229 140.835 119.229C140.835 119.229 140.835 119.227 140.833 119.222ZM122.924 115.78C122.924 115.78 122.923 115.78 122.919 115.781C122.923 115.78 122.924 115.78 122.924 115.78ZM137.752 118.294C137.772 118.286 137.769 118.289 137.747 118.297C137.749 118.296 137.751 118.295 137.752 118.294ZM135.447 116.92C135.445 116.905 135.445 116.897 135.445 116.896C135.445 116.896 135.446 116.904 135.447 116.92ZM160.592 116.802C160.592 116.803 160.585 116.802 160.573 116.801C160.586 116.802 160.592 116.802 160.592 116.802Z" fill="#5661AE"/>
<path d="M84.4317 190.351C83.4097 168.402 91.9616 173.289 84.2423 134.83C81.3051 120.196 79.0774 113.309 80.5588 107.082" stroke="#535461" stroke-width="3" stroke-linecap="round"/>
<path fill-rule="evenodd" clip-rule="evenodd" d="M66.2653 105.354C68.1828 105.357 70.1781 104.176 71.7969 105.209C73.6316 106.379 74.9613 108.594 74.7515 110.767C74.5502 112.853 72.2173 113.789 70.8187 115.343C69.276 117.057 68.5634 120.112 66.2653 120.194C63.9662 120.276 62.7442 117.539 61.3773 115.679C60.2866 114.196 59.4522 112.608 59.3359 110.767C59.2105 108.78 59.1505 106.412 60.7151 105.19C62.2341 104.003 64.3412 105.35 66.2653 105.354Z" fill="#5661AE"/>
<path fill-rule="evenodd" clip-rule="evenodd" d="M73.9005 92.5429C74.5618 94.3427 76.361 95.8052 75.9531 97.6816C75.4909 99.8081 73.874 101.823 71.7624 102.379C69.7365 102.913 68.0496 101.049 66.1075 100.275C63.9655 99.4219 60.8522 99.8122 59.9792 97.6848C59.1058 95.5564 61.25 93.4618 62.5207 91.5352C63.5347 89.9981 64.7346 88.6653 66.4212 87.9184C68.2422 87.1121 70.4424 86.2355 72.1311 87.2797C73.7707 88.2934 73.2368 90.7368 73.9005 92.5429Z" fill="#5661AE"/>
<path fill-rule="evenodd" clip-rule="evenodd" d="M88.0459 95.7332C86.7578 97.1536 86.2961 99.4258 84.4445 99.9343C82.346 100.511 79.8112 100.012 78.3394 98.3989C76.9273 96.8513 77.7967 94.4926 77.5819 92.4131C77.3449 90.1196 75.5558 87.542 77.036 85.7822C78.5169 84.0216 81.3669 84.9503 83.663 85.1831C85.4951 85.3689 87.2323 85.8142 88.676 86.9624C90.2346 88.202 92.0314 89.7451 91.8891 91.7254C91.751 93.6481 89.3385 94.3079 88.0459 95.7332Z" fill="#5661AE"/>
<path fill-rule="evenodd" clip-rule="evenodd" d="M89.2934 111.475C87.6502 110.487 85.3316 110.475 84.4737 108.757C83.5015 106.81 83.4991 104.227 84.7962 102.47C86.0406 100.784 88.5232 101.18 90.5215 100.566C92.7256 99.8889 94.9073 97.6339 96.9207 98.7448C98.9351 99.8562 98.5766 102.832 98.7934 105.13C98.9664 106.963 98.8664 108.754 98.02 110.393C97.1061 112.162 95.9407 114.224 93.9704 114.468C92.0573 114.706 90.9423 112.467 89.2934 111.475Z" fill="#5661AE"/>
<path fill-rule="evenodd" clip-rule="evenodd" d="M75.4913 118.488C75.4797 116.571 74.2833 114.585 75.3035 112.958C76.4598 111.114 78.6642 109.768 80.8394 109.961C82.9262 110.146 83.8808 112.471 85.4452 113.858C87.1707 115.387 90.2317 116.076 90.3313 118.374C90.4309 120.672 87.7033 121.915 85.8543 123.297C84.3791 124.399 82.7981 125.245 80.9582 125.376C78.9717 125.517 76.6046 125.595 75.3702 124.04C74.1718 122.53 75.5028 120.412 75.4913 118.488Z" fill="#5661AE"/>
<circle cx="78.2165" cy="104.701" r="8.60825" fill="#FFD037"/>
</g>
</svg>
