<svg width="289" height="250" viewBox="0 0 289 250" fill="none" xmlns="http://www.w3.org/2000/svg">
<mask id="mask0_3156_7107" style="mask-type:alpha" maskUnits="userSpaceOnUse" x="0" y="0" width="289" height="250">
<path d="M288.25 0H0.5V250H288.25V0Z" fill="white"/>
</mask>
<g mask="url(#mask0_3156_7107)">
<path fill-rule="evenodd" clip-rule="evenodd" d="M108.295 27V39.1149H107.285V27H108.295Z" fill="#CCCCCC"/>
<path d="M108.799 50.3883C105.722 50.0464 102.125 46.6304 100.723 45.677L103.751 45.0039L114.688 48.0326C125.592 60.4168 126.411 101.484 125.794 122.405L118.895 123.583C121.755 54.9314 113.342 50.8931 108.799 50.3883Z" fill="#CCCCCC"/>
<path fill-rule="evenodd" clip-rule="evenodd" d="M70.2676 128.968C74.1713 59.509 97.0774 39.0034 107.958 35.582C126.535 50.793 131.683 97.3344 132.02 121.733L127.982 122.237C127.443 67.451 118.447 52.1279 114.016 48.5383L103.752 45.3413C90.0216 49.245 83.8408 99.4658 82.5508 126.949L70.2676 128.968ZM84.2336 69.571L82.8875 70.4123L80.8684 80.0032H82.8875L84.2336 69.571ZM80.5319 82.0224L82.2145 81.6859L80.5319 93.296H78.008L80.5319 82.0224ZM79.8588 94.8104H78.0079L75.4839 106.925H78.3444L79.8588 94.8104ZM75.3156 108.44H78.0078L76.8299 121.564H72.9599L75.3156 108.44Z" fill="#CCCCCC"/>
<path d="M271.837 135.358C233.339 132.262 80.1299 136.985 8.33785 141.584C7.32828 140.967 5.91487 139.363 8.33785 137.882C10.7608 136.402 185.014 116.962 271.837 113.484V135.358Z" fill="#CCCCCC"/>
<path fill-rule="evenodd" clip-rule="evenodd" d="M268.005 115.307L107.314 42.4489L107.592 41.8359L268.283 114.694L268.005 115.307Z" fill="#CCCCCC"/>
<path fill-rule="evenodd" clip-rule="evenodd" d="M252.84 121.523L107.125 42.4392L107.446 41.8477L253.162 120.931L252.84 121.523Z" fill="#CCCCCC"/>
<path fill-rule="evenodd" clip-rule="evenodd" d="M232.297 119.157L107.109 42.4293L107.461 41.8555L232.648 118.583L232.297 119.157Z" fill="#CCCCCC"/>
<path fill-rule="evenodd" clip-rule="evenodd" d="M156.802 126.107L106.996 42.3126L107.575 41.9688L157.38 125.764L156.802 126.107Z" fill="#CCCCCC"/>
<path fill-rule="evenodd" clip-rule="evenodd" d="M60.9644 134.524L113.799 46.6907L113.222 46.3438L60.3876 134.177L60.9644 134.524Z" fill="#CCCCCC"/>
<path fill-rule="evenodd" clip-rule="evenodd" d="M64.6609 133.858L115.645 54.4378L115.078 54.0742L64.0946 133.494L64.6609 133.858Z" fill="#CCCCCC"/>
<path fill-rule="evenodd" clip-rule="evenodd" d="M69.2008 132.856L117.492 60.8397L116.933 60.4648L68.6418 132.481L69.2008 132.856Z" fill="#CCCCCC"/>
<path fill-rule="evenodd" clip-rule="evenodd" d="M73.7393 132.017L119.002 66.8998L118.449 66.5156L73.1866 131.633L73.7393 132.017Z" fill="#CCCCCC"/>
<path fill-rule="evenodd" clip-rule="evenodd" d="M77.9471 133.534L120.518 72.2865L119.965 71.9023L77.3945 133.15L77.9471 133.534Z" fill="#CCCCCC"/>
<path fill-rule="evenodd" clip-rule="evenodd" d="M84.0015 133.369L121.188 81.2071L120.639 80.8164L83.4534 132.978L84.0015 133.369Z" fill="#CCCCCC"/>
<path fill-rule="evenodd" clip-rule="evenodd" d="M93.2608 132.855L122.875 88.7698L122.316 88.3945L92.7021 132.479L93.2608 132.855Z" fill="#CCCCCC"/>
<path fill-rule="evenodd" clip-rule="evenodd" d="M101.341 131.84L121.701 100.039L121.134 99.6758L100.775 131.477L101.341 131.84Z" fill="#CCCCCC"/>
<path fill-rule="evenodd" clip-rule="evenodd" d="M107.562 132.692L123.379 109.808L122.825 109.426L107.009 132.31L107.562 132.692Z" fill="#CCCCCC"/>
<path fill-rule="evenodd" clip-rule="evenodd" d="M58.2781 135.186L109.262 43.3149L108.673 42.9883L57.6896 134.86L58.2781 135.186Z" fill="#CCCCCC"/>
<path fill-rule="evenodd" clip-rule="evenodd" d="M26.7825 137.419L87.5253 60.8597L86.998 60.4414L26.2552 137.001L26.7825 137.419Z" fill="#CCCCCC"/>
<path fill-rule="evenodd" clip-rule="evenodd" d="M19.3673 138.611L87.5137 60.8734L87.0076 60.4297L18.8612 138.167L19.3673 138.611Z" fill="#CCCCCC"/>
<path fill-rule="evenodd" clip-rule="evenodd" d="M33.0181 137.239L87.5352 60.848L86.9873 60.457L32.4702 136.848L33.0181 137.239Z" fill="#CCCCCC"/>
<path fill-rule="evenodd" clip-rule="evenodd" d="M41.445 137.216L87.5489 60.8243L86.9727 60.4766L40.8687 136.868L41.445 137.216Z" fill="#CCCCCC"/>
<path fill-rule="evenodd" clip-rule="evenodd" d="M49.1967 135.512L87.5605 60.8035L86.9618 60.4961L48.5979 135.205L49.1967 135.512Z" fill="#CCCCCC"/>
<path fill-rule="evenodd" clip-rule="evenodd" d="M169.609 126.139L107.016 42.3442L107.555 41.9414L170.149 125.736L169.609 126.139Z" fill="#CCCCCC"/>
<path fill-rule="evenodd" clip-rule="evenodd" d="M185.115 123.815L107.041 42.3759L107.527 41.9102L185.601 123.349L185.115 123.815Z" fill="#CCCCCC"/>
<path fill-rule="evenodd" clip-rule="evenodd" d="M204.665 121.489L107.072 42.4057L107.496 41.8828L205.088 120.966L204.665 121.489Z" fill="#CCCCCC"/>
<path fill-rule="evenodd" clip-rule="evenodd" d="M219.153 121.501L107.09 42.4171L107.478 41.8672L219.541 120.951L219.153 121.501Z" fill="#CCCCCC"/>
<path d="M62.0215 149.999L63.0311 141.081L87.0926 139.566L85.9148 149.999H62.0215Z" fill="#CCCCCC"/>
<path d="M113.678 148.823L114.687 139.905L138.749 138.391L137.571 148.823H113.678Z" fill="#CCCCCC"/>
<path d="M146.344 208.383L146.042 206.424L148.605 204.465L151.317 205.821L150.865 208.383H146.344Z" fill="#FFCCB3"/>
<path d="M166.884 208.383L166.539 206.424L169.467 204.465L172.567 205.821L172.051 208.383H166.884Z" fill="#FFCCB3"/>
<path d="M151.619 207.781H145.59V210.644C145.59 210.644 141 215.5 138.808 216.22C137.962 216.498 138.507 218.481 138.507 218.481L148.303 216.22L149.66 214.11L150.714 215.618L152.222 215.165L151.619 210.644V207.781Z" fill="black"/>
<path d="M166.539 207.781H172.567V210.644L179.349 216.22C180.5 217 179.651 218.481 179.651 218.481L169.855 216.22L168.498 214.11L167.443 215.618L165.936 215.165L166.539 210.644V207.781Z" fill="black"/>
<path d="M148.424 83.8435L142.084 85.5289C142.084 85.5289 143.3 95.1467 145.862 103.285C148.044 110.218 153.849 111.905 153.849 117.904L157.768 115.342C151.287 105.847 144.686 94.2964 148.424 83.8435Z" fill="#FFCCB3"/>
<path fill-rule="evenodd" clip-rule="evenodd" d="M202.709 217.878C203.542 217.878 204.217 216.596 204.217 215.015C204.217 213.433 203.542 212.151 202.709 212.151C202.37 212.151 202.057 212.364 201.805 212.724C201.553 212.364 201.24 212.151 200.901 212.151C200.069 212.151 199.394 213.433 199.394 215.015C199.394 216.596 200.069 217.878 200.901 217.878C201.24 217.878 201.553 217.665 201.805 217.306C202.057 217.665 202.37 217.878 202.709 217.878Z" fill="black"/>
<path fill-rule="evenodd" clip-rule="evenodd" d="M218.803 212.044C218.372 212.303 217.868 212.453 217.328 212.453C215.747 212.453 214.465 211.171 214.465 209.589C214.465 208.008 215.747 206.726 217.328 206.726C217.868 206.726 218.372 206.875 218.803 207.134C219.121 206.875 219.493 206.726 219.89 206.726C221.055 206.726 222 208.008 222 209.589C222 211.171 221.055 212.453 219.89 212.453C219.492 212.453 219.121 212.303 218.803 212.044Z" fill="black"/>
<path fill-rule="evenodd" clip-rule="evenodd" d="M184.557 215.588C184.318 215.892 184.03 216.07 183.72 216.07C182.888 216.07 182.213 214.788 182.213 213.206C182.213 211.625 182.888 210.343 183.72 210.343C184.03 210.343 184.318 210.52 184.557 210.825C184.964 210.52 185.454 210.343 185.98 210.343C187.395 210.343 188.542 211.625 188.542 213.206C188.542 214.788 187.395 216.07 185.98 216.07C185.454 216.07 184.964 215.892 184.557 215.588Z" fill="black"/>
<path d="M190.05 127.302C183.177 130.195 183.117 133.632 183.117 135.139V175.83L185.378 174.323V135.139C185.378 131.07 192.21 128.256 196.078 127.302V172.515L198.64 171.761V123.835L190.05 127.302Z" fill="#959595"/>
<path d="M185.528 159.252C181.308 160.94 180.957 165.18 181.308 167.089V212.603L205.422 213.809L219.287 206.424C219.337 193.664 219.408 166.878 219.287 161.814C219.167 156.75 217.177 155.032 214.163 155.032H200.901L185.528 159.252Z" fill="#D68068"/>
<path d="M143.028 117.506C143.511 114.491 146.746 109.719 148.303 107.71L157.496 103.339L168.498 111.176C174.044 119.857 173.823 178.593 173.019 206.876H165.484L157.496 136.344C155.567 142.493 156.693 162.618 157.496 171.912C157.496 177.94 153.779 197.733 151.92 206.876H145.289V169.953C142.878 157.534 142.777 129.814 143.028 117.506Z" fill="#3D537E"/>
<path d="M182.062 93.3921L175.722 95.0775C175.722 95.0775 176.637 101.229 179.199 109.367C181.381 116.3 187.488 124.438 187.488 127.452L191.406 124.89C184.926 115.396 182.343 98.5995 182.062 93.3921Z" fill="#FFCCB3"/>
<path d="M170.485 55.7703C168.456 51.4865 167.892 48.33 158.761 48.33C148.39 48.33 145.158 60.1603 145.459 70.0431L159.55 74.2141L171.048 70.6508C174.769 62.4214 170.485 55.7703 170.485 55.7703Z" fill="black"/>
<path d="M156.619 75.5669L157.521 71.3959L160.677 70.2685L162.594 75.5669L159.606 77.5961L156.619 75.5669Z" fill="#FFCCB3"/>
<path d="M156.619 75.5669L157.521 71.3959L162.03 70.7195L160.114 73.7632L156.619 75.5669Z" fill="#FBB8A6"/>
<path d="M167.014 62.9224C167.014 68.2767 161.941 72.5045 159.235 72.5045C156.53 72.5045 151.457 68.2767 151.457 62.9224C151.457 57.568 154.939 53.2275 159.235 53.2275C163.531 53.2275 167.014 57.568 167.014 62.9224Z" fill="#FFCCB3"/>
<path d="M154.928 58.3631H151.433C151.433 52.7716 156.544 51.0732 159.099 50.9229C165.232 50.9229 167.291 55.883 167.554 58.3631H157.07L156.394 54.643L154.928 58.3631Z" fill="black"/>
<path d="M163.223 73.6492L155.688 74.5535V76.2113C153.036 76.2113 147.349 77.9193 144.837 78.7733C150.021 89.3833 149.207 102.284 148.153 107.408L169.553 113.135C167.262 96.1351 173.17 79.5269 176.637 76.2113C174.949 75.6084 167.393 75.7591 163.676 75.9099L163.223 73.6492Z" fill="#C5CFD6"/>
<path d="M184.323 93.8443C183.238 83.4755 178.747 77.7686 176.637 76.2113L168.046 77.417L162.168 107.408L169.101 111.025C167.172 105.117 170.206 100.325 171.965 98.667L184.323 93.8443Z" fill="#C5CFD6"/>
<ellipse cx="191.156" cy="127.508" rx="4.48949" ry="2.71732" transform="rotate(159.816 191.156 127.508)" fill="#FFCCB3"/>
<ellipse cx="187.004" cy="128.409" rx="1.65402" ry="0.708866" transform="rotate(153.314 187.004 128.409)" fill="#FFCCB3"/>
<path fill-rule="evenodd" clip-rule="evenodd" d="M193.629 129.572C193.424 129.757 193.108 129.741 192.923 129.535L191.895 128.394C191.71 128.189 191.727 127.873 191.932 127.688C192.137 127.503 192.453 127.52 192.638 127.725L193.666 128.866C193.851 129.071 193.834 129.388 193.629 129.572Z" fill="#E56441"/>
<path fill-rule="evenodd" clip-rule="evenodd" d="M192.147 130.344C191.942 130.529 191.626 130.513 191.441 130.307L190.413 129.166C190.228 128.961 190.245 128.645 190.45 128.46C190.655 128.275 190.971 128.292 191.156 128.497L192.184 129.638C192.369 129.843 192.352 130.16 192.147 130.344Z" fill="#E56441"/>
<path fill-rule="evenodd" clip-rule="evenodd" d="M190.587 130.893C190.382 131.078 190.066 131.062 189.881 130.856L188.853 129.715C188.668 129.51 188.685 129.194 188.89 129.009C189.095 128.824 189.411 128.841 189.596 129.046L190.624 130.187C190.809 130.392 190.792 130.709 190.587 130.893Z" fill="#E56441"/>
<path fill-rule="evenodd" clip-rule="evenodd" d="M195.111 128.8C194.906 128.985 194.59 128.969 194.405 128.763L193.377 127.622C193.192 127.417 193.209 127.101 193.414 126.916C193.619 126.731 193.935 126.748 194.12 126.953L195.148 128.094C195.333 128.299 195.316 128.616 195.111 128.8Z" fill="#E56441"/>
<path d="M141.069 86.0074C141.069 86.0074 142.073 80.3576 144.837 78.7734C146.94 77.5675 151.016 78.1705 151.016 78.1705L161.867 103.791L149.961 103.188C148.394 91.1315 143.38 86.7107 141.069 86.0074Z" fill="#C5CFD6"/>
</g>
</svg>
