<svg width="288" height="250" viewBox="0 0 288 250" fill="none" xmlns="http://www.w3.org/2000/svg">
<mask id="mask0_3161_484" style="mask-type:alpha" maskUnits="userSpaceOnUse" x="0" y="0" width="288" height="250">
<path d="M288 0H0.25V250H288V0Z" fill="white"/>
</mask>
<g mask="url(#mask0_3161_484)">
<path fill-rule="evenodd" clip-rule="evenodd" d="M128.38 33.1494C155.27 33.266 182.357 34.5122 204.035 50.4436C229.515 69.1688 255.751 94.556 254.984 126.192C254.223 157.539 225.923 180.111 200.449 198.35C179.478 213.364 154.135 217.967 128.38 216.837C104 215.767 79.8982 209.281 62.3634 192.289C44.554 175.031 36.6275 150.943 34.839 126.192C32.8827 99.1199 32.8335 68.9148 52.0659 49.7848C71.2656 30.6872 101.316 33.0321 128.38 33.1494Z" fill="#F2F2F2"/>
<path fill-rule="evenodd" clip-rule="evenodd" d="M209.763 95.3792H232.044L230.843 107.725L230.397 111.872L230.184 114.641L225.132 112.203L220.628 114.454L217.096 112.206L211.288 114.598L210.664 106.768L210.438 105.009L210.118 100.524L210.118 100.523L209.763 95.3792ZM211.64 106.943L211.945 110.775L216.457 107.473L212.728 106.126L211.64 106.943ZM213.644 105.438L217.389 106.791L220.422 104.571L216.633 103.194L213.644 105.438ZM215.558 102.803L212.567 105.049L211.371 104.616L211.126 101.192L215.558 102.803ZM217.548 102.507L221.352 103.89L224.406 101.655L220.587 100.226L217.548 102.507ZM219.521 99.8279L216.473 102.116L211.052 100.146L210.805 96.5677L219.521 99.8279ZM221.496 99.5435L225.331 100.978L230.936 96.8759L230.988 96.3374H225.767L221.496 99.5435ZM224.171 96.3374L220.431 99.1451L212.925 96.3374H224.171ZM230.812 98.1545L226.405 101.38L230.354 102.857L230.812 98.1545ZM230.258 103.844L225.48 102.057L222.436 104.284L227.511 106.129L230.221 104.217L230.258 103.844ZM230.099 105.476L228.608 106.527L229.949 107.015L230.099 105.476ZM229.849 107.998L227.654 107.2L224.559 109.382L229.508 111.17L229.849 107.998ZM229.414 112.155L223.604 110.056L219.76 112.766L220.685 113.355L225.125 111.135L229.336 113.168L229.414 112.155ZM218.886 112.21L222.505 109.659L217.543 107.866L212.034 111.897L212.139 113.211L217.191 111.131L218.886 112.21ZM218.475 107.184L223.46 108.985L226.557 106.801L221.506 104.965L218.475 107.184ZM211.49 105.679L211.65 105.736L211.511 105.841L211.49 105.679Z" fill="#D9D9D9"/>
<ellipse cx="3.75439" cy="2.75434" rx="3.75439" ry="2.75434" transform="matrix(-0.527288 -0.849687 -0.846841 0.531846 77.6868 60.2898)" fill="#FFCCB3"/>
<path d="M68.6209 65.171L73.7314 60.6993L70.2179 57.8247L64.7881 61.4978L68.6209 65.171Z" fill="#FFCCB3"/>
<path d="M68.1828 57.293L71.6981 63.7378C59.3943 74.2839 52.3636 86.1014 52.9495 91.7172L45.3329 108.266C42.0519 102.123 43.1846 95.7459 43.5752 90.6889C44.5126 76.1588 59.9802 60.613 68.1828 57.293Z" fill="#2F2E41"/>
<path d="M86.0891 63.7185L89.171 57.6675L84.8408 56.305L81.1655 61.7334L86.0891 63.7185Z" fill="#FFCCB3"/>
<path d="M42.5111 104.51C40.1675 93.2612 47.3936 87.3241 51.2995 85.7617L52.4714 87.5194C44.972 92.6753 45.8313 100.995 47.1983 104.51H42.5111Z" fill="#1E1D29"/>
<path d="M60.0817 217.834C63.4888 213.132 56.866 214.627 51.3126 215.411L38.9959 217.834C37.824 229.306 53.0573 225.204 60.0817 217.834Z" fill="#4A3730"/>
<path d="M81.9977 217.834C85.4049 213.132 78.782 214.627 73.2286 215.411L60.9119 217.834C59.7401 229.306 74.9733 225.204 81.9977 217.834Z" fill="#4A3730"/>
<path d="M74.1494 217.588L71.5936 138.527L43.0907 135.736L38.8152 218.531C43.1224 223.864 51.384 218.294 54.8149 217.002L56.2337 175.583L55.4008 156.655L60.9842 221.321C63.5178 224.05 72.3917 221.321 74.1494 217.588Z" fill="#2E4168"/>
<path d="M55.2912 82.0527C56.6746 80.8594 57.6705 78.2216 57.9955 77.0519C60.4084 76.8459 67.6811 78.6211 64.7 80.7227C61.0211 83.3161 63.0635 87.0063 63.5805 88.3004L53.3583 85.46C53.4195 84.2937 54.6724 82.7025 55.2912 82.0527Z" fill="#FFCCB3"/>
<path d="M56.3922 78.73C54.1469 84.4809 59.5592 85.3807 59.5592 85.3807L63.5807 88.3003C62.2248 84.3079 62.3012 82.85 63.7169 80.1208L56.3922 78.73Z" fill="#FBB8A6"/>
<path d="M67.6977 65.3095C67.0561 64.4519 65.5192 64.8637 64.831 65.1768C61.5853 61.5166 57.3951 65.2818 55.7057 67.622C54.6459 70.5827 59.0773 79.2444 61.4255 83.2051C49.9949 86.268 44.6048 76.3017 43.3385 70.9357C41.2795 63.2513 48.299 58.7108 52.0662 57.4011C64.0732 54.1838 68.2189 59.2501 68.791 62.1854C68.5336 61.2249 67.3972 61.7867 66.8612 62.1877C68.3554 63.5375 68.0415 64.8314 67.6977 65.3095Z" fill="#020202" stroke="black"/>
<path d="M56.3044 72.7376C56.8245 78.6187 59.4771 84.5783 63.0872 83.6109C66.6974 82.6436 68.0206 80.9231 69.2788 75.0522C69.7859 63.9777 64.5712 62.1406 59.8526 62.5579C55.1341 62.9752 55.7843 66.8565 56.3044 72.7376Z" fill="#FFCCB3"/>
<circle cx="2.61041" cy="2.61041" r="2.61041" transform="matrix(-0.965926 0.258819 0.258819 0.965926 58.0044 68.0356)" fill="#FFCCB3"/>
<path d="M57.7017 68.8281C61.2558 67.8758 64.9188 65.0247 65.8535 63.23C65.0041 60.0601 61.8541 59.3506 60.8378 59.8803C55.9623 61.3761 53.3812 65.671 54.2734 68.5205C56.347 69.0552 56.2525 69.6632 56.6234 71.0474L57.0247 72.5449C57.8157 71.1747 58.0386 70.0855 57.7017 68.8281Z" fill="#020202"/>
<path d="M52.5916 83.797L63.8344 86.6473C63.4544 87.2807 63.6761 88.178 63.8344 88.5475C68.6209 86.6473 68.1418 85.3177 70.5373 83.0819C75.9671 73.0207 75.8074 67.2714 82.9383 57.6387L87.6255 62.9117C83.5242 66.4271 77.0794 94.55 72.5436 112.775L73.8104 139.219C59.3689 146.82 45.3075 142.386 40.082 139.219L41.9822 102.753C42.6291 98.5133 45.6566 88.7874 52.5916 83.797Z" fill="#2F2E41"/>
<ellipse cx="4.70083" cy="3.44868" rx="4.70083" ry="3.44868" transform="matrix(-0.626229 -0.77964 -0.776263 0.630409 94.2695 57.627)" fill="#FFCCB3"/>
<path fill-rule="evenodd" clip-rule="evenodd" d="M92.2485 55.2938C92.2052 55.1054 92.0025 55.0162 91.7956 55.0947L90.0165 55.7693C89.8097 55.8477 89.6771 56.0641 89.7204 56.2525C89.7637 56.4409 89.9665 56.5301 90.1733 56.4517L91.9524 55.777C92.1592 55.6986 92.2918 55.4823 92.2485 55.2938Z" fill="#E56441"/>
<path fill-rule="evenodd" clip-rule="evenodd" d="M91.3721 53.7706C91.3288 53.5822 91.126 53.493 90.9192 53.5715L89.1401 54.2461C88.9333 54.3245 88.8007 54.5409 88.844 54.7293C88.8873 54.9177 89.09 55.0069 89.2969 54.9285L91.0759 54.2538C91.2828 54.1754 91.4153 53.9591 91.3721 53.7706Z" fill="#E56441"/>
<path fill-rule="evenodd" clip-rule="evenodd" d="M90.265 52.4386C90.2217 52.2502 90.0189 52.161 89.8121 52.2394L88.033 52.9141C87.8262 52.9925 87.6936 53.2088 87.7369 53.3973C87.7802 53.5857 87.983 53.6749 88.1898 53.5964L89.9689 52.9218C90.1757 52.8434 90.3083 52.627 90.265 52.4386Z" fill="#E56441"/>
<path fill-rule="evenodd" clip-rule="evenodd" d="M93.1249 56.8175C93.0816 56.6291 92.8788 56.5399 92.672 56.6183L90.8929 57.293C90.6861 57.3714 90.5535 57.5877 90.5968 57.7762C90.6401 57.9646 90.8428 58.0538 91.0497 57.9753L92.8287 57.3007C93.0356 57.2223 93.1682 57.0059 93.1249 56.8175Z" fill="#E56441"/>
<circle cx="147.513" cy="34.0537" r="14.0537" fill="#FFC123"/>
<path d="M147.111 42.234C145.014 42.234 142.502 41.3336 141.125 39.9501L142.087 38.5665C143.375 39.7524 145.188 40.543 147.111 40.543C149.71 40.543 150.999 39.5987 150.999 37.9736C150.999 34.1963 141.868 35.1406 141.868 30.0896C141.868 27.5202 144.096 25.8731 147.154 25.8731C149.732 25.8731 151.283 26.9053 152.637 28.1131L151.567 29.3429C150.344 28.2888 149.077 27.5421 147.198 27.5421C145.21 27.5421 143.834 28.4425 143.834 29.9578C143.834 33.3837 152.943 32.4394 152.943 37.8199C152.943 40.565 150.65 42.234 147.111 42.234ZM146.565 26.6417V23.1938H148.006V26.6417H146.565ZM146.565 44.9132V41.5093H148.006V44.9132H146.565Z" fill="white"/>
<circle cx="209.714" cy="122.765" r="3.24847" transform="rotate(27.7898 209.714 122.765)" fill="#FFC123"/>
<path d="M208.75 124.394C208.321 124.168 207.904 123.713 207.772 123.282L208.118 123.103C208.253 123.484 208.539 123.841 208.932 124.048C209.464 124.328 209.829 124.274 210.004 123.942C210.411 123.169 208.442 122.378 208.986 121.346C209.263 120.82 209.897 120.724 210.522 121.053C211.049 121.331 211.255 121.709 211.402 122.102L211.05 122.238C210.914 121.891 210.735 121.602 210.351 121.399C209.944 121.185 209.566 121.221 209.403 121.531C209.034 122.231 210.998 123.02 210.418 124.12C210.122 124.681 209.473 124.775 208.75 124.394ZM210.318 121.147L210.69 120.442L210.985 120.597L210.613 121.302L210.318 121.147ZM208.349 124.883L208.716 124.187L209.011 124.342L208.644 125.038L208.349 124.883Z" fill="white"/>
<circle cx="232.239" cy="122.612" r="4.79104" transform="rotate(-19.9136 232.239 122.612)" fill="#FFC123"/>
<path d="M233.06 125.281C232.388 125.525 231.478 125.528 230.877 125.244L231.024 124.689C231.575 124.919 232.248 124.962 232.864 124.739C233.697 124.437 234.001 123.985 233.812 123.464C233.373 122.253 230.556 123.616 229.97 121.997C229.671 121.174 230.194 120.387 231.174 120.032C232.001 119.733 232.618 119.883 233.192 120.113L232.992 120.632C232.477 120.436 231.984 120.344 231.382 120.562C230.745 120.793 230.409 121.241 230.585 121.727C230.982 122.825 233.792 121.464 234.417 123.189C234.736 124.069 234.195 124.87 233.06 125.281ZM231.075 120.347L230.674 119.242L231.136 119.074L231.537 120.179L231.075 120.347ZM233.196 126.203L232.801 125.112L233.263 124.945L233.658 126.036L233.196 126.203Z" fill="white"/>
<circle cx="210.505" cy="144.955" r="4.79104" transform="rotate(9.24609 210.505 144.955)" fill="#FFC123"/>
<path d="M209.921 147.686C209.215 147.571 208.419 147.13 208.032 146.59L208.431 146.177C208.8 146.646 209.367 147.012 210.014 147.117C210.888 147.259 211.374 147.012 211.463 146.465C211.67 145.194 208.545 145.012 208.822 143.312C208.963 142.448 209.803 142.016 210.832 142.183C211.699 142.324 212.165 142.757 212.554 143.237L212.127 143.592C211.773 143.171 211.387 142.85 210.755 142.747C210.086 142.638 209.574 142.866 209.491 143.376C209.303 144.528 212.42 144.71 212.125 146.52C211.975 147.444 211.112 147.88 209.921 147.686ZM210.591 142.409L210.78 141.249L211.265 141.328L211.076 142.488L210.591 142.409ZM209.59 148.557L209.777 147.412L210.262 147.491L210.076 148.636L209.59 148.557Z" fill="white"/>
<circle cx="234.224" cy="141.845" r="3.77104" transform="rotate(35.7233 234.224 141.845)" fill="#FFC123"/>
<path d="M232.855 143.564C232.398 143.236 231.992 142.646 231.909 142.129L232.335 141.978C232.43 142.438 232.701 142.895 233.12 143.196C233.686 143.603 234.115 143.599 234.37 143.245C234.961 142.422 232.824 141.198 233.616 140.097C234.018 139.538 234.762 139.528 235.428 140.007C235.989 140.411 236.166 140.879 236.271 141.354L235.846 141.454C235.744 141.033 235.585 140.672 235.176 140.377C234.743 140.066 234.302 140.047 234.065 140.377C233.528 141.123 235.66 142.344 234.817 143.516C234.387 144.114 233.626 144.119 232.855 143.564ZM235.179 140.082L235.719 139.331L236.033 139.557L235.493 140.308L235.179 140.082ZM232.316 144.062L232.85 143.321L233.164 143.547L232.631 144.288L232.316 144.062Z" fill="white"/>
<circle cx="221.003" cy="130.859" r="3.51199" transform="rotate(-19.9136 221.003 130.859)" fill="#FFC123"/>
<path d="M221.604 132.816C221.112 132.994 220.445 132.997 220.004 132.789L220.112 132.382C220.516 132.551 221.009 132.582 221.461 132.419C222.071 132.197 222.294 131.866 222.155 131.484C221.834 130.596 219.769 131.596 219.339 130.409C219.12 129.805 219.504 129.228 220.222 128.968C220.828 128.749 221.28 128.859 221.701 129.028L221.554 129.408C221.177 129.264 220.816 129.197 220.374 129.357C219.907 129.526 219.661 129.854 219.79 130.21C220.081 131.015 222.141 130.018 222.599 131.282C222.833 131.927 222.436 132.515 221.604 132.816ZM220.149 129.199L219.856 128.389L220.194 128.266L220.488 129.076L220.149 129.199ZM221.704 133.492L221.414 132.692L221.753 132.569L222.043 133.369L221.704 133.492Z" fill="white"/>
<path fill-rule="evenodd" clip-rule="evenodd" d="M122.277 30.393C104.956 30.0109 94.4867 38.6188 91.4289 42.942L91.1681 42.7575C94.2854 38.3503 104.854 29.6892 122.284 30.0737L122.277 30.393Z" fill="#2F2E41"/>
<path fill-rule="evenodd" clip-rule="evenodd" d="M125.83 41.396C108.467 45.3783 102.627 54.7598 101.998 60.4348L101.68 60.3996C102.328 54.5508 108.306 45.0876 125.758 41.0847L125.83 41.396Z" fill="#2F2E41"/>
<rect x="190.633" y="56.4119" width="60.3672" height="35.7731" fill="#D9D9D9"/>
<path d="M205.006 67.9104H236.627V92.185H205.006V67.9104Z" fill="#D9D9D9"/>
<path fill-rule="evenodd" clip-rule="evenodd" d="M234.627 69.9104H207.006V90.185H234.627V69.9104ZM205.006 67.9104V92.185H236.627V67.9104H205.006Z" fill="#C40707"/>
<rect x="209.158" y="93.782" width="23.3164" height="2.87463" rx="1.43731" fill="#C40707"/>
</g>
</svg>
