<svg width="289" height="250" viewBox="0 0 289 250" fill="none" xmlns="http://www.w3.org/2000/svg">
<mask id="mask0_3163_4652" style="mask-type:alpha" maskUnits="userSpaceOnUse" x="0" y="0" width="289" height="250">
<path d="M288.5 0H0.75V250H288.5V0Z" fill="white"/>
</mask>
<g mask="url(#mask0_3163_4652)">
<path fill-rule="evenodd" clip-rule="evenodd" d="M-119.429 78.5955V72.4391C-116.282 71.8555 -113.025 71.2433 -109.668 70.6122L-109.666 70.6119C-65.0142 62.2173 -2.66692 50.4961 54.5916 58.895C85.1199 63.373 108.693 61.8193 121.819 60.9543C125.371 60.7202 128.158 60.5365 130.11 60.5365C131.121 60.5365 134.905 60.4415 140.543 60.2999C168.064 59.6088 239.757 57.8084 248.723 60.5365C251.578 61.405 253.794 61.8983 255.497 62.2774C259.427 63.152 260.626 63.4187 260.626 66.2825V86.3934C257.038 86.4955 253.098 86.6043 248.895 86.7166V86.9204H247.267V86.7598C245.5 86.8067 243.69 86.854 241.843 86.9016V86.9204H241.115C200.207 87.9717 141.89 89.1528 134.625 88.0351C123.954 86.3934 90.2987 81.8787 83.7319 81.8787C77.1651 81.8787 -5.741 80.237 -23.7997 74.9014C-41.8585 69.5659 -55.4026 69.5663 -119.429 78.5955ZM248.895 83.9302H253.238V79.005H248.895V83.9302ZM247.267 79.005V83.9302H241.843V79.005H247.267ZM234.791 79.005H240.216V83.9302H234.791V79.005ZM-155.547 92.1385V85.9821C-126.543 81.467 -65.1707 72.6834 -51.7087 73.6692C-38.2467 74.655 -27.4936 75.7224 -24.2102 76.9538C-1.30387 81.0833 5.24851 80.9373 15.5021 80.7089C16.4554 80.6877 17.4407 80.6657 18.4742 80.6464C18.8846 84.3402 17.8175 92.4667 10.2656 95.4217C7.00147 96.699 3.05029 96.8476 -1.57095 97.0214C-10.3142 97.3502 -21.4559 97.7691 -34.8813 106.093C-51.2983 116.271 -98.0869 104.862 -119.429 97.8843C-124.901 95.285 -139.786 90.4969 -155.547 92.1385ZM52.5274 71.5745V64.4841C50.6864 64.4616 48.8768 64.4404 47.1026 64.4206V71.299C48.8813 71.3888 50.6895 71.4807 52.5274 71.5745ZM66.6307 72.2096C64.8445 72.1418 63.0364 72.0682 61.2065 71.9886V64.5969C62.9939 64.6214 64.8031 64.6469 66.6307 64.6735V72.2096ZM68.2581 72.27C70.0897 72.3365 71.8979 72.3969 73.6829 72.4514V64.7794C71.86 64.7511 70.0507 64.7238 68.2581 64.6973V72.27ZM80.735 72.6396C78.9517 72.599 77.1434 72.5524 75.3103 72.4997V64.8048C77.1071 64.833 78.9163 64.8621 80.735 64.892V72.6396ZM82.3624 72.6752C84.1973 72.7136 86.0054 72.7457 87.7867 72.7717V65.0108C85.9719 64.9794 84.1629 64.9488 82.3624 64.9188V72.6752ZM94.8384 72.8449C93.0592 72.8342 91.2511 72.8173 89.4141 72.794V65.0391C91.2182 65.0706 93.0272 65.1029 94.8384 65.1357V72.8449ZM96.4658 72.8531C98.3055 72.8604 100.114 72.8612 101.891 72.8558V65.2666C100.083 65.2323 98.2734 65.1985 96.4658 65.1654V72.8531ZM108.942 72.8005C107.169 72.8231 105.361 72.8394 103.518 72.8491V65.2977C105.329 65.3324 107.138 65.3677 108.942 65.4036V72.8005ZM110.57 72.7779C112.416 72.75 114.224 72.7154 115.994 72.6744V65.5467C114.193 65.5093 112.384 65.4724 110.57 65.436V72.7779ZM123.046 72.472C121.281 72.5327 119.473 72.5872 117.622 72.6347V65.5806C119.44 65.6187 121.249 65.6572 123.046 65.6962V72.472ZM124.673 72.4137C126.53 72.3446 128.339 72.2686 130.098 72.1862V65.8527C128.305 65.812 126.496 65.7716 124.673 65.7317V72.4137ZM137.149 71.8082C135.398 71.9145 133.59 72.0145 131.726 72.1075V65.8898C133.553 65.9318 135.362 65.9741 137.149 66.0167V71.8082ZM138.777 71.7067C140.652 71.5865 142.46 71.4593 144.201 71.3261V66.1891C142.419 66.1444 140.61 66.0999 138.777 66.0557V71.7067ZM151.254 70.7229C149.528 70.8872 147.72 71.0462 145.828 71.1984V66.2303C147.669 66.2771 149.479 66.3242 151.254 66.3714V70.7229ZM152.881 70.5641C154.798 70.3722 156.606 70.1742 158.306 69.9725V66.5654C156.541 66.5152 154.731 66.465 152.881 66.4151V70.5641ZM165.358 69.0278C163.706 69.278 161.898 69.5282 159.933 69.7741V66.6121C161.796 66.6661 163.606 66.7201 165.358 66.7741V69.0278ZM166.985 68.7731C169.079 68.4346 170.886 68.0987 172.409 67.7758V67.0026C170.679 66.9435 168.868 66.8842 166.985 66.8249V68.7731ZM175.256 67.1024C174.882 67.2029 174.475 67.3057 174.036 67.4104V67.059C174.448 67.0735 174.854 67.0879 175.256 67.1024ZM59.5791 64.5748V71.9165C57.7916 71.8359 55.9835 71.7496 54.1548 71.6575V64.5043C55.9363 64.5266 57.7456 64.5501 59.5791 64.5748ZM45.4753 64.4027V71.217C43.6355 71.1245 41.8277 71.0341 40.0514 70.946V64.3475C41.8152 64.3643 43.6248 64.3827 45.4753 64.4027ZM38.424 64.3324C36.5595 64.3155 34.7495 64.3005 32.9997 64.2876V70.5997C34.7737 70.6858 36.5816 70.7744 38.424 70.8654V64.3324ZM31.3724 64.2761V70.5208C29.5268 70.4316 27.7187 70.3451 25.9476 70.2612V64.2454C27.675 64.253 29.4859 64.2633 31.3724 64.2761ZM24.3202 64.2389C22.545 64.2326 20.8665 64.2294 19.2941 64.2294L18.8954 64.2295V69.9323C20.6631 70.0134 22.4711 70.0974 24.3202 70.1844V64.2389ZM17.2681 64.2325V69.858C15.4149 69.7736 13.6071 69.6926 11.8438 69.6149V64.2709C13.6516 64.251 15.4608 64.2381 17.2681 64.2325ZM10.2164 64.2907C8.40468 64.3147 6.59541 64.3456 4.79207 64.3829V69.3118C6.5502 69.3853 8.35796 69.4626 10.2164 69.5436V64.2907ZM3.16472 64.4183V69.2442C1.29942 69.1673 -0.508393 69.0947 -2.26007 69.0264V64.5613C-0.461244 64.5076 1.34821 64.4598 3.16472 64.4183ZM-3.88742 64.6116C-5.70866 64.6698 -7.51787 64.7339 -9.31128 64.8035V68.7642C-7.56854 68.8256 -5.76117 68.8921 -3.88742 68.9636V64.6116ZM-10.9386 64.8683V68.7077C-12.825 68.6432 -14.6326 68.585 -16.3639 68.5328V65.1084C-14.5759 65.0231 -12.7661 64.9429 -10.9386 64.8683ZM-17.9912 65.1877C-19.8253 65.2789 -21.6349 65.3754 -23.4156 65.4765V68.3448C-21.7019 68.3837 -19.8949 68.4304 -17.9912 68.485V65.1877ZM-25.0429 65.5706V68.3095C-26.9752 68.2698 -28.7816 68.2407 -30.4677 68.2219V65.9105C-28.6959 65.7928 -26.886 65.6793 -25.0429 65.5706ZM-32.0951 66.0205C-33.9497 66.1482 -35.7597 66.2803 -37.5189 66.4161V68.2097C-35.8849 68.1931 -34.0804 68.192 -32.0951 68.2068V66.0205ZM-39.1463 66.544V68.2324C-41.2726 68.2705 -43.0712 68.339 -44.5706 68.437V67.0043C-42.8295 66.8474 -41.0188 66.6937 -39.1463 66.544ZM-46.198 67.1536C-53.0866 67.7979 -58.789 68.4875 -62.7911 69.1545H-49.6575C-48.9165 68.9137 -47.7817 68.717 -46.198 68.5659V67.1536ZM254.319 66.6921V74.0777L248.895 74.0018V66.72C250.65 66.7021 252.458 66.6926 254.319 66.6921ZM247.267 73.979V66.7392C245.399 66.7642 243.591 66.7988 241.843 66.8423V73.9032L247.267 73.979ZM240.216 73.8804L234.791 73.8045V67.0773C236.53 67.0038 238.338 66.9396 240.216 66.8859V73.8804ZM233.164 73.7818V67.1497C231.272 67.2381 229.464 67.3378 227.738 67.4473V73.7059L233.164 73.7818ZM226.111 73.6831L220.687 73.6073V67.9853C222.393 67.8312 224.199 67.687 226.111 67.555V73.6831ZM219.06 73.5845V68.1384C217.114 68.3287 215.308 68.5322 213.635 68.7452V73.5087L219.06 73.5845ZM212.008 73.4859L206.584 73.41V69.8296C208.19 69.5315 209.993 69.2396 212.008 68.9612V73.4859ZM204.956 73.3873V70.147C202.722 70.6054 200.931 71.0719 199.532 71.5207V73.3114L204.956 73.3873ZM197.904 73.2886V72.1016C196.854 72.5239 196.162 72.918 195.778 73.2589L197.904 73.2886ZM233.164 79.005V83.9302H227.738V79.005H233.164ZM220.687 83.9302H226.111V79.005H220.687V83.9302ZM219.06 79.005V83.9302H213.635V79.005H219.06ZM206.584 83.9302H212.008V79.005H206.584V83.9302ZM204.956 79.005V83.9302H199.532V79.005H204.956ZM192.48 83.9302H197.904V79.005H192.48V83.9302ZM190.853 79.005V83.9302H185.428V79.2446L186.338 79.005H190.853ZM181.413 83.9302H183.8V79.6729L178.54 81.0572L181.413 83.9302ZM-197 132.77L-177.3 115.532H-169.501L-160.062 110.197H-156.368L-150.211 107.324H-143.645V103.22L-153.495 95.0112C-147.475 94.3271 -131.332 95.0112 -114.915 103.22V110.197L-129.69 113.48H-135.026L-145.286 118.816H-153.495L-165.808 132.77H-197ZM-125.996 114.301H-124.355V132.36H-125.996V114.301ZM-130.1 115.942H-131.742V132.359H-130.1V115.942ZM-147.339 122.51H-148.98V132.36H-147.339V122.51ZM-23.3897 104.037L-18.0541 101.164C-9.02478 101.164 10.3474 100.097 15.6008 95.8291C19.3139 92.8123 20.1402 89.008 20.7507 86.1971C21.2199 84.0368 21.5616 82.4632 22.9885 82.2848C26.2719 81.8744 77.3058 83.9961 86.1941 85.1578C95.6339 86.3917 117.386 88.4415 135.445 90.0832C149.892 91.3965 215.889 90.904 259.394 88.8519C261.692 102.642 252.964 123.875 248.723 131.126H-21.748C-21.748 124.551 -16.4972 118.852 -13.8654 115.996C-13.3755 115.464 -12.9762 115.031 -12.7186 114.709C-11.0769 112.656 -11.8978 109.783 -14.3603 107.731C-16.3304 106.09 -21.2007 104.585 -23.3897 104.037ZM252.827 94.6005L253.648 98.2943H248.895V94.0706C250.404 94.2316 251.729 94.4142 252.827 94.6005ZM241.843 98.2943H247.267V93.9126C245.62 93.7676 243.798 93.6511 241.843 93.5819V98.2943ZM240.216 93.5363V98.2943H234.791V93.5549C236.671 93.5028 238.488 93.5004 240.216 93.5363ZM227.738 98.2943H233.164V93.6122C231.396 93.6876 229.581 93.8084 227.738 93.9838V98.2943ZM226.111 94.1524V98.2943H220.687V94.9249C222.502 94.6083 224.317 94.3536 226.111 94.1524ZM213.635 98.2943H219.06V95.2254C217.241 95.5805 215.427 96.0001 213.635 96.4926V98.2943ZM212.008 96.9624C210.684 97.3632 209.376 97.806 208.091 98.2943H212.008V96.9624ZM153.094 93.3693V95.4215H147.999V92.9804L153.094 93.3693ZM146.372 92.8562V95.4215H140.947V92.4421L146.372 92.8562ZM139.319 92.3178V95.4215H133.895V91.9037L139.319 92.3178ZM132.267 91.7795V95.4215H126.843V91.3654L132.267 91.7795ZM125.216 91.2412V95.4215H119.792V90.8272L125.216 91.2412ZM118.164 90.703V95.4215H112.74V90.2889L118.164 90.703ZM111.112 90.1646V95.4215H105.687V89.7505L111.112 90.1646ZM104.06 89.6263V95.4215H98.6353V89.2528L99.328 89.2651L104.06 89.6263ZM97.0079 89.2241V95.4215H91.584V89.1284L97.0079 89.2241ZM89.9567 89.0997V95.4215H84.5319V89.004L89.9567 89.0997ZM82.9046 88.9752V95.4215H77.4802V88.8795L82.9046 88.9752ZM75.8529 88.8508V95.4215H70.4286V88.7551L75.8529 88.8508ZM68.8012 88.7264V95.4215H63.3764V88.6306L68.8012 88.7264ZM61.7491 88.6019V95.4215H56.3243V88.5062L61.7491 88.6019ZM54.6969 88.4775V95.4215H49.2721V88.3817L54.6969 88.4775ZM47.6448 88.353V95.4215H42.2209V88.2573L47.6448 88.353ZM40.5936 88.2286V95.4215H35.1692V88.1329L40.5936 88.2286ZM33.5419 88.1041V95.4215H28.1176V89.1123L29.5556 88.0338L33.5419 88.1041ZM26.4902 90.3328V95.4215H19.7054L26.4902 90.3328ZM75.3107 101.578H69.8863V108.144H75.3107V101.578ZM62.8337 101.578H68.259V108.144H62.8337V101.578ZM61.2064 101.578H55.7816V108.144H61.2064V101.578ZM48.7304 101.578H54.1542V108.144H48.7304V101.578ZM47.103 101.578H41.6787V108.144H47.103V101.578ZM34.6265 101.578H40.0513V108.144H34.6265V101.578ZM32.9992 101.578H27.5749V108.144H32.9992V101.578ZM20.5222 101.578H25.9475V108.144H20.5222V101.578ZM18.8949 101.578H13.471V108.144H18.8949V101.578ZM13.5482 112.66V124.152H18.8837V112.66H13.5482ZM22.9886 124.152V112.66H28.3242V124.152H22.9886ZM32.4277 112.66V124.152H37.7632V112.66H32.4277ZM41.8681 124.152V112.66H47.2037V124.152H41.8681ZM51.3081 112.66V124.152H56.6436V112.66H51.3081ZM60.7471 124.152V112.66H66.0827V124.152H60.7471ZM70.1876 112.66V124.152H75.5231V112.66H70.1876ZM-10.2562 104.451H8.62341V117.584H-10.2562V104.451ZM119.249 106.187L124.674 104.295V109.089L119.249 108.852V106.187ZM126.301 109.161V103.727L130.109 102.399H131.725V109.398L126.301 109.161ZM133.353 109.469L138.777 109.706V102.399H133.353V109.469ZM145.829 110.015L140.404 109.778V102.399H145.829V110.015ZM147.456 110.086L152.881 110.323V102.399H147.456V110.086ZM159.933 110.632L154.509 110.395V102.399H159.933V110.632ZM161.56 110.703L166.985 110.94V105.856L161.56 103.143V110.703ZM174.036 111.249L168.612 111.012V106.669L174.036 109.381V111.249ZM175.664 111.32L178.129 111.428L175.664 110.195V111.32ZM117.621 106.755L112.461 108.555L117.621 108.781V106.755ZM-112.452 105.272V111.839L-120.661 114.301V131.539H-25.0317C-24.7581 125.793 -21.7483 119.226 -14.7711 113.07C-10.5852 109.377 -23.5085 105.796 -28.7256 106.914C-30.2335 107.237 -31.7414 107.758 -33.457 108.35C-38.2788 110.016 -44.7412 112.249 -57.4554 112.249C-71.2457 112.249 -99.4557 108.692 -112.452 105.272ZM-53.761 117.585L-54.9923 126.203H-41.4482L-43.5004 117.585H-53.761ZM-109.579 125.793L-108.684 117.585H-105.868V125.793H-109.579ZM-98.8161 117.585H-104.241V125.793H-98.8161V117.585ZM-97.1888 125.793V117.585H-91.7645V125.793H-97.1888ZM-84.7123 117.585H-90.1371V125.793H-84.7123V117.585ZM-83.085 125.793V117.585H-78.2377L-77.6606 118.431V125.793H-83.085ZM-76.0333 125.793V120.818L-72.6409 125.793H-76.0333Z" fill="#CCCCCC"/>
<rect x="244.22" y="85.8425" width="2.74359" height="5.94444" rx="1.37179" transform="rotate(-41.8286 244.22 85.8425)" fill="#3D537E"/>
<path d="M169.915 165.406L170.829 163.348H204.209L216.098 174.094L182.947 178.209C179.654 170.527 172.887 166.473 169.915 165.406Z" fill="#BBBBBB"/>
<path d="M186.376 191.47C189.12 179.81 185.233 178.895 182.947 178.209L190.72 173.865L204.667 176.152L208.325 189.641L186.376 191.47Z" fill="#D1D1D1"/>
<path d="M212.985 250C212.071 232.807 215.652 216.62 218.015 210.218L258.254 209.303C266.119 222.29 266.256 241.845 265.342 250H212.985Z" fill="#2E4168"/>
<path d="M220.073 250C219.158 232.807 223.655 215.705 226.017 209.303H260.083C267.948 222.29 268.085 241.845 267.171 250H220.073Z" fill="#3D537E"/>
<path d="M219.299 83.5554C205.581 87.9452 211.895 98.8359 213.877 105.695C219.913 90.3308 233.768 96.8545 239.941 102.037C242.685 115.206 236.969 122.766 233.768 124.9L238.047 124.9C255.423 115.335 253.365 107.333 253.365 100.932C252.908 95.2159 249.021 89.0426 243.305 84.6985C237.59 80.3545 223.643 82.0312 219.299 83.5554Z" fill="black"/>
<path d="M241.999 128.101C240.535 125.906 240.17 121.852 240.17 120.099C236.893 118.879 226.089 118.538 229.424 122.614C233.539 127.644 229.271 131.988 228.052 133.588H243.37C243.736 131.942 242.608 129.244 241.999 128.101Z" fill="#FFCCB3"/>
<path d="M239.712 121.699C237.655 129.702 229.195 133.588 229.195 133.588H228.052C231.482 128.558 231.939 126.501 231.024 122.157L239.712 121.699Z" fill="#FBB8A6"/>
<path d="M244.285 111.411C244.285 122.27 231.482 130.844 225.994 130.844C220.507 130.844 212.734 122.27 212.734 111.411C212.734 100.551 219.797 91.7483 228.509 91.7483C237.222 91.7483 244.285 100.551 244.285 111.411Z" fill="#FFCCB3"/>
<circle cx="246.8" cy="112.554" r="6.17307" fill="#FFCCB3"/>
<path d="M238.57 102.952C233.997 101.671 230.415 95.7115 229.196 92.8917C220.416 92.8917 214.269 102.952 212.897 110.763C195.521 91.5579 218.45 81.6887 229.196 83.7464C243.462 81.1857 243.534 95.292 243.991 102.075C240.699 103.355 251.536 118.765 241.705 130.425C249.936 115.564 238.341 104.476 238.57 102.952Z" fill="#020202"/>
<path d="M200.323 167.235C222.043 159.69 217.563 147.349 225.041 135.288L236.137 144.696C236.137 188.84 233.614 197.661 204.667 179.81L200.323 167.235Z" fill="#B6BFC6"/>
<path fill-rule="evenodd" clip-rule="evenodd" d="M274.734 216.582H200.918C207.739 190.969 223.45 169.709 223.45 134.873L245.374 129.257C262.874 151.746 271.278 179.434 274.734 216.582Z" fill="#C5CFD6"/>
<path d="M245.304 160.858C248.392 153.332 248.199 154.104 248.922 148.073L258.813 147.349L265.567 171.954L243.857 179.674C242.699 169.639 243.776 165.28 245.304 160.858Z" fill="#B0B9C0"/>
<path fill-rule="evenodd" clip-rule="evenodd" d="M247.716 129.98C258.33 150.967 300.063 186.911 250.37 195.836L244.339 176.779C243.66 151.049 254.915 152.702 244.821 133.008L246.269 130.222L247.716 129.98Z" fill="#B0B9C0"/>
<ellipse cx="204.854" cy="176.906" rx="9.16671" ry="5.54827" transform="rotate(-0.795294 204.854 176.906)" fill="#FFCCB3"/>
<ellipse cx="213.462" cy="177.985" rx="3.37721" ry="1.44737" transform="rotate(-7.2981 213.462 177.985)" fill="#FFCCB3"/>
<path d="M201.883 172.196L203.089 175.09" stroke="#E56441" stroke-width="2" stroke-linecap="round"/>
<path d="M205.26 171.713L206.466 174.608" stroke="#E56441" stroke-width="2" stroke-linecap="round"/>
<path d="M208.637 171.713L209.843 174.608" stroke="#E56441" stroke-width="2" stroke-linecap="round"/>
<path d="M198.505 172.678L199.712 175.573" stroke="#E56441" stroke-width="2" stroke-linecap="round"/>
<path d="M248.922 173.884L254.712 181.362C254.712 181.362 246.219 196.069 210.808 184.599C208.005 183.691 206.707 182.327 201.883 181.362L207.431 179.191C223.642 183.437 241.846 177.422 248.922 173.884Z" fill="#FFCCB3"/>
<path d="M250.066 173.179L255.855 180.658C255.855 180.658 260.541 182.077 255.511 182.992C252.539 183.678 251.895 184.84 250.066 185.526L244.765 175.694C247.737 174.551 248.194 174.075 250.066 173.179Z" fill="#FFB692"/>
<path fill-rule="evenodd" clip-rule="evenodd" d="M246.751 129.016C277.315 149.279 294.756 183.775 256.159 193.424C252.287 186.264 250.116 182.25 246.244 175.09C245.565 149.361 253.95 151.737 243.856 132.043L245.304 129.257L246.751 129.016Z" fill="#C5CFD6"/>
<path d="M216.556 173.865L185.004 177.066L185.018 177.071C188.972 178.44 190.991 179.139 188.434 191.927L218.613 189.641C219.756 181.639 219.299 177.066 216.556 173.865Z" fill="#F4F4F4"/>
<path d="M185.004 177.066C184.624 174.102 176.909 163.228 169.067 163.347L169 163.348C169.022 163.348 169.045 163.347 169.067 163.347L204.667 162.662C207.639 163.653 214.178 167.326 216.556 174.094L185.004 177.066Z" fill="white"/>
<path d="M249.021 76.2394C246.278 78.6172 246.202 82.8698 246.506 84.6988L249.936 88.1283C255.606 91.7864 256.414 97.1212 256.109 99.3313C253.182 119.451 258.548 129.358 261.596 131.797C257.389 123.383 263.043 111.906 263.425 97.2736C263.974 76.2394 256.795 73.1148 253.137 74.1817C251.856 73.9988 249.86 75.4773 249.021 76.2394Z" fill="#020202"/>
</g>
</svg>
