<svg width="288" height="250" viewBox="0 0 288 250" fill="none" xmlns="http://www.w3.org/2000/svg">
<mask id="mask0_3168_14034" style="mask-type:alpha" maskUnits="userSpaceOnUse" x="0" y="0" width="288" height="250">
<path d="M287.75 0H0V250H287.75V0Z" fill="white"/>
</mask>
<g mask="url(#mask0_3168_14034)">
<path d="M86.5055 90.1803C61.6179 82.3375 53.5387 61.5478 52.61 52.1333C52.61 76.5955 27.5367 87.6906 15 90.1803H86.5055Z" fill="#CCCCCC"/>
<path fill-rule="evenodd" clip-rule="evenodd" d="M149.336 43.1837C149.239 54.2435 140.472 77.0499 105.17 88.6979L118.877 85.6776H206C187.547 81.5181 151.074 69.7074 149.374 43.8841C149.365 43.2636 149.345 42.6356 149.312 42C149.312 42.3977 149.32 42.7923 149.336 43.1837ZM146.292 78.9402C146.524 78.2432 154.191 71.041 158.14 71.041C159.612 70.6538 164.088 71.6915 170.222 78.9402H146.292Z" fill="#CCCCCC"/>
<rect x="155.334" y="73.1641" width="6.5005" height="0.955956" fill="#CCCCCC"/>
<rect x="153.04" y="75.0762" width="11.0891" height="0.764765" fill="#CCCCCC"/>
<rect x="150.746" y="76.7969" width="15.6777" height="0.955956" fill="#CCCCCC"/>
<path d="M125.453 76.7969L72.4958 79.8166C79.9284 86.5065 88.9095 88.7984 92.4709 89.1082V92.1279H39.2812V101.652H126.847C125.918 98.4926 122.279 93.9862 120.576 92.1279C117.603 89.155 106.018 92.307 101.297 92.1279V88.6436C105.865 87.4821 118.485 83.5332 125.453 76.7969Z" fill="#CCCCCC"/>
<path d="M37.4078 119.62V92.705H29.9798L23.016 121.941H25.5694L23.016 132.15H20.9269V137.022H33.2295V134.702H42.7466V137.022H46.6928V134.702H57.8348V137.022H62.9415V134.702H85.9219V137.022H91.4929V134.702H105.188V137.022H110.063V134.702H131.418H160.666V137.022H166.469V134.702H178.772V137.022H198.735V130.99H196.181L184.575 89.2246H178.772V130.99H138.614V89.2246H129.561V101.754L127.008 104.77L123.062 130.99H28.587V119.62H37.4078Z" fill="#CCCCCC"/>
<path fill-rule="evenodd" clip-rule="evenodd" d="M139.787 89.1626H177.424V129.588H139.787V89.1626ZM146.059 97.2939H143.272V100.082H146.059V97.2939ZM151.635 97.2939H154.423V100.082H151.635V97.2939ZM161.858 97.2939H159.07V100.082H161.858V97.2939ZM167.434 97.2939H170.222V100.082H167.434V97.2939ZM146.059 101.011H143.272V103.799H146.059V101.011ZM151.635 101.011H154.423V103.799H151.635V101.011ZM161.858 101.011H159.07V103.799H161.858V101.011ZM167.434 101.011H170.222V103.799H167.434V101.011ZM149.777 97.2939H146.989V100.082H149.777V97.2939ZM155.353 97.2939H158.141V100.082H155.353V97.2939ZM165.575 97.2939H162.787V100.082H165.575V97.2939ZM171.151 97.2939H173.939V100.082H171.151V97.2939ZM149.777 101.011H146.989V103.799H149.777V101.011ZM155.353 101.011H158.141V103.799H155.353V101.011ZM165.575 101.011H162.787V103.799H165.575V101.011ZM171.151 101.011H173.939V103.799H171.151V101.011ZM148.847 123.315V109.375H143.272V123.315H148.847ZM168.363 109.375H173.939V123.315H168.363V109.375ZM167.434 109.375H149.777V123.315H167.434V109.375Z" fill="#CCCCCC"/>
<rect x="43.8699" y="111.211" width="10.7067" height="15.8689" fill="#CCCCCC"/>
<rect x="112.699" y="111.211" width="4.58859" height="15.8689" fill="#CCCCCC"/>
<rect x="106.581" y="111.211" width="4.58859" height="15.8689" fill="#CCCCCC"/>
<rect x="97.2122" y="111.211" width="8.03003" height="15.8689" fill="#CCCCCC"/>
<rect x="80.9609" y="111.211" width="5.54454" height="15.8689" fill="#CCCCCC"/>
<rect x="88.991" y="111.211" width="5.54454" height="15.8689" fill="#CCCCCC"/>
<rect x="73.1222" y="111.211" width="5.54454" height="15.8689" fill="#CCCCCC"/>
<rect x="66.0481" y="111.211" width="5.73574" height="15.8689" fill="#CCCCCC"/>
<rect x="56.2974" y="111.211" width="5.73574" height="15.8689" fill="#CCCCCC"/>
<path d="M126.273 102.607H39.4724V103.824H60.3603V105.284H61.7528V103.824H75.9102V105.284H77.5348V103.824H95.4055V105.284H97.0302V103.824H113.276V105.284H115.133V103.824H126.273V102.607Z" fill="#CCCCCC"/>
<mask id="mask1_3168_14034" style="mask-type:luminance" maskUnits="userSpaceOnUse" x="144" y="109" width="127" height="88">
<path d="M144 109H271V196.232H144V109Z" fill="white"/>
</mask>
<g mask="url(#mask1_3168_14034)">
<path d="M249.59 188.236L238.658 191.508L230.549 207.682H280.11L259.156 184.42C257.243 182.693 253.326 180.512 249.59 188.236Z" fill="#2F2E41"/>
<path d="M210.598 196.778C201.76 174.334 214.06 159.34 216.702 155.251L220.346 174.334C221.949 183.856 217.461 194.173 215.79 197.686L210.598 196.778Z" fill="#495396"/>
<path d="M216.701 155.251C218.742 152.78 223.504 150.405 225.63 149.527H241.573C252.724 155.924 249.651 184.662 250.41 198.232H222.623C216.064 170.899 215.942 158.19 216.701 155.251Z" fill="#5661AE"/>
<path d="M200.394 197.777C203.601 195.015 204.463 187.297 204.493 183.784L201.123 171.607L180.715 175.606C179.913 183.02 165.136 186.813 157.848 187.782C154.787 187.782 153.171 188.933 152.746 189.508L145.913 197.777H200.394Z" fill="#2E4168"/>
<path d="M215.973 195.324C214.515 179.404 209.656 169.305 207.409 166.246L202.854 167.518C207.081 173.697 209.899 188.63 210.78 195.324L208.684 198.05H218.706L215.973 195.324Z" fill="#F1C0A8"/>
<path d="M206.862 157.977C207.372 146.928 199.24 141.5 195.11 140.167C197.588 141.258 202.702 160.552 204.949 170.063L210.871 164.247L206.862 157.977Z" fill="#B6BFC6"/>
<path d="M189.37 140.255C188.233 138.799 188.49 135.47 188.761 133.987L183.889 126.81L174.247 129.135C176.581 130.651 178.104 136.211 178.104 141.164C182.164 143.105 187.645 141.535 189.37 140.255Z" fill="#FFCCB3"/>
<path d="M175.397 130.756C174.824 130.948 174.062 130.216 173.694 129.122C173.326 128.028 173.491 126.985 174.064 126.794C174.636 126.602 175.398 127.334 175.767 128.428C176.135 129.522 175.969 130.565 175.397 130.756Z" fill="#FFCCB3"/>
<path d="M184.819 109C185.765 109.173 186.432 110.474 186.647 111.157C186.862 111.265 187.221 111.444 187.4 111.265C187.916 110.488 189.014 110.186 189.444 110.186C188.476 111.48 189.982 111.696 191.273 113.098C198.157 121.552 192.348 131.214 188.584 134.988H178.472C178.903 133.004 175.281 129.201 173.417 127.547C172.728 126.771 171.983 123.27 171.696 121.617C171.868 112.99 180.516 110.761 184.819 110.725C185.163 110.294 184.962 109.395 184.819 109Z" fill="#020202"/>
<path d="M176.336 138.895C181.438 139.549 186.601 137.774 188.544 136.805C207.567 139.059 208.618 169.487 206.765 184.419H171.326L176.251 163.974H164.766C160.757 151.108 170.809 141.894 176.336 138.895Z" fill="#D9D9D9"/>
<path d="M173.427 184.419C176.561 180.058 176.737 168.911 176.433 163.974C179.567 169.063 179.136 179.785 178.529 184.419H173.427Z" fill="#B6BFC6"/>
<path d="M167.232 192.325C169.71 184.983 169.297 170.789 168.78 163.883H176.524C179.731 174.715 175.188 187.66 172.516 193.506L171.422 197.595H160.399L167.232 192.325Z" fill="#FFCCB3"/>
<path d="M253.69 169.154C254.419 159.195 250.684 156.16 245.035 153.343L246.037 167.064C246.037 167.064 247.859 193.052 243.395 198.05H257.061C253.69 193.779 252.899 179.967 253.69 169.154Z" fill="#495396"/>
<path d="M256.423 169.154C257.152 159.195 253.417 156.16 247.768 153.343L244.306 160.431C244.306 160.431 249.59 183.148 246.128 198.05H259.794C256.423 193.779 255.632 179.967 256.423 169.154Z" fill="#5661AE"/>
<path d="M245.491 141.439C246.001 127.482 239.69 124.538 236.471 124.811C230.203 123.72 227.057 129.99 226.268 133.261C221.603 141.621 221.895 156.978 222.623 163.611C224.3 172.843 231.461 176.242 234.831 176.787C239.788 176.278 243.577 172.395 244.853 170.517C245.8 171.68 245.673 173.061 245.491 173.606C247.75 170.771 247.89 159.825 247.677 154.706C248.26 155.07 250.228 155.403 251.139 155.524C247.131 153.343 245.703 145.226 245.491 141.439Z" fill="#495396"/>
<path d="M245.491 140.167C246.001 126.21 239.69 123.266 236.471 123.539C230.203 122.448 227.057 128.718 226.268 131.989C221.603 140.349 221.895 155.706 222.623 162.339C224.3 171.571 231.461 174.97 234.831 175.515C239.788 175.006 243.577 171.123 244.853 169.245C245.8 170.408 245.673 171.789 245.491 172.334C247.75 169.499 247.89 158.553 247.677 153.434C248.26 153.798 250.228 154.131 251.139 154.252C247.131 152.071 245.703 143.954 245.491 140.167Z" fill="#020202"/>
</g>
</g>
<path fill-rule="evenodd" clip-rule="evenodd" d="M239.997 47.4448C240.028 47.7193 239.83 47.9665 239.555 47.997C238.931 48.0664 238.492 48.4512 238.183 48.9766C237.87 49.5098 237.724 50.1373 237.691 50.5416C237.675 50.7303 237.554 50.8939 237.378 50.9643C237.202 51.0346 237.002 50.9996 236.86 50.8737C236.547 50.5957 235.994 50.2019 235.379 49.9463C234.753 49.6857 234.16 49.6075 233.697 49.8058C233.443 49.9145 233.149 49.797 233.041 49.5432C232.932 49.2893 233.049 48.9954 233.303 48.8866C234.133 48.531 235.04 48.7221 235.763 49.023C236.16 49.1882 236.532 49.3983 236.849 49.6098C236.95 49.2403 237.102 48.8418 237.321 48.4697C237.731 47.772 238.408 47.1183 239.445 47.0031C239.719 46.9726 239.967 47.1704 239.997 47.4448Z" fill="#CCCCCC"/>
<path fill-rule="evenodd" clip-rule="evenodd" d="M236.997 55.4448C237.028 55.7193 236.83 55.9665 236.555 55.997C235.931 56.0664 235.492 56.4512 235.183 56.9766C234.87 57.5098 234.724 58.1373 234.691 58.5416C234.675 58.7303 234.554 58.8939 234.378 58.9643C234.202 59.0346 234.002 58.9996 233.86 58.8737C233.547 58.5957 232.994 58.2019 232.379 57.9463C231.753 57.6857 231.16 57.6075 230.697 57.8058C230.443 57.9145 230.149 57.797 230.041 57.5432C229.932 57.2893 230.049 56.9954 230.303 56.8866C231.133 56.531 232.04 56.7221 232.763 57.023C233.16 57.1882 233.532 57.3983 233.849 57.6098C233.95 57.2403 234.102 56.8418 234.321 56.4697C234.731 55.772 235.408 55.1183 236.445 55.0031C236.719 54.9726 236.967 55.1704 236.997 55.4448Z" fill="#CCCCCC"/>
<path fill-rule="evenodd" clip-rule="evenodd" d="M248.997 53.4448C249.028 53.7193 248.83 53.9665 248.555 53.997C247.931 54.0664 247.492 54.4512 247.183 54.9766C246.87 55.5098 246.724 56.1373 246.691 56.5416C246.675 56.7303 246.554 56.8939 246.378 56.9643C246.202 57.0346 246.002 56.9996 245.86 56.8737C245.547 56.5957 244.994 56.2019 244.379 55.9463C243.753 55.6857 243.16 55.6075 242.697 55.8058C242.443 55.9145 242.149 55.797 242.041 55.5432C241.932 55.2893 242.049 54.9954 242.303 54.8866C243.133 54.531 244.04 54.7221 244.763 55.023C245.16 55.1882 245.532 55.3983 245.849 55.6098C245.95 55.2403 246.102 54.8418 246.321 54.4697C246.731 53.772 247.408 53.1183 248.445 53.0031C248.719 52.9726 248.967 53.1704 248.997 53.4448Z" fill="#CCCCCC"/>
<path fill-rule="evenodd" clip-rule="evenodd" d="M231.997 64.4448C232.028 64.7193 231.83 64.9665 231.555 64.997C230.931 65.0664 230.492 65.4512 230.183 65.9766C229.87 66.5098 229.724 67.1373 229.691 67.5416C229.675 67.7303 229.554 67.8939 229.378 67.9643C229.202 68.0346 229.002 67.9996 228.86 67.8737C228.547 67.5957 227.994 67.2019 227.379 66.9463C226.753 66.6857 226.16 66.6075 225.697 66.8058C225.443 66.9145 225.149 66.797 225.041 66.5432C224.932 66.2893 225.049 65.9954 225.303 65.8866C226.133 65.531 227.04 65.7221 227.763 66.023C228.16 66.1882 228.532 66.3983 228.849 66.6098C228.95 66.2403 229.102 65.8418 229.321 65.4697C229.731 64.772 230.408 64.1183 231.445 64.0031C231.719 63.9726 231.967 64.1704 231.997 64.4448Z" fill="#CCCCCC"/>
<path fill-rule="evenodd" clip-rule="evenodd" d="M261.997 60.4448C262.028 60.7193 261.83 60.9665 261.555 60.997C260.931 61.0664 260.492 61.4512 260.183 61.9766C259.87 62.5098 259.724 63.1373 259.691 63.5416C259.675 63.7303 259.554 63.8939 259.378 63.9643C259.202 64.0346 259.002 63.9996 258.86 63.8737C258.547 63.5957 257.994 63.2019 257.379 62.9463C256.753 62.6857 256.16 62.6075 255.697 62.8058C255.443 62.9145 255.149 62.797 255.041 62.5432C254.932 62.2893 255.049 61.9954 255.303 61.8866C256.133 61.531 257.04 61.7221 257.763 62.023C258.16 62.1882 258.532 62.3983 258.849 62.6098C258.95 62.2403 259.102 61.8418 259.321 61.4697C259.731 60.772 260.408 60.1183 261.445 60.0031C261.719 59.9726 261.967 60.1704 261.997 60.4448Z" fill="#CCCCCC"/>
<path fill-rule="evenodd" clip-rule="evenodd" d="M247.997 61.4448C248.028 61.7193 247.83 61.9665 247.555 61.997C246.931 62.0664 246.492 62.4512 246.183 62.9766C245.87 63.5098 245.724 64.1373 245.691 64.5416C245.675 64.7303 245.554 64.8939 245.378 64.9643C245.202 65.0346 245.002 64.9996 244.86 64.8737C244.547 64.5957 243.994 64.2019 243.379 63.9463C242.753 63.6857 242.16 63.6075 241.697 63.8058C241.443 63.9145 241.149 63.797 241.041 63.5432C240.932 63.2893 241.049 62.9954 241.303 62.8866C242.133 62.531 243.04 62.7221 243.763 63.023C244.16 63.1882 244.532 63.3983 244.849 63.6098C244.95 63.2403 245.102 62.8418 245.321 62.4697C245.731 61.772 246.408 61.1183 247.445 61.0031C247.719 60.9726 247.967 61.1704 247.997 61.4448Z" fill="#CCCCCC"/>
<path fill-rule="evenodd" clip-rule="evenodd" d="M242.997 68.4448C243.028 68.7193 242.83 68.9665 242.555 68.997C241.931 69.0664 241.492 69.4512 241.183 69.9766C240.87 70.5098 240.724 71.1373 240.691 71.5416C240.675 71.7303 240.554 71.8939 240.378 71.9643C240.202 72.0346 240.002 71.9996 239.86 71.8737C239.547 71.5957 238.994 71.2019 238.379 70.9463C237.753 70.6857 237.16 70.6075 236.697 70.8058C236.443 70.9145 236.149 70.797 236.041 70.5432C235.932 70.2893 236.049 69.9954 236.303 69.8866C237.133 69.531 238.04 69.7221 238.763 70.023C239.16 70.1882 239.532 70.3983 239.849 70.6098C239.95 70.2403 240.102 69.8418 240.321 69.4697C240.731 68.772 241.408 68.1183 242.445 68.0031C242.719 67.9726 242.967 68.1704 242.997 68.4448Z" fill="#CCCCCC"/>
</svg>
