<svg width="289" height="250" viewBox="0 0 289 250" fill="none" xmlns="http://www.w3.org/2000/svg">
<mask id="mask0_3175_14607" style="mask-type:alpha" maskUnits="userSpaceOnUse" x="0" y="0" width="289" height="250">
<path d="M288.25 0H0.5V250H288.25V0Z" fill="white"/>
</mask>
<g mask="url(#mask0_3175_14607)">
<path fill-rule="evenodd" clip-rule="evenodd" d="M157.346 50.8594C181.559 49.6418 208.513 35.8402 227.307 51.2037C246.605 66.9794 243.382 96.4173 243.626 121.39C243.874 146.73 247.132 175.649 228.694 192.969C210.489 210.069 182.267 201.486 157.346 202.437C130.654 203.455 102.085 214.213 80.3563 198.628C56.3978 181.444 41.4864 150.797 44.3509 121.39C47.063 93.547 70.3869 72.6831 94.0639 57.904C112.797 46.2109 135.31 51.9675 157.346 50.8594Z" fill="#F2F2F2"/>
<path d="M136.284 216.745L138.054 207.718H145.665L146.55 216.745H136.284Z" fill="#FFCCB3"/>
<path d="M161.949 216.745L163.719 207.718H171.33L172.215 216.745H161.949Z" fill="#FFCCB3"/>
<path d="M133.275 209L136.728 114.097L169.434 110.898L174.34 205.801C169.397 211.914 160.288 210.481 156.351 209L154.353 156.572L151.445 135.424L148.902 209C145.994 212.128 137.273 210.303 133.275 209Z" fill="#474463"/>
<path d="M130.255 49.6964C127.841 45.6968 125.481 37.2477 133.408 32.1499C135.896 30.4509 140.045 29.7521 144.855 30.9413C149.665 32.1305 152.878 35.4513 153.356 40.1246C152.67 43.9224 154.789 45.4714 148.184 53.1267C147.866 55.6933 146.892 57.5412 146.079 58.4663L148.184 53.1267C148.516 50.4471 148.134 46.9842 146.109 42.9702C141.33 40.7402 131.468 38.9634 130.255 49.6964Z" fill="black"/>
<path d="M154.088 57.8147C152.507 56.4249 151.387 53.3749 151.025 52.0236C148.247 51.7605 139.848 53.7288 143.261 56.1821C147.472 59.2096 145.08 63.4401 144.47 64.9258L156.279 61.7616C156.221 60.4169 154.795 58.5701 154.088 57.8147Z" fill="#FFCCB3"/>
<path d="M151.004 53.3516C151.07 59.9457 145.352 64.6895 145.352 64.6895L144.47 64.9256C146.075 60.3396 146.003 58.6588 144.4 55.4988L151.004 53.3516Z" fill="#FBB8A6"/>
<path d="M150.442 48.1598C152.281 55.0233 145.641 62.6112 142.173 63.5405C138.705 64.4697 132.339 60.3667 130.5 53.5032C128.661 46.6397 131.634 39.8795 137.141 38.404C142.648 36.9284 148.603 41.2963 150.442 48.1598Z" fill="#FFCCB3"/>
<circle cx="152.225" cy="48.4558" r="4.0393" transform="rotate(-15 152.225 48.4558)" fill="#FFCCB3"/>
<path d="M146.822 40.0167C143.715 39.9819 139.017 40.5854 137.768 39.0097C132.219 40.4965 127.693 47.9893 128.5 51C118 44.9997 131.263 27.6134 135.701 34.7623C141.802 30.3652 149.824 36.6053 151.262 40.8149C149.398 42.1817 151.044 46.5523 151.059 48.1487C148.468 47.7278 146.936 41.0188 146.822 40.0167Z" fill="#020202"/>
<path d="M120.885 91.0744C145.163 97.424 113.805 74.8625 140.002 65.4814L148.258 72.9891C148.258 107.165 132.571 115.195 110.161 101.375L120.885 91.0744Z" fill="#444D90"/>
<path fill-rule="evenodd" clip-rule="evenodd" d="M179.555 127.579H122.408C127.689 107.751 139.852 91.2912 139.852 64.3223L156.825 59.9746C170.373 77.3848 176.879 98.8202 179.555 127.579Z" fill="#5661AE"/>
<path d="M156.771 84.4396C159.161 78.6129 159.012 79.2105 159.572 74.5417L167.229 73.9814L172.458 93.0302L155.65 99.0063C154.754 91.2374 155.588 87.8634 156.771 84.4396Z" fill="#B0B9C0"/>
<path fill-rule="evenodd" clip-rule="evenodd" d="M158.638 60.5352C166.855 76.7826 199.164 104.609 160.693 111.519L156.024 96.7652C155.498 76.8461 164.212 78.1252 156.397 62.8787L157.518 60.7219L158.638 60.5352Z" fill="#444D90"/>
<path fill-rule="evenodd" clip-rule="evenodd" d="M158.104 59.6401C184.78 75.3435 200.003 102.077 166.316 109.554C162.936 104.006 161.041 100.895 157.662 95.3465C157.069 75.407 164.388 77.2483 155.578 61.986L156.841 59.8271L158.104 59.6401Z" fill="#5661AE"/>
<path d="M122.282 132.476L116.21 126.797L112.452 113.073L110.487 102.142L172.148 88.2611L174.079 101.992L175.338 116.166L175.175 122.428L122.282 132.476Z" fill="white"/>
<path fill-rule="evenodd" clip-rule="evenodd" d="M130.785 65.2768C131.145 65.0806 131.56 65.0062 131.966 65.0645C133.64 65.3048 135.375 65.9809 136.865 66.5614C136.957 66.5972 137.048 66.6327 137.138 66.6676C138.806 67.3159 140.184 67.8211 141.403 67.9425C142.888 68.0904 144.554 68.6513 146.028 69.2533C147.535 69.8687 148.995 70.5921 150.1 71.1576C150.399 71.3106 150.701 71.4648 151.005 71.6202C155.484 73.9084 160.479 76.4601 164.75 79.3456C165.626 79.9374 166.606 80.4846 167.676 81.0545C167.95 81.2004 168.232 81.3491 168.519 81.5005C169.325 81.925 170.17 82.3704 170.983 82.8346C173.195 84.0985 175.508 85.6841 177.087 88.0931C177.265 88.3659 177.427 88.7326 177.458 89.1776C177.49 89.634 177.376 90.0461 177.195 90.38C176.872 90.9731 176.36 91.2854 176.097 91.4271C175.521 91.737 174.801 91.9168 174.256 92.0306C173.661 92.1551 173.039 92.2458 172.549 92.311C172.361 92.3361 172.183 92.3584 172.035 92.3771C171.99 92.3828 171.948 92.3881 171.908 92.3931C171.821 92.4041 171.752 92.4132 171.696 92.4209C171.679 92.4231 171.665 92.4252 171.653 92.4269C171.644 92.4281 171.637 92.4292 171.631 92.4301C171.614 92.4327 171.609 92.4337 171.611 92.4333C162.539 94.0645 153.887 96.0299 145.02 98.4865C137.705 100.513 130.402 101.977 122.995 103.309C122.435 103.409 121.856 103.519 121.261 103.632C118.343 104.186 115.056 104.81 111.915 104.741C111.339 104.728 110.584 104.559 110.007 103.929C109.452 103.324 109.364 102.618 109.359 102.21C109.354 101.798 109.432 101.419 109.482 101.195C109.521 101.023 109.543 100.936 109.559 100.871C109.575 100.808 109.586 100.767 109.6 100.691C110.454 96.2678 111.58 92.9794 113.8 88.9779C115.381 86.1282 117.351 83.5674 119.257 81.1325C119.391 80.9613 119.525 80.7907 119.658 80.6207C121.448 78.3379 123.159 76.1551 124.597 73.7943C124.879 73.3324 125.198 72.7385 125.583 72.0235L125.637 71.9242C126.034 71.187 126.485 70.3532 126.972 69.5417C127.458 68.733 128.004 67.9031 128.606 67.1753C129.197 66.4618 129.92 65.7476 130.785 65.2768Z" fill="#90416B"/>
<path fill-rule="evenodd" clip-rule="evenodd" d="M113.034 111.141C114.069 110.955 115.059 111.643 115.245 112.678C115.398 113.528 115.552 114.604 115.713 115.732C115.845 116.658 115.983 117.619 116.129 118.521C116.476 120.659 116.917 122.815 117.586 124.7C118.262 126.605 119.11 128.055 120.155 128.952C121.122 129.78 122.386 130.25 124.265 129.973C127.118 129.553 129.916 129.2 132.69 128.851C137.439 128.253 142.115 127.665 146.862 126.76C152.644 125.658 158.587 123.874 164.389 122.132C164.72 122.033 165.05 121.934 165.38 121.835C166.497 121.5 167.937 121.368 169.165 121.255C169.477 121.227 169.775 121.199 170.051 121.17C171.656 121.001 172.707 120.769 173.287 120.378C173.517 120.221 173.679 120.108 173.792 120.023C173.771 119.903 173.744 119.76 173.707 119.573L173.699 119.532C173.658 119.321 173.609 119.071 173.558 118.788C173.372 117.754 173.093 116.67 172.785 115.472C172.583 114.686 172.368 113.852 172.159 112.951C171.67 110.845 171.241 108.467 171.501 106.342C171.665 105.004 171.705 103.732 171.495 102.564C171.309 101.529 171.997 100.539 173.032 100.353C174.067 100.167 175.057 100.855 175.243 101.89C175.548 103.588 175.466 105.286 175.281 106.804C175.109 108.208 175.386 110.015 175.868 112.089C176.029 112.784 176.221 113.534 176.415 114.294C176.754 115.618 177.101 116.973 177.306 118.114C177.34 118.307 177.384 118.53 177.426 118.748C177.48 119.03 177.533 119.303 177.564 119.489C177.625 119.867 177.701 120.434 177.563 121.037C177.405 121.728 177.031 122.227 176.637 122.604C176.289 122.935 175.847 123.242 175.42 123.531C173.946 124.529 171.959 124.797 170.451 124.957C170.021 125.002 169.62 125.04 169.245 125.075C168.092 125.183 167.189 125.268 166.474 125.482C166.128 125.586 165.78 125.69 165.431 125.795C159.677 127.523 153.558 129.36 147.575 130.5C142.733 131.423 137.82 132.043 132.972 132.655C130.226 133.001 127.5 133.345 124.82 133.74C121.911 134.168 119.526 133.427 117.678 131.843C115.909 130.327 114.775 128.165 113.998 125.974C113.213 123.763 112.729 121.339 112.37 119.131C112.192 118.028 112.052 117.043 111.924 116.14C111.78 115.121 111.651 114.208 111.497 113.352C111.311 112.317 111.999 111.327 113.034 111.141Z" fill="#DBB97A"/>
<path fill-rule="evenodd" clip-rule="evenodd" d="M125.177 110.893C125.88 110.75 127.083 110.506 128.323 110.921C129.163 111.202 129.696 111.794 130.017 112.312C130.332 112.821 130.515 113.373 130.633 113.826C130.793 114.441 130.911 115.292 130.971 115.724C130.988 115.846 131 115.935 131.007 115.975C131.129 116.654 131.281 117.331 131.444 118.054L131.448 118.073C131.606 118.778 131.775 119.528 131.912 120.293L132.044 121.029C132.206 121.926 131.812 122.654 131.343 123.084C130.957 123.438 130.522 123.604 130.283 123.683C130.012 123.773 129.75 123.825 129.571 123.857C129.477 123.874 129.391 123.888 129.329 123.897L129.327 123.897C129.254 123.909 129.23 123.913 129.216 123.915C128.004 124.133 126.79 123.991 125.89 123.886C125.861 123.882 125.833 123.879 125.805 123.876C124.78 123.756 124.117 123.692 123.543 123.796C122.508 123.982 121.519 123.294 121.333 122.259L120.318 116.617C120.302 116.525 120.282 116.44 120.252 116.31C120.242 116.263 120.23 116.211 120.216 116.151C120.172 115.955 120.113 115.683 120.081 115.388C120.013 114.784 120.032 113.885 120.635 113.03C121.296 112.094 122.212 111.633 122.968 111.379C123.579 111.175 124.242 111.06 124.699 110.982C124.777 110.968 124.85 110.956 124.915 110.944C124.992 110.93 125.08 110.913 125.177 110.893Z" fill="#616AAA"/>
<path fill-rule="evenodd" clip-rule="evenodd" d="M139.228 109.048C139.457 109.024 139.556 109.013 139.618 109.001L139.644 108.997C141.081 108.739 142.487 108.486 144.282 108.785C144.36 108.797 144.453 108.811 144.556 108.827C144.988 108.892 145.61 108.986 146.148 109.155C146.917 109.394 147.774 109.844 148.418 110.763C149.357 112.106 149.634 113.679 149.827 114.774C149.841 114.856 149.855 114.935 149.869 115.011C149.879 115.067 149.894 115.144 149.911 115.233C149.967 115.515 150.048 115.929 150.09 116.289C150.15 116.804 150.18 117.515 149.946 118.252C149.495 119.677 148.466 120.462 147.383 120.819C146.424 121.135 145.4 121.125 144.711 121.104C144.104 121.085 143.462 120.947 143.039 120.855C142.957 120.838 142.883 120.822 142.82 120.809C142.309 120.705 142.09 120.698 141.959 120.722C140.841 120.923 139.676 120.77 138.918 120.66C138.107 120.543 137.462 119.92 137.317 119.113C137.2 118.465 137.011 117.818 136.784 117.066C136.77 117.021 136.757 116.977 136.743 116.931C136.534 116.241 136.296 115.454 136.129 114.632C136.129 114.632 136.129 114.633 136.129 114.631C136.126 114.62 136.104 114.547 136.019 114.343C136.006 114.313 135.992 114.279 135.976 114.241C135.899 114.057 135.785 113.786 135.696 113.525C135.496 112.936 135.147 111.632 136.036 110.428C136.424 109.902 136.934 109.621 137.299 109.468C137.677 109.309 138.057 109.221 138.357 109.167C138.664 109.111 138.963 109.077 139.183 109.053C139.199 109.052 139.214 109.05 139.228 109.048Z" fill="#616AAA"/>
<path fill-rule="evenodd" clip-rule="evenodd" d="M153.467 107.156C153.611 106.843 154.038 106.132 154.979 105.963C157.111 105.58 159.284 105.306 161.621 105.47C161.999 105.497 162.614 105.551 163.217 105.822C163.913 106.134 164.471 106.672 164.821 107.43C165.12 108.076 165.256 108.749 165.339 109.27C165.377 109.505 165.409 109.741 165.436 109.946C165.44 109.973 165.443 110 165.447 110.026C165.478 110.261 165.505 110.452 165.536 110.623C165.568 110.8 165.618 111.009 165.688 111.297C165.736 111.494 165.792 111.727 165.858 112.014C166.001 112.634 166.16 113.405 166.228 114.176C166.293 114.908 166.298 115.86 165.962 116.737C165.573 117.753 164.738 118.609 163.431 118.844C162.08 119.087 160.638 119.138 159.095 118.63C159.086 118.629 159.073 118.627 159.055 118.627C158.999 118.624 158.927 118.628 158.852 118.638C158.09 118.745 156.852 118.825 155.753 118.402C155.133 118.162 154.682 117.617 154.564 116.962C154.549 116.877 154.508 116.68 154.446 116.384C154.39 116.113 154.317 115.76 154.229 115.332C154.055 114.476 153.841 113.393 153.655 112.325C153.472 111.27 153.307 110.172 153.242 109.305C153.211 108.888 153.194 108.421 153.242 108.007C153.264 107.813 153.314 107.49 153.467 107.156Z" fill="#616AAA"/>
<ellipse cx="176.177" cy="95.0213" rx="7.0966" ry="4.29531" transform="rotate(-73.1567 176.177 95.0213)" fill="#FFCCB3"/>
<ellipse cx="178.993" cy="88.9235" rx="2.61454" ry="1.12052" transform="rotate(-79.6595 178.993 88.9235)" fill="#FFCCB3"/>
<path fill-rule="evenodd" clip-rule="evenodd" d="M171.652 96.139C171.635 95.9443 171.78 95.7726 171.974 95.7556L174.393 95.5448C174.588 95.5279 174.759 95.672 174.776 95.8668C174.793 96.0615 174.649 96.2332 174.454 96.2502L172.036 96.461C171.841 96.4779 171.669 96.3338 171.652 96.139Z" fill="#E56441"/>
<path fill-rule="evenodd" clip-rule="evenodd" d="M172.089 93.5341C172.072 93.3393 172.216 93.1676 172.411 93.1507L174.829 92.9398C175.024 92.9229 175.196 93.067 175.213 93.2618C175.23 93.4565 175.085 93.6282 174.891 93.6452L172.472 93.856C172.277 93.873 172.106 93.7288 172.089 93.5341Z" fill="#E56441"/>
<path fill-rule="evenodd" clip-rule="evenodd" d="M172.881 91.0428C172.864 90.8481 173.008 90.6764 173.203 90.6594L175.621 90.4486C175.816 90.4317 175.988 90.5758 176.005 90.7706C176.022 90.9653 175.878 91.137 175.683 91.154L173.264 91.3648C173.07 91.3817 172.898 91.2376 172.881 91.0428Z" fill="#E56441"/>
<path fill-rule="evenodd" clip-rule="evenodd" d="M171.216 98.744C171.199 98.5492 171.343 98.3776 171.538 98.3606L173.957 98.1498C174.151 98.1328 174.323 98.277 174.34 98.4717C174.357 98.6665 174.213 98.8382 174.018 98.8551L171.599 99.0659C171.405 99.0829 171.233 98.9388 171.216 98.744Z" fill="#E56441"/>
<ellipse cx="4.91571" cy="2.9753" rx="4.91571" ry="2.9753" transform="matrix(0.18529 -0.982684 -0.982684 -0.18529 111.907 102.039)" fill="#FFCCB3"/>
<path fill-rule="evenodd" clip-rule="evenodd" d="M112.408 98.8499C112.513 98.685 112.464 98.4662 112.3 98.3611L110.881 97.4575C110.716 97.3524 110.498 97.4009 110.392 97.5658C110.287 97.7307 110.336 97.9495 110.501 98.0546L111.919 98.9582C112.084 99.0633 112.303 99.0148 112.408 98.8499Z" fill="#E56441"/>
<path fill-rule="evenodd" clip-rule="evenodd" d="M112.974 97.1101C113.079 96.9453 113.03 96.7264 112.865 96.6214L111.447 95.7177C111.282 95.6127 111.063 95.6612 110.958 95.8261C110.853 95.991 110.902 96.2098 111.067 96.3148L112.485 97.2185C112.65 97.3235 112.869 97.275 112.974 97.1101Z" fill="#E56441"/>
<path fill-rule="evenodd" clip-rule="evenodd" d="M113.284 95.326C113.39 95.1611 113.341 94.9422 113.176 94.8372L111.758 93.9336C111.593 93.8285 111.374 93.877 111.269 94.0419C111.164 94.2068 111.213 94.4256 111.377 94.5307L112.796 95.4343C112.961 95.5393 113.179 95.4908 113.284 95.326Z" fill="#E56441"/>
<path fill-rule="evenodd" clip-rule="evenodd" d="M111.842 100.59C111.947 100.425 111.899 100.206 111.734 100.101L110.316 99.1972C110.151 99.0922 109.932 99.1407 109.827 99.3056C109.722 99.4704 109.77 99.6893 109.935 99.7943L111.353 100.698C111.518 100.803 111.737 100.755 111.842 100.59Z" fill="#E56441"/>
<path d="M149.55 222.763C149.975 217.524 147.603 213.264 146.364 211.789C144.098 216.887 138.93 214.562 135.921 213.913C131.39 218.019 125.405 218.592 122.823 219.754C119.283 221.347 121.407 222.763 122.823 222.763C137.549 222.763 141.821 221.819 142.116 221.347L143.178 222.763H149.55Z" fill="#8B4E18"/>
<path d="M173.268 222.763C173.693 217.524 171.154 218.397 169.915 216.922C167.649 222.019 162.127 219.872 159.118 219.223C154.586 223.329 150.372 218.946 147.79 220.108C144.25 221.701 145.125 222.763 146.541 222.763C161.267 222.763 165.539 221.819 165.834 221.347L166.896 222.763H173.268Z" fill="#784213"/>
<path d="M175.038 222.763C175.463 217.524 173.091 213.264 171.852 211.789C169.586 216.887 164.418 214.562 161.409 213.913C156.878 218.019 150.893 218.592 148.311 219.754C144.771 221.347 146.895 222.763 148.311 222.763C163.037 222.763 167.309 221.819 167.604 221.347L168.666 222.763H175.038Z" fill="#8B4E18"/>
</g>
</svg>
