<svg width="288" height="250" viewBox="0 0 288 250" fill="none" xmlns="http://www.w3.org/2000/svg">
<mask id="mask0_3156_3892" style="mask-type:alpha" maskUnits="userSpaceOnUse" x="0" y="0" width="288" height="250">
<path d="M287.75 0H0V250H287.75V0Z" fill="white"/>
</mask>
<g mask="url(#mask0_3156_3892)">
<path fill-rule="evenodd" clip-rule="evenodd" d="M153.757 62.9783C174.948 63.8975 198.579 47.1472 214.927 60.7147C231.486 74.4567 229.099 100.948 225.027 122.125C221.675 139.561 207.497 150.965 195.133 163.663C182.531 176.604 171.338 191.32 153.757 195.317C131.448 200.389 106.21 202.082 88.1535 187.985C68.6259 172.74 60.2092 146.958 60.005 122.125C59.7991 97.0874 65.944 68.4907 87.0611 55.1681C106.762 42.739 130.51 61.9699 153.757 62.9783Z" fill="#F2F2F2"/>
<path d="M104.062 210.01L108.687 147.862H177.194L187.311 210.01H104.062Z" fill="#C5CFD6"/>
<path d="M101.172 125.894C110.806 117.813 126.224 116.74 132.968 117.222L142.796 120.691L151.468 117.222C159.754 116.933 178.177 118.262 185.577 125.894C193.767 136.492 205.001 161.795 184.42 178.213H99.4375C84.4063 161.448 92.2108 133.409 101.172 125.894Z" fill="#C5CFD6"/>
<path d="M165.053 53.629C156.671 33.1059 143.759 40.1396 140.194 40.9105C111.057 28.8856 105.315 76.561 106.086 101.902L134.413 112.597H148.577C174.939 85.0786 170.743 67.5584 165.053 53.629Z" fill="#AFAFAF"/>
<path d="M134.702 116.066L137.015 105.37L145.108 102.48L150.022 116.066L142.362 121.269L134.702 116.066Z" fill="#FFCCB3"/>
<path d="M134.702 116.066L137.015 105.37L148.577 103.636L143.663 111.441L134.702 116.066Z" fill="#FBB8A6"/>
<path d="M161.356 83.6432C161.356 97.3725 148.348 108.213 141.411 108.213C134.473 108.213 121.466 97.3725 121.466 83.6432C121.466 69.914 130.395 58.7842 141.411 58.7842C152.426 58.7842 161.356 69.914 161.356 83.6432Z" fill="#FFCCB3"/>
<path d="M141.061 59.6993L117.937 114.331C113.986 93.4227 113.081 51.6057 141.061 51.6057C168.348 51.6057 166.306 83.7875 161.874 99.8784C164.417 82.3036 149.059 65.7695 141.061 59.6993Z" fill="#AFAFAF"/>
<path fill-rule="evenodd" clip-rule="evenodd" d="M118.163 112.314L140.483 59.5819V52.1898C133.946 52.3296 129.094 54.8444 125.52 58.851C121.824 62.9945 119.468 68.7667 118.09 75.2479C115.499 87.4421 116.408 101.966 118.163 112.314ZM141.64 52.1887V59.4135C145.676 62.5231 151.43 68.1433 155.908 75.1637C159.426 80.6802 162.181 87.1007 162.659 93.8697C164.036 86.5096 164.6 77.5586 162.799 69.8392C161.643 64.8841 159.523 60.4779 156.058 57.3122C152.704 54.2469 148.041 52.299 141.64 52.1887ZM141.301 60.6157L117.724 116.318L117.369 114.439C115.386 103.944 114.16 88.1785 116.959 75.0075C118.359 68.4209 120.776 62.432 124.657 58.0814C128.555 53.7112 133.902 51.0275 141.062 51.0275C148.005 51.0275 153.14 53.0785 156.838 56.4587C160.527 59.8298 162.735 64.4748 163.925 69.5765C166.302 79.7644 164.66 91.9388 162.431 100.032L161.302 99.7955C162.546 91.199 159.416 82.8135 154.933 75.7854C150.671 69.1028 145.224 63.7074 141.301 60.6157Z" fill="#EEEEEE"/>
<path fill-rule="evenodd" clip-rule="evenodd" d="M144.059 137.487C138.066 133.848 121.584 127.213 113.236 137.487C113.236 137.487 95.2559 154.825 144.059 185.969C192.863 154.825 174.883 137.487 174.883 137.487C166.535 127.213 150.053 133.848 144.059 137.487Z" fill="#F4608A"/>
<path d="M134.124 113.464L142.507 118.956L150.89 113.464H154.069L150.022 123.581C148.77 122.521 145.513 120.864 142.507 122.714C140.426 121.326 136.051 122.714 134.124 123.581L131.234 113.464H134.124Z" fill="white"/>
<path fill-rule="evenodd" clip-rule="evenodd" d="M193.167 141.962C186.509 159.237 187.453 202.282 156.209 178.654L164.146 165.029C178.772 150.898 183.709 158.212 189.887 141.925L192.268 141.264L193.167 141.962Z" fill="#B0B9C0"/>
<path d="M176.281 163.984L180.875 175.023C180.875 175.023 165.632 186.885 125.163 168.963C122.042 166.929 119.748 165.954 114.179 163.182L111 158.846C125.742 164.917 166.477 165.963 176.281 163.984Z" fill="#FFCCB3"/>
<path fill-rule="evenodd" clip-rule="evenodd" d="M193.166 141.017C197.824 169.595 187.234 198.055 160.994 180.639C163.057 174.585 164.214 171.191 166.277 165.137C180.777 151.106 183.894 157.259 189.867 140.931L192.252 140.3L193.166 141.017Z" fill="#C5CFD6"/>
<path fill-rule="evenodd" clip-rule="evenodd" d="M94.0036 141.962C100.661 159.237 99.7172 202.282 130.961 178.654L123.025 165.029C108.398 150.898 103.461 158.212 97.2837 141.925L94.9027 141.264L94.0036 141.962Z" fill="#B0B9C0"/>
<path d="M145.686 176.19C151.005 174.571 159.658 167.614 163.319 164.338L133.835 171.565C135.916 173.415 142.603 175.419 145.686 176.19Z" fill="#FFB692"/>
<path d="M103.034 165.26L98.4396 176.299C98.4396 176.299 113.683 188.161 154.152 170.24C157.273 168.205 159.567 167.23 165.136 164.459L169.678 160.292C154.936 166.362 112.838 167.24 103.034 165.26Z" fill="#FFCCB3"/>
<path fill-rule="evenodd" clip-rule="evenodd" d="M94.0043 140.439C89.3461 169.017 99.9363 197.477 126.176 180.061C124.113 174.007 122.957 170.613 120.894 164.559C106.393 150.528 103.276 156.681 97.3031 140.353L94.9186 139.722L94.0043 140.439Z" fill="#C5CFD6"/>
</g>
</svg>
