<svg width="288" height="250" viewBox="0 0 288 250" fill="none" xmlns="http://www.w3.org/2000/svg">
<mask id="mask0_3157_7558" style="mask-type:alpha" maskUnits="userSpaceOnUse" x="0" y="0" width="288" height="250">
<path d="M287.75 0H0V250H287.75V0Z" fill="white"/>
</mask>
<g mask="url(#mask0_3157_7558)">
<path fill-rule="evenodd" clip-rule="evenodd" d="M145.447 59.5983C164.494 59.8721 186.132 55.0376 199.707 68.4278C213.322 81.859 211.76 103.784 209.515 122.796C207.568 139.272 199.575 153.581 188.221 165.656C176.421 178.206 162.618 192.075 145.447 190.934C128.737 189.823 119.564 172.458 107.996 160.324C96.8733 148.657 83.6036 138.626 80.4899 122.796C76.6987 103.522 75.5425 80.5299 89.6086 66.8448C103.607 53.2258 125.938 59.3178 145.447 59.5983Z" fill="#F2F2F2"/>
<path opacity="0.1" d="M144 204.83C177.137 204.83 204 201.502 204 197.397C204 193.29 177.137 189.965 144 189.965C110.863 189.965 84 193.29 84 197.397C84 201.502 110.863 204.83 144 204.83Z" fill="#5661AE"/>
<path d="M110.015 131.701C111.195 130.683 112.045 128.432 112.322 127.434C114.382 127.258 120.588 128.773 118.044 130.566C114.904 132.78 116.647 135.929 117.089 137.033L108.365 134.609C108.417 133.614 109.486 132.256 110.015 131.701Z" fill="#FFCCB3"/>
<path d="M189.417 200.64C194.135 199.424 187.784 196.766 183.865 194.019H175.769C172.201 198.343 183.381 200.235 189.417 200.64Z" fill="#4A3730"/>
<path d="M152.513 200.776C147.649 199.83 152.649 196.902 156.568 194.154H166.162C169.73 198.478 158.55 200.37 152.513 200.776Z" fill="#4A3730"/>
<path d="M123.636 200.505C126.185 199.86 122.754 198.45 120.637 196.992H116.263C114.336 199.286 120.376 200.29 123.636 200.505Z" fill="#010101"/>
<path d="M103.746 200.505C101.092 200.003 103.82 198.45 105.958 196.992H111.192C113.139 199.286 107.039 200.29 103.746 200.505Z" fill="#010101"/>
<path d="M155.622 195.165L158.189 124.509L182.513 122.127L186.162 192.784C182.486 197.335 175.712 196.268 172.784 195.165L171.297 156.132L169.135 140.386L167.243 195.165C165.081 197.494 158.595 196.136 155.622 195.165Z" fill="#474463"/>
<path d="M105.351 197.437L106.76 162.494L120.106 161.316L122.108 196.259C120.091 198.51 116.374 197.982 114.768 197.437L113.952 178.133L112.766 170.346L111.728 197.437C110.542 198.589 106.983 197.917 105.351 197.437Z" fill="#575988"/>
<path d="M172.102 76.3138C170.921 75.2954 170.071 73.0443 169.794 72.0461C167.735 71.8703 161.528 73.3853 164.072 75.1787C167.212 77.3919 165.469 80.5411 165.028 81.6455L173.751 79.2216C173.699 78.2262 172.63 76.8683 172.102 76.3138Z" fill="#FFCCB3"/>
<path d="M171.162 73.4782C173.078 78.386 168.459 79.1539 168.459 79.1539L165.028 81.6455C166.185 78.2384 166.119 76.9942 164.911 74.6651L171.162 73.4782Z" fill="#FBB8A6"/>
<path d="M155.17 68.131C155.278 67.2234 156.589 66.872 157.232 66.8097C158.069 62.7197 162.772 63.7144 165.019 64.7231C167.066 66.459 167.487 74.7514 167.441 78.6806C177.196 76.0668 176.927 66.4012 175.573 61.8951C173.816 55.3372 166.691 54.9767 163.348 55.6162C153.101 58.3618 152.199 63.8751 153.028 66.2886C152.809 65.4688 153.888 65.3992 154.456 65.4669C153.927 67.102 154.711 67.9243 155.17 68.131Z" fill="#020202"/>
<path d="M166.759 68.7595C168.885 73.3279 169.467 78.8642 166.386 79.6898C163.305 80.5153 161.593 79.8083 158.158 76.0063C153.058 68.0379 156.128 64.455 159.793 62.75C163.459 61.045 164.634 64.191 166.759 68.7595Z" fill="#FFCCB3"/>
<circle cx="166.225" cy="67.5848" r="2.22771" transform="rotate(-15 166.225 67.5848)" fill="#FFCCB3"/>
<path d="M164.058 66.4662C161.025 67.2789 157.102 66.7347 155.645 65.8071C154.92 63.102 156.945 61.2335 157.923 61.1913C162.164 60.2165 165.904 62.2893 166.461 64.776C165.157 66.0559 165.486 66.465 165.802 67.6462L166.145 68.9242C164.975 68.2491 164.346 67.5392 164.058 66.4662Z" fill="#020202"/>
<path d="M116.907 119.148C116.329 118.635 115.302 119.149 114.861 119.47C112.035 117.353 109.618 120.623 108.763 122.523C108.443 124.77 112.833 130.252 115.068 132.712C107.43 136.536 102.173 130.27 100.499 126.66C97.9284 121.525 102.233 117.296 104.707 115.823C112.73 111.807 116.397 114.788 117.227 116.78C116.906 116.138 116.184 116.701 115.863 117.062C117.115 117.8 117.081 118.76 116.907 119.148Z" fill="#020202"/>
<path d="M109.929 126.053C111.15 130.136 113.89 133.965 116.302 132.758C118.714 131.55 119.4 130.141 119.439 125.808C118.191 117.903 114.237 117.361 110.961 118.34C107.685 119.32 108.708 121.97 109.929 126.053Z" fill="#FFCCB3"/>
<circle cx="1.88425" cy="1.88425" r="1.88425" transform="matrix(-0.894205 0.447658 0.447658 0.894205 110.448 122.482)" fill="#FFCCB3"/>
<path d="M110.35 123.086C112.724 121.897 114.901 119.349 115.302 117.945C114.241 115.827 111.911 115.782 111.269 116.304C108.039 118.069 106.837 121.48 107.881 123.366C109.425 123.443 109.446 123.887 109.909 124.811L110.41 125.812C110.771 124.729 110.77 123.926 110.35 123.086Z" fill="#020202"/>
<path d="M174.405 77.8025L164.811 80.2349C165.135 80.7755 164.946 81.5412 164.811 81.8565C157.351 82.6133 154.946 86.316 154.676 87.1268C152.514 101.505 142.874 111.496 138.324 115.64L144.541 121.181C148.649 118.911 154.811 107.802 157.378 102.532L156.297 125.1C168.622 131.586 180.622 127.802 185.081 125.1L179.811 95.5052C181.973 97.343 184.766 102.938 185.892 105.505C185.892 108.424 184 110.775 183.054 111.586L185.081 122.397L191.027 113.343C193.73 110.208 193.414 104.379 192.919 101.857L183.459 82.262C182.595 80.5322 176.568 79.7845 174.946 79.9647L174.405 77.8025Z" fill="#5661AE"/>
<ellipse cx="138.42" cy="118.448" rx="4.40033" ry="3.07134" transform="rotate(159.816 138.42 118.448)" fill="#FFCCB3"/>
<ellipse cx="140.342" cy="116.915" rx="2.21447" ry="1.36275" transform="rotate(-25.6236 140.342 116.915)" fill="#FBB8A6"/>
<ellipse cx="140.683" cy="116.574" rx="2.21447" ry="1.36275" transform="rotate(-25.6236 140.683 116.574)" fill="#FFCCB3"/>
<ellipse cx="135.031" cy="124.574" rx="4.40033" ry="3.07134" transform="rotate(-40.344 135.031 124.574)" fill="#FFCCB3"/>
<path d="M107.378 134.154V135.1C107.811 137.046 104.676 137.802 103.324 137.938L99 153.748C98.5676 154.721 98.8198 155.775 99 156.181L103.865 163.208L103.73 159.154L102.919 154.965L105.757 141.451C103.827 150.64 103.955 160.82 104.405 164.694C111 166.532 118.099 165.46 122.649 164.694C123.622 157.775 120.396 148.208 119.27 142.667C119.378 141.802 129.27 137.667 129.946 136.992L135.757 127.532C134.243 126.019 132.423 126.451 131.703 126.857L126.027 134.154C125.27 135.127 123.459 135.55 122.649 135.64C121.027 135.64 118.82 136.541 117.919 136.992C117.162 136.992 116.973 135.73 116.973 135.1V134.154H107.378Z" fill="#C5CFD6"/>
</g>
</svg>
