<svg width="289" height="250" viewBox="0 0 289 250" fill="none" xmlns="http://www.w3.org/2000/svg">
<mask id="mask0_3160_335" style="mask-type:alpha" maskUnits="userSpaceOnUse" x="0" y="0" width="289" height="250">
<path d="M288.25 0H0.5V250H288.25V0Z" fill="white"/>
</mask>
<g mask="url(#mask0_3160_335)">
<path fill-rule="evenodd" clip-rule="evenodd" d="M35 80.5786H94.0213V204.523H35V80.5786ZM40.5915 109.779H48.6681V127.485H40.5915V109.779ZM48.6681 133.077H40.5915V150.783H48.6681V133.077ZM54.2596 109.779H62.3362V127.485H54.2596V109.779ZM62.3362 133.077H54.2596V150.783H62.3362V133.077Z" fill="#D9D9D9"/>
<path fill-rule="evenodd" clip-rule="evenodd" d="M254 80.5786H194.979V204.523H254V80.5786ZM248.409 109.779H240.332V127.485H248.409V109.779ZM240.332 133.077H248.409V150.783H240.332V133.077ZM234.74 109.779H226.664V127.485H234.74V109.779ZM226.664 133.077H234.74V150.783H226.664V133.077Z" fill="#D9D9D9"/>
<path fill-rule="evenodd" clip-rule="evenodd" d="M101.052 51.7783C99.6128 54.4457 99.6128 57.976 99.6128 65.0366L99.6128 149.54H116.387H121.979H167.021H172.613H189.387V155.132H172.613V204.523L189.387 204.523V65.0366C189.387 57.976 189.387 54.4457 187.948 51.7783C186.836 49.7178 185.146 48.0276 183.086 46.9158C180.418 45.4766 176.888 45.4766 169.827 45.4766H119.173C112.112 45.4766 108.582 45.4766 105.915 46.9158C103.854 48.0276 102.164 49.7178 101.052 51.7783ZM167.021 204.523V155.132H121.979V204.523H167.021ZM99.6128 155.132H116.387V204.523L99.6128 204.523L99.6128 155.132ZM106.136 109.779H114.213V127.485H106.136V109.779ZM141.549 109.779H133.472V127.485H141.549V109.779ZM160.808 109.779H168.885V127.485H160.808V109.779ZM127.881 109.779H119.804V127.485H127.881V109.779ZM147.14 109.779H155.217V127.485H147.14V109.779ZM182.553 109.779H174.477V127.485H182.553V109.779Z" fill="#D9D9D9"/>
<path fill-rule="evenodd" clip-rule="evenodd" d="M144.436 140.952C139.227 137.789 124.902 132.022 117.647 140.952C117.647 140.952 102.019 156.021 144.436 183.089C186.853 156.021 171.226 140.952 171.226 140.952C163.97 132.022 149.645 137.789 144.436 140.952Z" fill="#F4608A"/>
<path fill-rule="evenodd" clip-rule="evenodd" d="M137.598 143.466L145.053 167.693L149.4 153.491L155.188 159.619H159.239V160.852H154.656L149.959 155.879L145.056 171.897L137.708 148.019L134.432 160.852H126.244V159.619H133.474L137.598 143.466Z" fill="white" stroke="white"/>
<circle cx="160.472" cy="160.235" r="2.46693" fill="white"/>
<rect x="131.609" y="67.3318" width="25.783" height="6.30251" fill="#F4608A"/>
<rect x="147.651" y="57.5916" width="25.783" height="6.30251" transform="rotate(90 147.651 57.5916)" fill="#F4608A"/>
</g>
</svg>
