<svg width="289" height="250" viewBox="0 0 289 250" fill="none" xmlns="http://www.w3.org/2000/svg">
<mask id="mask0_3158_111" style="mask-type:alpha" maskUnits="userSpaceOnUse" x="0" y="0" width="289" height="250">
<path d="M288.5 0H0.75V250H288.5V0Z" fill="white"/>
</mask>
<g mask="url(#mask0_3158_111)">
<path d="M17 109.267L141.991 31L275 109.267H248.115V224H141.991H48.6015V109.267H17Z" fill="#F0F0F0"/>
<path opacity="0.1" d="M144.577 228.279C175.271 228.279 200.154 225.195 200.154 221.39C200.154 217.584 175.271 214.502 144.577 214.502C113.883 214.502 89 217.584 89 221.39C89 225.195 113.883 228.279 144.577 228.279Z" fill="#5661AE"/>
<path opacity="0.1" d="M185.594 223.895C190.696 223.895 194.831 223.405 194.831 222.799C194.831 222.194 190.696 221.704 185.594 221.704C180.493 221.704 176.358 222.194 176.358 222.799C176.358 223.405 180.493 223.895 185.594 223.895Z" fill="#434D98"/>
<path d="M175.803 212.31L171.862 211.67L171.006 215.17C171.006 215.17 163.923 219.727 161.02 219.95C159.899 220.036 159.974 222.622 159.974 222.622L172.665 222.799L174.959 220.627L175.803 222.786L177.786 222.686C177.786 222.686 178.108 219.075 177.61 216.85C177.193 214.988 175.803 212.31 175.803 212.31Z" fill="black"/>
<path d="M171.818 211.997C170.941 208.365 169.678 181.156 169.156 168.005L175.888 169.414C173.759 173.422 174.27 184.235 174.792 189.14C176.045 194.4 175.888 206.674 175.732 212.467C173.853 213.344 172.082 213.093 171.818 211.997Z" fill="#FFCCB3"/>
<path d="M183.559 214.659C179.019 210.745 173.122 181.312 172.6 168.162L180.898 169.414C178.706 176.616 179.959 188.514 180.741 190.862C183.246 195.089 184.186 208.24 185.908 213.406C185.125 214.345 184.389 215.374 183.559 214.659Z" fill="#FFCCB3"/>
<path d="M184.576 209.566L181.073 210.522L181.684 213.741C181.684 213.741 177.54 220.184 175.221 221.463C174.326 221.957 175.364 224.069 175.364 224.069L185.934 219.43L187.014 216.768L188.526 218.236L190.13 217.405C190.13 217.405 189.035 214.296 187.784 212.642C186.737 211.258 184.576 209.566 184.576 209.566Z" fill="black"/>
<path d="M167.434 164.404C162.174 163.277 161.485 174.267 164.929 203.7L192.17 200.725C190.135 180.53 183.403 177.712 184.968 163.778C180.689 158.042 168.44 165.166 167.434 164.404Z" fill="white" fill-opacity="0.5"/>
<path d="M148.804 134.033C157.947 119.88 164.825 99.8517 167.121 91.6064L169.782 90.6671L172.131 92.8589C170.753 112.397 156.945 131.371 150.213 138.416L147.395 135.598L148.804 134.033Z" fill="#FFCCB3"/>
<path d="M172.131 84.4048C168.373 85.4067 166.756 89.6755 165.869 91.9194C173.227 90.667 175.418 97.8685 164.46 119.943C162.08 130.213 160.233 151.254 162.738 174.424H185.751C185.751 147.183 190.918 140.295 184.342 128.084C183.403 126.518 180.689 121.769 180.898 119.943C186.409 94.5182 177.506 85.9182 172.131 84.4048Z" fill="white"/>
<path d="M107.317 218.572C106.064 215.441 107.213 212.467 107.943 211.371L113.736 210.275C114.111 212.529 116.293 215.807 117.336 217.163L107.317 218.572Z" fill="#AAAAAA"/>
<path d="M104.387 222.643C104.011 218.009 106.109 214.241 107.205 212.937C109.209 217.445 113.78 215.389 116.442 214.815C120.449 218.447 125.742 218.954 128.027 219.982C131.158 221.39 129.279 222.643 128.027 222.643C115.001 222.643 111.223 221.808 110.962 221.39L110.023 222.643H104.387Z" fill="#7F4716"/>
<path d="M107.787 139.043C114.205 132.311 109.77 131.319 111.7 129.336L117.023 122.761L127.513 129.336C129.141 153.508 125.373 167.901 123.286 172.076C123.787 174.455 123.077 177.346 122.659 178.494C119.153 190.894 117.858 206.831 117.65 213.25H106.378C103.247 182.565 105.908 179.277 107.787 173.485C108.413 157.954 109.091 151.567 108.569 150.471C104.937 148.217 107.787 141.704 107.787 139.043Z" fill="#1D1C27"/>
<path d="M108.882 218.572C107.63 215.441 108.778 212.467 109.509 211.371L115.301 210.275C115.677 212.529 117.858 215.807 118.902 217.163L108.882 218.572Z" fill="white"/>
<path d="M105.952 222.643C105.577 218.009 107.675 214.241 108.77 212.937C110.774 217.445 115.346 215.389 118.007 214.815C122.015 218.447 127.308 218.954 129.592 219.982C132.723 221.39 130.845 222.643 129.592 222.643C116.567 222.643 112.789 221.808 112.528 221.39L111.588 222.643H105.952Z" fill="#8B4E18"/>
<path d="M103.716 139.982C103.716 134.095 107.578 128.658 109.509 126.675L118.276 122.761L128.765 129.336C130.393 153.508 126.625 167.901 124.538 172.076C125.039 174.455 124.329 177.346 123.912 178.494C120.405 190.894 119.111 206.831 118.902 213.25H107.63C104.499 182.565 107.16 179.277 109.039 173.485C109.665 157.954 108.778 151.88 108.256 150.784C104.624 148.53 103.716 142.643 103.716 139.982Z" fill="#2F2E41"/>
<path d="M148.334 140.451C145.454 139.7 142.959 136.277 142.072 134.659L143.168 131.841C143.669 133.97 147.656 134.92 149.587 135.129L148.334 140.451Z" fill="#FFCCB3"/>
<path d="M112.64 76.8903L114.205 75.6378L125.477 84.2483C126.354 85.7513 126.364 88.11 126.26 89.1016C125.383 86.3462 116.815 79.8126 112.64 76.8903Z" fill="#EBEBEB"/>
<ellipse cx="4.60822" cy="3.38073" rx="4.60822" ry="3.38073" transform="matrix(0.712373 0.701801 0.697963 -0.716134 142.183 136.737)" fill="#FFCCB3"/>
<path fill-rule="evenodd" clip-rule="evenodd" d="M144.416 138.778C144.479 138.957 144.687 139.021 144.879 138.921L146.535 138.062C146.727 137.962 146.832 137.736 146.768 137.558C146.705 137.379 146.497 137.315 146.305 137.415L144.649 138.274C144.457 138.374 144.352 138.6 144.416 138.778Z" fill="#E56441"/>
<path fill-rule="evenodd" clip-rule="evenodd" d="M145.442 140.162C145.506 140.341 145.713 140.404 145.906 140.305L147.561 139.446C147.754 139.346 147.858 139.12 147.795 138.941C147.731 138.763 147.524 138.699 147.331 138.799L145.676 139.658C145.483 139.758 145.379 139.984 145.442 140.162Z" fill="#E56441"/>
<path fill-rule="evenodd" clip-rule="evenodd" d="M146.671 141.333C146.735 141.512 146.942 141.576 147.135 141.476L148.791 140.617C148.983 140.517 149.088 140.291 149.024 140.112C148.96 139.934 148.753 139.87 148.56 139.97L146.905 140.829C146.712 140.929 146.608 141.155 146.671 141.333Z" fill="#E56441"/>
<path fill-rule="evenodd" clip-rule="evenodd" d="M143.389 137.395C143.453 137.573 143.66 137.637 143.853 137.537L145.508 136.678C145.701 136.578 145.805 136.352 145.742 136.174C145.678 135.995 145.471 135.932 145.278 136.031L143.623 136.89C143.43 136.99 143.326 137.216 143.389 137.395Z" fill="#E56441"/>
<path fill-rule="evenodd" clip-rule="evenodd" d="M153.368 25.8587C156.241 24.7096 163.896 23.0171 166.784 28.0944C166.784 28.0944 173.352 36.9452 149.852 46.9605L153.368 25.8587ZM153.368 25.8587C151.024 23.8401 144.331 19.7566 139.952 23.6229C139.952 23.6229 130.869 29.8652 149.851 46.9605L153.368 25.8587Z" fill="#F4608A"/>
<path d="M109.196 126.988C93.54 95.301 104.656 82.5261 112.953 76.577L123.912 84.8744C132.053 93.1719 129.652 116.133 129.078 129.806C123.317 132.937 113.423 129.232 109.196 126.988Z" fill="white"/>
<path d="M128.922 127.614C120.781 115.246 117.473 106.074 113.892 94.5809L122.989 92.3892C124.991 108.397 124.021 116.55 130.644 122.604C129.548 124.013 128.922 125.892 128.922 127.614Z" fill="#EBEBEB"/>
<path d="M141.603 137.947C128.327 130.557 117.389 105.331 113.579 93.6416L123.755 91.4498C125.884 107.732 140.507 124.118 147.552 130.275C144.421 131.277 142.281 135.807 141.603 137.947Z" fill="white"/>
<path d="M115.575 75.3541L116.521 71.425L123.61 75.3541C123.232 77.3186 123.452 80.7565 123.61 82.2299L115.575 75.3541Z" fill="#FFCCB3"/>
<path d="M131.909 60.0317C131.455 59.0924 129.909 59.1999 129.193 59.371C126.772 55.268 122.066 58.0867 120.016 60.0089C118.451 62.6415 117.022 68.7242 118.529 72.9473C108.594 68.8817 107.887 65.3243 107.577 60.8733C107.04 53.1448 114.595 50.1119 118.44 49.5616C130.516 48.7223 133.535 54.3369 133.535 57.2491C133.468 56.283 132.277 56.6084 131.69 56.8919C132.867 58.4604 132.326 59.6386 131.909 60.0317Z" fill="#020202"/>
<path d="M118.021 64.816C117.423 70.5343 117.513 75.4882 124.094 76.6664C124.094 76.6664 129.201 77.521 131.606 69.6386C134.153 59.1476 129.51 56.4204 124.922 55.9406C120.335 55.4608 118.619 59.0977 118.021 64.816Z" fill="#FFCCB3"/>
<circle cx="2.54205" cy="2.54205" r="2.54205" transform="matrix(-0.997593 0.0693342 0.0693342 0.997593 121.06 60.7504)" fill="#FFCCB3"/>
<path d="M121.699 61.5334C125.274 61.285 129.306 59.2418 130.533 57.7004C130.312 54.5124 127.433 53.2476 126.363 53.5647C121.424 54.0865 118.207 57.8606 118.529 60.7505C119.545 61.7669 120.158 62.0618 120.255 63.4539L120.36 64.96C121.371 63.7976 121.787 62.798 121.699 61.5334Z" fill="#020202"/>
<path d="M174.739 82.0689L173.911 78.6244L167.696 82.0689C168.027 83.7912 167.834 86.8052 167.696 88.0969L174.739 82.0689Z" fill="#FFCCB3"/>
<path d="M160.42 68.6359C160.817 67.8125 162.173 67.9067 162.8 68.0567C164.923 64.4597 169.049 66.9308 170.846 68.6159C172.218 70.9239 173.831 83.8273 169.988 87.3958C173.571 86.8766 180.779 86.564 182.478 85.6116C185.27 84.0464 181.751 83.1411 181.751 69.3738C181.751 62.582 175.598 59.9394 172.228 59.457C161.641 58.7212 158.994 63.6434 158.994 66.1965C159.053 65.3495 160.097 65.6348 160.611 65.8834C159.579 67.2584 160.054 68.2914 160.42 68.6359Z" fill="#020202"/>
<path d="M172.595 72.8302C173.12 77.8433 173.041 82.1864 167.271 83.2193C167.271 83.2193 162.794 83.9685 160.685 77.0581C158.453 67.8608 162.522 65.4699 166.545 65.0493C170.567 64.6287 172.071 67.8171 172.595 72.8302Z" fill="#FFCCB3"/>
<circle cx="172" cy="71.6437" r="2.22858" transform="rotate(3.97574 172 71.6437)" fill="#FFCCB3"/>
<path d="M169.37 69.9524C166.237 69.7346 162.702 67.9435 161.626 66.5921C161.82 63.7972 164.344 62.6884 165.282 62.9664C169.611 63.4239 172.432 66.7326 172.15 69.2661C171.259 70.1571 170.721 70.4157 170.636 71.6361L170.545 72.9565C169.658 71.9374 169.293 71.0611 169.37 69.9524Z" fill="#020202"/>
<path d="M113.423 75.7943L114.832 74.2288L124.068 80.1779C125.196 80.9293 126.104 84.8745 126.417 86.7532C125.289 84.3735 117.284 78.4557 113.423 75.7943Z" fill="white"/>
<ellipse cx="125.943" cy="84.9299" rx="0.62622" ry="2.17931" transform="rotate(-8.34449 125.943 84.9299)" fill="#CF0911"/>
<ellipse cx="126.748" cy="84.639" rx="0.62622" ry="1.25244" transform="rotate(-8.34449 126.748 84.639)" fill="#8D0C11"/>
<path d="M169.156 91.2932C163.896 90.166 160.18 100.53 158.98 105.853L171.191 108.827C174.197 98.3069 171.087 92.7544 169.156 91.2932Z" fill="white" fill-opacity="0.5"/>
</g>
</svg>
