<svg width="64" height="64" viewBox="0 0 64 64" fill="none" xmlns="http://www.w3.org/2000/svg">
<g clip-path="url(#clip0_2924_16281)">
<path d="M16.8096 45.645H24.255C24.255 45.645 30.4502 39.5448 40.8839 42.0686C40.885 42.0686 30.2379 36.2496 16.8096 45.645Z" fill="#008DCF"/>
<path d="M33.2988 19C33.2988 19 38.7263 31.2004 57.9997 36.8099H44.9888C44.9888 36.8099 44.9888 42.1382 56.0511 47.6776C56.0511 47.6776 42.7618 45.3634 39.0743 34.9864H45.3363C45.3363 34.9864 34.6208 27.9742 33.2988 19Z" fill="#E23C1B"/>
<path d="M27.3867 26.2229C27.3867 26.2229 29.0567 27.9058 29.7516 28.326C29.7516 28.326 32.7442 25.452 33.2312 22.2969C33.2312 22.2969 30.5872 26.6436 27.3867 26.2229Z" fill="#EC6716"/>
<path d="M25.0205 25.1709C25.0205 25.1709 29.8209 31.9741 35.5964 33.3042H29.543C29.543 33.3042 25.6465 31.13 25.0205 25.1709Z" fill="#F6A807"/>
<path d="M24.0469 24.2598C24.0469 24.2598 20.3599 33.6579 7 38.914L18.3414 37.2311C18.3414 37.2311 17.6454 42.3498 9.85515 45.6456C9.85515 45.6456 20.1531 44.8041 23.075 36.5302L34.2769 34.9874H18.69C18.69 34.9874 23.6294 30.2921 24.0469 24.2598Z" fill="#9DC63A"/>
</g>
<defs>
<clipPath id="clip0_2924_16281">
<rect width="51" height="27" fill="white" transform="translate(7 19)"/>
</clipPath>
</defs>
</svg>
