<svg width="335" height="332" viewBox="0 0 335 332" fill="none" xmlns="http://www.w3.org/2000/svg" opacity="0.2">
<rect width="126.221" height="153.077" rx="10" transform="matrix(1 0 0.241922 -0.970296 54.3458 263.607)" fill="#F7D38C"/>
<rect width="120.85" height="147.706" rx="9" transform="matrix(1 0 0.241922 -0.970296 57.6811 261.001)" fill="#FFA800"/>
<rect width="126.221" height="153.077" rx="10" transform="matrix(1 0 0.241922 -0.970296 48.6054 257.867)" fill="#F7D38C"/>
<rect width="120.85" height="147.706" rx="9" transform="matrix(1 0 0.241922 -0.970296 51.9407 255.261)" fill="url(#paint0_linear_3180_19353)"/>
<rect width="110.835" height="92.1127" rx="18" transform="matrix(1 0 -0.275637 0.961262 38.3897 143.786)" fill="#F7D38C"/>
<rect width="12.731" height="50.9241" transform="matrix(1 0 -0.275637 0.961262 41.0829 176.18)" fill="white"/>
<rect width="12.731" height="41.1886" transform="matrix(1 0 -0.275637 0.961262 57.1216 185.538)" fill="white"/>
<rect width="12.731" height="14.2288" transform="matrix(1 0 -0.275637 0.961262 68.4125 211.454)" fill="white"/>
<rect width="12.731" height="32.9509" transform="matrix(1 0 -0.275637 0.961262 92.2951 193.457)" fill="white"/>
<rect width="12.731" height="50.9241" transform="matrix(1 0 -0.275637 0.961262 115.971 176.18)" fill="white"/>
<rect width="36.6953" height="4.4933" rx="2.24665" transform="matrix(1 0 -0.275637 0.961262 46.061 150.984)" fill="white"/>
<rect width="45.6819" height="4.4933" rx="2.24665" transform="matrix(1 0 -0.275637 0.961262 43.1711 161.063)" fill="white" fill-opacity="0.6"/>
<rect width="163.257" height="170.745" rx="18" transform="matrix(1 0 -0.241922 0.970296 159.559 0)" fill="white"/>
<path d="M203.262 144.601C191.58 144.601 181.061 141.091 173.15 134.552C165.239 128.013 160.324 118.768 159.08 108.086C157.837 97.4045 160.327 85.811 166.208 74.8993C172.088 63.9876 181.071 54.2934 191.921 47.1491L205.428 70.1426C200.436 73.4299 196.302 77.8905 193.597 82.9113C190.891 87.9321 189.745 93.2666 190.317 98.1815C190.889 103.097 193.151 107.351 196.791 110.359C200.431 113.368 205.271 114.983 210.646 114.983L203.262 144.601Z" fill="#F7D38C"/>
<path d="M194.942 45.2551C204.587 39.5046 215.113 35.9995 225.42 35.106C235.728 34.2124 245.438 35.9633 253.537 40.1756C261.635 44.3879 267.825 50.9071 271.459 59.0519C275.093 67.1967 276.038 76.6682 274.194 86.4767L243.285 88.2384C244.133 83.7252 243.698 79.3671 242.026 75.6194C240.354 71.8718 237.506 68.8721 233.779 66.9339C230.053 64.9957 225.585 64.1901 220.842 64.6012C216.099 65.0123 211.256 66.6252 206.818 69.2711L194.942 45.2551Z" fill="#F7C8AD"/>
<path d="M273.481 89.7399C269.996 103.715 261.147 117.164 248.738 127.341C236.329 137.517 221.296 143.655 206.708 144.501L212.232 114.937C218.944 114.548 225.861 111.724 231.571 107.041C237.281 102.358 241.353 96.1704 242.956 89.7399H273.481Z" fill="#F7BB45"/>
<circle cx="3.03982" cy="3.03982" r="3.03982" transform="matrix(1 0 -0.241922 0.970296 214.636 86.7903)" fill="#FFA800"/>
<path d="M153.58 23.9791C155.091 17.919 155.846 14.8889 157.228 12.4223C160.367 6.81858 165.979 2.43395 172.176 0.743922C174.903 0 178.026 0 184.272 0H298.102C304.348 0 307.471 0 309.827 0.743922C315.181 2.43395 318.607 6.81858 318.951 12.4223C319.103 14.8889 318.348 17.919 316.837 23.9791V23.9791H153.58V23.9791Z" fill="#F7BB45"/>
<circle cx="5.24219" cy="5.24219" r="5.24219" transform="matrix(1 0 -0.241922 0.970296 167.301 7.99302)" fill="white"/>
<circle cx="5.24219" cy="5.24219" r="5.24219" transform="matrix(1 0 -0.241922 0.970296 180.781 7.99302)" fill="white"/>
<rect width="129.939" height="78.0826" rx="18" transform="matrix(1 0 -0.207912 0.978148 99.3344 217.925)" fill="#F7D38C"/>
<rect width="73.3142" height="3.5763" rx="1.78815" transform="matrix(1 0 -0.207912 0.978148 101.158 242.995)" fill="white"/>
<rect width="37.5512" height="3.5763" rx="1.78815" transform="matrix(1 0 -0.207912 0.978148 179.241 242.995)" fill="white"/>
<rect width="73.3142" height="3.5763" rx="1.78815" transform="matrix(1 0 -0.207912 0.978148 98.4318 255.822)" fill="white"/>
<rect width="45.8959" height="3.5763" rx="1.78815" transform="matrix(1 0 -0.207912 0.978148 95.7054 268.648)" fill="white"/>
<rect width="64.9695" height="3.5763" rx="1.78815" transform="matrix(1 0 -0.207912 0.978148 146.37 268.648)" fill="white"/>
<rect width="33" height="6" rx="3" transform="matrix(1 0 -0.207912 0.978148 92.979 281.475)" fill="white"/>
<rect width="82" height="6" rx="3" transform="matrix(1 0 -0.207912 0.978148 133.979 281.475)" fill="white"/>
<rect width="22" height="6" rx="3" transform="matrix(1 0 -0.207912 0.978148 223.979 281.475)" fill="white"/>
<path d="M95.2449 237.165C95.5672 235.648 95.7284 234.89 95.9122 234.25C98.4144 225.537 106.971 218.608 116.014 217.972C116.678 217.925 117.454 217.925 119.004 217.925H209.604C211.154 217.925 211.929 217.925 212.574 217.972C221.347 218.608 226.958 225.537 225.756 234.25C225.667 234.89 225.506 235.648 225.184 237.165V237.165H95.2449V237.165Z" fill="#F7BB45"/>
<circle cx="4.17235" cy="4.17235" r="4.17235" transform="matrix(1 0 -0.207912 0.978148 105.72 224.339)" fill="white"/>
<circle cx="4.17235" cy="4.17235" r="4.17235" transform="matrix(1 0 -0.207912 0.978148 116.449 224.339)" fill="white"/>
<path d="M99.923 109.477C98.9387 112.91 96.8724 116.259 94.0082 119.063C91.144 121.867 87.6226 123.989 83.9278 125.137C80.2331 126.285 76.5465 126.402 73.3748 125.474C70.203 124.545 67.7018 122.616 66.2151 119.951L82.6376 109.477L99.923 109.477Z" fill="#F7D38C"/>
<path d="M65.8331 119.202C64.7132 116.789 64.4222 113.952 64.9904 110.988C65.5587 108.025 66.9654 105.043 69.0636 102.354C71.1617 99.6656 73.8743 97.369 76.9179 95.7043C79.9615 94.0396 83.2243 93.068 86.3655 92.891L82.6376 109.477L65.8331 119.202Z" fill="#F7BB45"/>
<path d="M96.2215 95.6769C98.0349 97.1108 99.3343 99.0219 100.017 101.26C100.7 103.497 100.748 106 100.157 108.571L82.6376 109.477L96.2215 95.6769Z" fill="#E9C785"/>
<path d="M87.4021 92.8616C90.5037 92.8616 93.3181 93.6638 95.5503 95.1841L82.6376 109.477L87.4021 92.8616Z" fill="#F7C8AD"/>
<path d="M107.095 20.9687C107.066 24.1477 105.834 30.5055 101.134 30.5055C103.121 30.4595 107.095 32.3023 107.095 40.0424C107.066 36.8634 108.218 30.5055 113.055 30.5055C111.068 30.5516 107.095 28.7088 107.095 20.9687Z" stroke="#F7C8AD" stroke-width="2" stroke-linejoin="round"/>
<path fill-rule="evenodd" clip-rule="evenodd" d="M24.6412 106.464C24.6412 105.749 25.2334 105.169 25.9639 105.169H34.0473C34.7779 105.169 35.3701 105.749 35.3701 106.464C35.3701 107.179 34.7779 107.759 34.0473 107.759H25.9639C25.2334 107.759 24.6412 107.179 24.6412 106.464Z" fill="#C5CFD6"/>
<path fill-rule="evenodd" clip-rule="evenodd" d="M30.0052 111.828C29.29 111.828 28.7103 111.236 28.7103 110.505L28.7103 102.422C28.7103 101.692 29.29 101.099 30.0052 101.099C30.7203 101.099 31.3 101.692 31.3 102.422L31.3 110.505C31.3 111.236 30.7203 111.828 30.0052 111.828Z" fill="#C5CFD6"/>
<path d="M309.966 64.404C309.904 71.1439 307.272 84.6238 297.235 84.6238C301.478 84.5262 309.966 88.4334 309.966 104.844C309.904 98.1038 312.364 84.6238 322.697 84.6238C318.453 84.7215 309.966 80.8143 309.966 64.404Z" stroke="#CFCFCF" stroke-width="2" stroke-linejoin="round"/>
<path fill-rule="evenodd" clip-rule="evenodd" d="M249.306 197.828C249.306 197.113 249.899 196.533 250.629 196.533H258.712C259.443 196.533 260.035 197.113 260.035 197.828C260.035 198.543 259.443 199.123 258.712 199.123H250.629C249.899 199.123 249.306 198.543 249.306 197.828Z" fill="#F7C8AD"/>
<path fill-rule="evenodd" clip-rule="evenodd" d="M254.671 203.192C253.956 203.192 253.376 202.6 253.376 201.869L253.376 193.786C253.376 193.055 253.956 192.463 254.671 192.463C255.386 192.463 255.966 193.055 255.966 193.786L255.966 201.869C255.966 202.6 255.386 203.192 254.671 203.192Z" fill="#F7C8AD"/>
<path d="M30.6017 276.338C30.5729 279.517 29.3405 285.875 24.6412 285.875C26.628 285.829 30.6017 287.672 30.6017 295.412C30.5729 292.233 31.7247 285.875 36.5622 285.875C34.5753 285.921 30.6017 284.078 30.6017 276.338Z" stroke="#F7BB45" stroke-width="2" stroke-linejoin="round"/>
<path fill-rule="evenodd" clip-rule="evenodd" d="M122.745 326.636C122.745 325.921 123.337 325.341 124.068 325.341H132.151C132.882 325.341 133.474 325.921 133.474 326.636C133.474 327.351 132.882 327.931 132.151 327.931H124.068C123.337 327.931 122.745 327.351 122.745 326.636Z" fill="#F7D38C"/>
<path fill-rule="evenodd" clip-rule="evenodd" d="M128.11 332C127.394 332 126.815 331.408 126.815 330.677L126.815 322.594C126.815 321.863 127.394 321.271 128.11 321.271C128.825 321.271 129.404 321.863 129.404 322.594L129.404 330.677C129.404 331.408 128.825 332 128.11 332Z" fill="#F7D38C"/>
<defs>
<linearGradient id="paint0_linear_3180_19353" x1="60.425" y1="147.706" x2="60.425" y2="0" gradientUnits="userSpaceOnUse">
<stop stop-color="white"/>
<stop offset="1" stop-color="#CEDFFF"/>
</linearGradient>
</defs>
</svg>
