<svg width="264" height="264" viewBox="0 0 264 264" fill="none" xmlns="http://www.w3.org/2000/svg">
<mask id="path-1-outside-1_2945_16271" maskUnits="userSpaceOnUse" x="-4.50429" y="-6.0145" width="268.229" height="165.657" fill="black">
<rect fill="white" x="-4.50429" y="-6.0145" width="268.229" height="165.657"/>
<path d="M12.6387 138.47C10.0549 138.618 7.83077 136.644 7.77961 134.056C7.47445 118.621 10.0391 103.249 15.3573 88.7273C21.2132 72.7371 30.2832 58.1163 42.0079 45.7668C53.7326 33.4174 67.8633 23.6012 83.5283 16.9239C99.1932 10.2466 116.06 6.84974 133.089 6.94291C150.117 7.03608 166.946 10.6173 182.537 17.4656C198.128 24.3139 212.15 34.2841 223.739 46.7611C235.328 59.2381 244.238 73.9573 249.918 90.0106C255.077 104.59 257.473 119.989 256.999 135.42C256.92 138.007 254.674 139.957 252.092 139.78C249.51 139.603 247.57 137.367 247.642 134.78C248.033 120.627 245.814 106.509 241.083 93.1371C235.829 78.2908 227.59 64.6783 216.872 53.1394C206.155 41.6005 193.186 32.38 178.768 26.0466C164.349 19.7132 148.786 16.4012 133.037 16.3151C117.289 16.2289 101.69 19.3703 87.2033 25.5456C72.7162 31.7209 59.648 40.799 48.8048 52.2199C37.9617 63.6408 29.5736 77.1623 24.158 91.9502C19.2802 105.27 16.9071 119.363 17.1436 133.519C17.1869 136.106 15.2225 138.322 12.6387 138.47Z"/>
</mask>
<path d="M12.6387 138.47C10.0549 138.618 7.83077 136.644 7.77961 134.056C7.47445 118.621 10.0391 103.249 15.3573 88.7273C21.2132 72.7371 30.2832 58.1163 42.0079 45.7668C53.7326 33.4174 67.8633 23.6012 83.5283 16.9239C99.1932 10.2466 116.06 6.84974 133.089 6.94291C150.117 7.03608 166.946 10.6173 182.537 17.4656C198.128 24.3139 212.15 34.2841 223.739 46.7611C235.328 59.2381 244.238 73.9573 249.918 90.0106C255.077 104.59 257.473 119.989 256.999 135.42C256.92 138.007 254.674 139.957 252.092 139.78C249.51 139.603 247.57 137.367 247.642 134.78C248.033 120.627 245.814 106.509 241.083 93.1371C235.829 78.2908 227.59 64.6783 216.872 53.1394C206.155 41.6005 193.186 32.38 178.768 26.0466C164.349 19.7132 148.786 16.4012 133.037 16.3151C117.289 16.2289 101.69 19.3703 87.2033 25.5456C72.7162 31.7209 59.648 40.799 48.8048 52.2199C37.9617 63.6408 29.5736 77.1623 24.158 91.9502C19.2802 105.27 16.9071 119.363 17.1436 133.519C17.1869 136.106 15.2225 138.322 12.6387 138.47Z" fill="#EEEEEE"/>
<path d="M12.6387 138.47C10.0549 138.618 7.83077 136.644 7.77961 134.056C7.47445 118.621 10.0391 103.249 15.3573 88.7273C21.2132 72.7371 30.2832 58.1163 42.0079 45.7668C53.7326 33.4174 67.8633 23.6012 83.5283 16.9239C99.1932 10.2466 116.06 6.84974 133.089 6.94291C150.117 7.03608 166.946 10.6173 182.537 17.4656C198.128 24.3139 212.15 34.2841 223.739 46.7611C235.328 59.2381 244.238 73.9573 249.918 90.0106C255.077 104.59 257.473 119.989 256.999 135.42C256.92 138.007 254.674 139.957 252.092 139.78C249.51 139.603 247.57 137.367 247.642 134.78C248.033 120.627 245.814 106.509 241.083 93.1371C235.829 78.2908 227.59 64.6783 216.872 53.1394C206.155 41.6005 193.186 32.38 178.768 26.0466C164.349 19.7132 148.786 16.4012 133.037 16.3151C117.289 16.2289 101.69 19.3703 87.2033 25.5456C72.7162 31.7209 59.648 40.799 48.8048 52.2199C37.9617 63.6408 29.5736 77.1623 24.158 91.9502C19.2802 105.27 16.9071 119.363 17.1436 133.519C17.1869 136.106 15.2225 138.322 12.6387 138.47Z" stroke="#EEEEEE" stroke-width="10" mask="url(#path-1-outside-1_2945_16271)"/>
<mask id="path-2-outside-2_2945_16271" maskUnits="userSpaceOnUse" x="-4.50429" y="-3.20537" width="218.45" height="147.873" fill="black">
<rect fill="white" x="-4.50429" y="-3.20537" width="218.45" height="147.873"/>
<path d="M12.6387 138.47C10.0549 138.618 7.83076 136.644 7.77959 134.056C7.34674 112.168 12.6871 90.5206 23.3012 71.3101C34.6717 50.7305 51.6307 33.7864 72.2203 22.434C92.8098 11.0816 116.19 5.78383 139.662 7.15239C161.573 8.4299 182.729 15.4676 201.008 27.5163C203.169 28.9406 203.652 31.8755 202.147 33.9813C200.643 36.0871 197.721 36.5658 195.555 35.148C178.718 24.1235 159.262 17.6834 139.117 16.5088C117.41 15.2431 95.7871 20.1425 76.7456 30.6414C57.7041 41.1402 42.0202 56.8104 31.5046 75.8426C21.7455 93.5056 16.8072 113.396 17.1436 133.518C17.1869 136.106 15.2225 138.322 12.6387 138.47Z"/>
</mask>
<path d="M12.6387 138.47C10.0549 138.618 7.83076 136.644 7.77959 134.056C7.34674 112.168 12.6871 90.5206 23.3012 71.3101C34.6717 50.7305 51.6307 33.7864 72.2203 22.434C92.8098 11.0816 116.19 5.78383 139.662 7.15239C161.573 8.4299 182.729 15.4676 201.008 27.5163C203.169 28.9406 203.652 31.8755 202.147 33.9813C200.643 36.0871 197.721 36.5658 195.555 35.148C178.718 24.1235 159.262 17.6834 139.117 16.5088C117.41 15.2431 95.7871 20.1425 76.7456 30.6414C57.7041 41.1402 42.0202 56.8104 31.5046 75.8426C21.7455 93.5056 16.8072 113.396 17.1436 133.518C17.1869 136.106 15.2225 138.322 12.6387 138.47Z" fill="#FFA800"/>
<path d="M12.6387 138.47C10.0549 138.618 7.83076 136.644 7.77959 134.056C7.34674 112.168 12.6871 90.5206 23.3012 71.3101C34.6717 50.7305 51.6307 33.7864 72.2203 22.434C92.8098 11.0816 116.19 5.78383 139.662 7.15239C161.573 8.4299 182.729 15.4676 201.008 27.5163C203.169 28.9406 203.652 31.8755 202.147 33.9813C200.643 36.0871 197.721 36.5658 195.555 35.148C178.718 24.1235 159.262 17.6834 139.117 16.5088C117.41 15.2431 95.7871 20.1425 76.7456 30.6414C57.7041 41.1402 42.0202 56.8104 31.5046 75.8426C21.7455 93.5056 16.8072 113.396 17.1436 133.518C17.1869 136.106 15.2225 138.322 12.6387 138.47Z" stroke="#FFA800" stroke-width="10" mask="url(#path-2-outside-2_2945_16271)"/>
</svg>
