<svg width="1629" height="430" viewBox="0 0 1629 430" fill="none" xmlns="http://www.w3.org/2000/svg">
<g clip-path="url(#clip0_3208_370)">
<mask id="mask0_3208_370" style="mask-type:luminance" maskUnits="userSpaceOnUse" x="0" y="0" width="1629" height="430">
<path d="M1629 0H0V430H1629V0Z" fill="white"/>
</mask>
<g mask="url(#mask0_3208_370)">
<g opacity="0.3">
<g opacity="0.2">
<path d="M175.164 277.954C177.508 277.954 179.591 280.297 179.591 282.641V290.192C179.591 292.795 177.508 294.878 175.164 294.878H45.4963C43.1533 294.878 41.0703 292.795 41.0703 290.192V282.641C41.0703 280.297 43.1533 277.954 45.4963 277.954H175.164Z" fill="#36558F"/>
<path fill-rule="evenodd" clip-rule="evenodd" d="M37 263.1V150.324C37.0847 140.32 43.582 136.704 54.7048 133.859C74.8313 129.86 92.5021 127.909 110.231 128.003V137.524C94.662 137.485 79.2145 140.824 67.5106 147.451C77.1733 173.701 77.1733 173.701 84.4084 187.646H110.167C110.188 187.646 110.21 187.646 110.231 187.646V214.885C110.084 214.89 109.937 214.893 109.79 214.893C98.6003 214.893 90.1445 214.893 77.2327 190.483C73.9349 184.247 71.8265 180.261 69.9051 176.186C66.5722 169.115 63.8049 161.779 56.3712 141.97C48.9239 144.422 44.6946 147.928 44.6946 155.678V164.653C51.006 181.227 65.485 209.311 86.4253 223.029C92.6344 227.098 89.4681 235.235 83.3659 238.286L44.6946 254.725V257.699C44.6946 258.774 45.5657 259.646 46.6413 259.646H61.6148C72.2305 251.694 88.4674 246.423 108.772 246.423C109.261 246.423 109.747 246.425 110.231 246.428V266.911H94.8606H87.7724H40.8925C38.7696 266.911 37.0438 265.213 37 263.1ZM44.6946 236.07C50.8648 235.362 62.9931 232.402 53.8492 216.927C49.0806 208.858 46.3006 202.112 44.6946 196.26V236.07ZM71.1403 237.269C75.6344 237.269 79.2768 233.626 79.2768 229.132C79.2768 224.638 75.6344 220.995 71.1403 220.995C66.6462 220.995 63.0038 224.638 63.0038 229.132C63.0038 233.626 66.6462 237.269 71.1403 237.269ZM61.9866 218.961C64.7958 218.961 67.0726 216.684 67.0726 213.875C67.0726 211.067 64.7958 208.79 61.9866 208.79C59.1784 208.79 56.9017 211.067 56.9017 213.875C56.9017 216.684 59.1784 218.961 61.9866 218.961ZM61.9866 216.926C63.6716 216.926 65.0382 215.561 65.0382 213.876C65.0382 212.19 63.6716 210.824 61.9866 210.824C60.3017 210.824 58.9351 212.19 58.9351 213.876C58.9351 215.561 60.3017 216.926 61.9866 216.926Z" fill="#36558F"/>
<path fill-rule="evenodd" clip-rule="evenodd" d="M183.464 150.524V263.018C183.464 265.168 181.72 266.912 179.57 266.912H132.69H125.601H110.233V246.429C110.716 246.425 111.202 246.424 111.691 246.424C131.994 246.424 148.231 251.695 158.848 259.646H173.821C174.897 259.646 175.768 258.774 175.768 257.699V254.724L137.098 238.285C130.996 235.235 127.829 227.097 134.038 223.03C154.978 209.311 169.456 181.231 175.768 164.655V155.679C175.768 147.928 171.538 144.422 164.091 141.971C156.657 161.779 153.89 169.116 150.557 176.186C148.635 180.261 146.527 184.248 143.229 190.483C130.317 214.893 121.862 214.893 110.672 214.893C110.526 214.893 110.38 214.89 110.233 214.885V187.646C110.253 187.646 110.274 187.646 110.295 187.646H136.053C143.289 173.702 143.289 173.702 152.951 147.453V147.452C141.247 140.824 125.801 137.486 110.233 137.524V128.004C110.644 128.002 111.057 128.001 111.47 128.001C128.784 128.001 146.1 129.953 165.758 133.859C176.954 136.723 183.464 140.368 183.464 150.524ZM175.768 236.069C169.597 235.361 157.472 232.4 166.615 216.927C171.382 208.86 174.162 202.116 175.768 196.264V236.069ZM149.323 237.268C144.829 237.268 141.187 233.626 141.187 229.132C141.187 224.638 144.829 220.995 149.323 220.995C153.818 220.995 157.461 224.638 157.461 229.132C157.461 233.626 153.818 237.268 149.323 237.268ZM158.477 218.961C155.668 218.961 153.391 216.684 153.391 213.876C153.391 211.067 155.668 208.79 158.477 208.79C161.285 208.79 163.563 211.067 163.563 213.876C163.563 216.684 161.285 218.961 158.477 218.961ZM158.477 216.927C156.792 216.927 155.426 215.56 155.426 213.875C155.426 212.19 156.792 210.824 158.477 210.824C160.162 210.824 161.529 212.19 161.529 213.875C161.529 215.56 160.162 216.927 158.477 216.927Z" fill="#36558F"/>
</g>
<g opacity="0.2">
<path d="M373.286 187C317.498 169.42 299.388 122.818 297.306 101.714C297.306 156.548 241.102 181.419 213 187H373.286Z" fill="#36558F"/>
<path fill-rule="evenodd" clip-rule="evenodd" d="M514.126 81.6534C513.908 106.445 494.256 157.567 415.123 183.677L445.849 176.907H641.143C599.779 167.583 518.021 141.108 514.21 83.2235C514.191 81.8326 514.145 80.4248 514.072 79C514.072 79.8916 514.09 80.7761 514.126 81.6534ZM507.302 161.804C507.823 160.242 525.008 144.098 533.862 144.098C537.16 143.23 547.194 145.556 560.942 161.804H507.302Z" fill="#36558F"/>
<rect x="527.571" y="148.857" width="14.5714" height="2.14286" fill="#36558F"/>
<rect x="522.429" y="153.143" width="24.8571" height="1.71429" fill="#36558F"/>
<rect x="517.286" y="157" width="35.1429" height="2.14286" fill="#36558F"/>
<path d="M460.591 157L341.882 163.769C358.543 178.765 378.675 183.902 386.658 184.597V191.366H267.429V212.714H463.714C461.632 205.633 453.475 195.531 449.657 191.366C442.993 184.702 417.025 191.767 406.443 191.366V183.555C416.682 180.952 444.971 172.1 460.591 157Z" fill="#36558F"/>
<path d="M263.229 252.992V192.659H246.579L230.969 258.193H236.692L230.969 281.078H226.286V292H253.863V286.799H275.197V292H284.042V286.799H309.018V292H320.465V286.799H371.978V292H384.466V286.799H415.165V292H426.092V286.799H473.962H539.523V292H552.532V286.799H580.109V292H624.857V278.477H619.134L593.117 184.857H580.109V278.477H490.092V184.857H469.799V212.943L464.076 219.705L455.23 278.477H243.457V252.992H263.229Z" fill="#36558F"/>
<path fill-rule="evenodd" clip-rule="evenodd" d="M492.72 184.719H577.087V275.335H492.72V184.719ZM506.781 202.946H500.532V209.196H506.781V202.946ZM519.28 202.946H525.529V209.196H519.28V202.946ZM542.194 202.946H535.945V209.196H542.194V202.946ZM554.693 202.946H560.942V209.196H554.693V202.946ZM506.781 211.279H500.532V217.528H506.781V211.279ZM519.28 211.279H525.529V217.528H519.28V211.279ZM542.194 211.279H535.945V217.528H542.194V211.279ZM554.693 211.279H560.942V217.528H554.693V211.279ZM515.114 202.946H508.864V209.196H515.114V202.946ZM527.612 202.946H533.862V209.196H527.612V202.946ZM550.527 202.946H544.277V209.196H550.527V202.946ZM563.026 202.946H569.275V209.196H563.026V202.946ZM515.114 211.279H508.864V217.528H515.114V211.279ZM527.612 211.279H533.862V217.528H527.612V211.279ZM550.527 211.279H544.277V217.528H550.527V211.279ZM563.026 211.279H569.275V217.528H563.026V211.279ZM513.03 261.274V230.027H500.532V261.274H513.03ZM556.776 230.027H569.275V261.274H556.776V230.027ZM554.693 230.027H515.114V261.274H554.693V230.027Z" fill="#36558F"/>
<rect x="277.714" y="234.143" width="24" height="35.5714" fill="#36558F"/>
<rect x="432" y="234.143" width="10.2857" height="35.5714" fill="#36558F"/>
<rect x="418.286" y="234.143" width="10.2857" height="35.5714" fill="#36558F"/>
<rect x="397.286" y="234.143" width="18" height="35.5714" fill="#36558F"/>
<rect x="360.857" y="234.143" width="12.4286" height="35.5714" fill="#36558F"/>
<rect x="378.857" y="234.143" width="12.4286" height="35.5714" fill="#36558F"/>
<rect x="343.286" y="234.143" width="12.4286" height="35.5714" fill="#36558F"/>
<rect x="327.428" y="234.143" width="12.8571" height="35.5714" fill="#36558F"/>
<rect x="305.571" y="234.143" width="12.8571" height="35.5714" fill="#36558F"/>
<path d="M462.428 214.857H267.857V217.584H314.679V220.857H317.801V217.584H349.535V220.857H353.177V217.584H393.236V220.857H396.878V217.584H433.295V220.857H437.457V217.584H462.428V214.857Z" fill="#36558F"/>
</g>
<path opacity="0.2" fill-rule="evenodd" clip-rule="evenodd" d="M1518.84 194.76C1518.74 195.845 1518.64 196.927 1518.53 198.006H1518.84V194.76ZM1511 217.705C1511.93 211.549 1512.75 205.316 1513.4 198.979H1512.08C1510.74 204.574 1509.05 210.774 1506.95 217.705H1511ZM1510.85 218.678H1506.65C1505.15 223.573 1503.44 228.827 1501.49 234.486H1508.13C1509.11 229.261 1510.02 223.997 1510.85 218.678ZM1515.9 218.678H1518.84V234.486H1513.22C1514.19 229.268 1515.09 224.004 1515.9 218.678ZM1518.84 217.705H1516.05C1516.98 211.555 1517.78 205.322 1518.43 198.979H1518.84V217.705ZM1520.05 218.678V234.486H1525.8C1524.82 229.268 1523.92 224.004 1523.11 218.678H1520.05ZM1522.96 217.705H1520.05V198.979H1520.58C1521.23 205.322 1522.04 211.555 1522.96 217.705ZM1528.17 218.678C1528.99 223.997 1529.9 229.261 1530.88 234.486H1537.52C1535.57 228.827 1533.86 223.573 1532.36 218.678H1528.17ZM1532.06 217.705H1528.02C1527.08 211.549 1526.27 205.316 1525.61 198.979H1526.94C1528.28 204.574 1529.96 210.774 1532.06 217.705ZM1507.95 235.459C1507.08 240.022 1506.17 244.558 1505.21 249.078H1496.27C1498.04 244.295 1499.67 239.761 1501.16 235.459H1507.95ZM1503.75 255.887C1504.17 253.944 1504.59 251.999 1505.01 250.051H1495.91C1495.2 251.957 1494.46 253.902 1493.7 255.887H1503.75ZM1503.53 256.86C1503.18 258.483 1502.82 260.104 1502.45 261.724H1491.45C1492.09 260.077 1492.72 258.456 1493.33 256.86H1503.53ZM1499.86 273.079C1500.66 269.617 1501.46 266.158 1502.23 262.697H1491.07C1489.27 267.311 1487.34 272.13 1485.28 277.167H1481.63L1481.64 277.146L1459.62 279.843C1462.44 277.114 1465.04 274.569 1467.45 272.182H1463C1459.97 275.246 1457.16 278.009 1454.76 280.329H1446C1481.23 248.485 1494.08 231.41 1504.51 216.226C1513.53 187.499 1514.51 172.596 1514.83 158H1517.26C1517.26 159.329 1517.25 160.693 1517.22 162.105L1519.45 160.554L1521.8 162.122C1521.77 160.704 1521.76 159.334 1521.76 158H1524.19C1524.5 172.373 1525.46 187.045 1534.1 214.923C1544.71 230.442 1557.26 247.571 1593.5 280.329H1584.74C1582.34 278.009 1579.53 275.246 1576.5 272.182H1572.05C1574.46 274.569 1577.06 277.114 1579.88 279.843L1557.35 277.084L1557.38 277.167H1553.74C1551.68 272.13 1549.75 267.311 1547.94 262.697H1536.78C1537.56 266.158 1538.35 269.617 1539.15 273.079L1534.28 274.203C1533.39 270.371 1532.52 266.538 1531.65 262.697H1525.26L1525.53 262.94V273.884H1519.45H1513.24V262.94L1513.52 262.697H1507.36C1506.5 266.538 1505.62 270.371 1504.74 274.203L1499.86 273.079ZM1545.68 256.86C1546.29 258.456 1546.92 260.077 1547.56 261.724H1536.56C1536.2 260.104 1535.84 258.483 1535.48 256.86H1545.68ZM1530.36 256.86C1530.71 258.484 1531.07 260.105 1531.44 261.724H1524.17L1520.05 258.015V256.86H1530.36ZM1518.84 258.005L1514.62 261.724H1507.58C1507.94 260.105 1508.3 258.484 1508.65 256.86H1518.84V258.005ZM1545.31 255.887C1544.55 253.902 1543.82 251.957 1543.11 250.051H1534.01C1534.42 251.999 1534.84 253.944 1535.27 255.887H1545.31ZM1530.15 255.887C1529.72 253.945 1529.31 252 1528.9 250.051H1520.05V255.887H1530.15ZM1518.84 255.887V250.051H1510.12C1509.71 252 1509.29 253.945 1508.87 255.887H1518.84ZM1537.85 235.459C1539.34 239.761 1540.97 244.295 1542.75 249.078H1533.8C1532.85 244.558 1531.93 240.022 1531.07 235.459H1537.85ZM1525.98 235.459C1526.84 240.029 1527.74 244.565 1528.69 249.078H1520.05V235.459H1525.98ZM1518.84 235.459V249.078H1510.32C1511.27 244.565 1512.18 240.029 1513.04 235.459H1518.84ZM1514.33 188.535C1514.1 191.72 1513.82 194.876 1513.5 198.006H1512.31C1513.1 194.636 1513.77 191.489 1514.33 188.535ZM1524.68 188.535C1525.24 191.489 1525.91 194.636 1526.71 198.006H1525.51C1525.19 194.876 1524.91 191.72 1524.68 188.535ZM1520.05 193.39C1520.19 194.935 1520.33 196.474 1520.48 198.006H1520.05V193.39ZM1575.54 271.209H1571.07C1568.16 268.311 1565.55 265.65 1563.2 263.183H1567.79C1570.46 265.995 1573.07 268.695 1575.54 271.209ZM1566.88 262.211C1564.57 259.759 1562.23 257.23 1559.92 254.671H1555.44C1557.43 256.988 1559.69 259.48 1562.28 262.211H1566.88ZM1559.04 253.699H1554.61C1552.08 250.703 1550 247.996 1548.25 245.43H1551.82C1554.14 248.174 1556.57 250.95 1559.04 253.699ZM1551 244.457C1548.92 241.979 1546.94 239.532 1545.1 237.161H1543.41C1544.59 239.57 1545.94 241.954 1547.6 244.457H1551ZM1544.35 236.188C1543.17 234.639 1542.05 233.125 1541.01 231.659C1541.62 233.207 1542.25 234.706 1542.94 236.188H1544.35ZM1468.43 271.209C1471.34 268.311 1473.95 265.65 1476.3 263.183H1471.71C1469.04 265.995 1466.43 268.695 1463.96 271.209H1468.43ZM1477.22 262.211H1472.62C1474.93 259.759 1477.27 257.23 1479.58 254.671H1484.06C1482.07 256.988 1479.81 259.48 1477.22 262.211ZM1484.89 253.699C1487.42 250.703 1489.5 247.996 1491.25 245.43H1487.68C1485.36 248.174 1482.93 250.95 1480.46 253.699H1484.89ZM1496.09 237.161C1494.91 239.57 1493.56 241.954 1491.9 244.457H1488.5C1490.58 241.979 1492.56 239.532 1494.4 237.161H1496.09ZM1496.56 236.188H1495.15C1496.33 234.639 1497.45 233.125 1498.49 231.659C1497.88 233.207 1497.25 234.706 1496.56 236.188ZM1538.53 227.986C1538.42 227.823 1538.32 227.662 1538.22 227.501L1538.29 227.712L1538.44 228.131L1538.53 227.986ZM1536.11 275.343H1503.52V276.316H1502.54H1496.22L1492.82 281.91H1547.05L1543.64 276.316H1537.08H1536.11V275.343Z" fill="#36558F"/>
<g opacity="0.2">
<path d="M781 126.091H813.048C816.135 139.981 833.111 140.495 847.001 148.212C882.497 171.876 867.262 232.507 854.203 238.753C830.539 250.07 824.709 275.449 824.88 287.624H781V126.091Z" fill="#36558F"/>
<path d="M1407.88 117.86H1352.28C1346.11 141.524 1326.05 134.322 1308.04 143.067C1272.03 170.332 1290.55 239.267 1302.38 244.926C1328.26 257.302 1331.36 275.449 1331.19 287.624H1407.88V117.86Z" fill="#36558F"/>
<path d="M1050.95 68.9884H920.602C920.602 85.4504 934.492 94.9294 944.266 97.2825C966.49 102.633 972.389 115.288 972.56 120.947C972.56 132.882 955.069 141.01 946.324 143.582C925.232 152.327 924.546 184.565 923.689 200.684C922.454 228.67 939.016 242.146 946.838 248.013C961.243 258.816 963.986 277.85 963.815 287.624H1002.59C998.887 256.346 1022.23 242.341 1035.61 239.426C1057.55 226.131 1053.56 198.21 1052.96 188.852C1051.04 158.763 1036.94 148.352 1021.62 142.854C1001.05 140.796 995.56 126.948 995.388 120.947C994.977 106.542 1012.71 99.1687 1021.62 97.2825C1043.85 92.3439 1050.43 76.362 1050.95 68.9884Z" fill="#36558F"/>
<path fill-rule="evenodd" clip-rule="evenodd" d="M874.998 99.5085L874.627 99.7676C870.626 102.569 860.252 108.096 848.628 109.079C844.917 109.62 839.436 111.135 835.041 113.776C830.608 116.439 828.45 119.452 828.39 122.858C828.519 124.42 830.36 130.748 841.119 132.33L841.178 132.338L841.236 132.348C855.718 134.762 880.335 151.248 880.347 193.964C880.435 202.51 879.05 215.675 874.517 227.808C870.033 239.81 861.935 252.113 847.779 256.46C845.535 257.255 836.948 263.158 835.338 281.451H951.443C951.649 273.997 948.642 261.502 933.798 251.606L933.735 251.564L933.673 251.52C925.426 245.725 912.024 227.369 912.015 196.085C911.927 187.03 913.414 173.159 918.287 160.646C923.126 148.22 931.918 135.722 947.232 132.404L947.25 132.4L947.268 132.397C949.947 131.833 954.027 130.418 957.272 128.198C960.566 125.944 961.915 123.675 961.915 121.461C961.915 120.391 959.906 111.201 941.156 107.451L941.063 107.433L940.97 107.411C935.353 106.107 927.185 102.747 920.296 96.7196C914.492 91.6415 909.459 84.5182 907.89 75.1617H886.435C886.046 77.6266 885.449 80.3738 884.587 83.168C882.939 88.5082 880.125 94.6664 875.326 99.1983L874.998 99.5085ZM880.862 68.9884H913.558C913.558 89.5659 932.764 99.1687 942.366 101.398C962.944 105.513 968.088 116.488 968.088 121.461C968.088 131.75 955.056 137.066 948.54 138.437C923.847 143.788 918.016 179.078 918.188 196.054C918.188 225.686 930.877 242.011 937.222 246.469C958.211 260.462 959 279.736 956.771 287.624H828.904C828.904 285.456 828.988 283.399 829.146 281.451C830.817 260.845 840.71 252.308 845.88 250.585C868.927 243.588 874.345 209.944 874.174 193.997C874.174 154.076 851.539 140.324 840.221 138.437C826.228 136.38 822.387 127.291 822.216 123.004C822.216 109.835 839.364 104.142 847.938 102.941C858.226 102.118 867.658 97.111 871.087 94.7103C878.495 87.7139 880.69 74.6472 880.862 68.9884Z" fill="#36558F"/>
<path fill-rule="evenodd" clip-rule="evenodd" d="M1045.47 99.5085L1045.1 99.7676C1040.79 102.786 1031.64 106.758 1019.92 108.94C1013.55 110.995 1010.4 112.426 1008.67 114.088C1007.48 115.222 1006.42 116.987 1006.56 121.861C1006.63 122.008 1006.8 122.331 1007.17 122.834C1007.91 123.831 1009.12 125.099 1010.82 126.409C1014.22 129.026 1019.12 131.47 1024.97 132.33L1025.03 132.338L1025.08 132.348C1032.95 135.057 1037.21 136.528 1047.68 146.06C1058.36 155.782 1065.99 172.139 1065.99 193.997C1065.99 206.817 1064.87 220.617 1057.52 231.09C1050.15 241.579 1045.06 247.967 1027.99 252.365C1024.53 253.73 1020.76 257.472 1017.94 263.78C1015.73 268.722 1014.31 274.818 1014.13 281.451H1136.96C1136.92 281.27 1136.88 281.084 1136.84 280.893C1136.22 278.18 1134.99 274.854 1133.04 271.233C1129.14 263.998 1122.57 255.948 1112.97 249.548L1112.91 249.506L1112.84 249.462C1112.52 249.233 1112.14 248.978 1111.73 248.696C1108.44 246.466 1102.58 242.497 1097.59 235.149C1091.91 226.793 1087.59 214.561 1087.58 196.086C1087.5 187.215 1088.42 174.3 1092.92 162.201C1097.45 150.028 1105.84 138.12 1120.9 132.663C1121.94 132.254 1123.5 131.747 1125.11 131.228C1125.85 130.988 1126.61 130.745 1127.32 130.507C1129.89 129.648 1132.69 128.643 1135.26 127.442C1137.89 126.215 1139.94 124.943 1141.25 123.694C1142.52 122.483 1142.63 121.773 1142.63 121.461C1142.63 119.609 1142.34 116.844 1140.44 114.184C1138.6 111.617 1134.62 108.252 1125.47 106.422L1125.38 106.404L1125.29 106.382C1114.96 103.986 1099.41 95.1848 1096.73 75.1617H1061.41C1061.24 75.6664 1061.06 76.1631 1060.87 76.6473C1059.91 79.1259 1058.6 81.7901 1057.09 84.4202C1054.1 89.6278 1050.06 95.1724 1045.8 99.1983L1045.47 99.5085ZM1056.48 68.9884H1102.5C1102.5 89.5659 1117.08 98.1398 1126.68 100.369C1147.26 104.485 1148.8 116.488 1148.8 121.461C1148.8 130.063 1134.42 134.709 1126.7 137.204C1125.18 137.693 1123.92 138.1 1123.08 138.437C1097.36 147.697 1093.59 179.078 1093.76 196.054C1093.76 228.983 1108.19 238.817 1115.18 243.576C1115.61 243.873 1116.02 244.15 1116.39 244.411C1137.38 258.404 1145.37 279.736 1143.14 287.624H1008.12C1006.58 268.076 1014.81 250.585 1026.13 246.469C1058.54 238.238 1059.82 218.175 1059.82 193.997C1059.82 154.076 1035.39 140.324 1024.07 138.437C1010.08 136.38 1000.58 126.777 1000.4 122.49C999.911 110.143 1005.55 107.057 1018.41 102.941C1029.73 100.884 1038.13 97.111 1041.56 94.7103C1048.97 87.7139 1056.31 74.6472 1056.48 68.9884Z" fill="#36558F"/>
<path d="M1224.19 68.9884H1109.05C1109.05 85.4504 1122.94 94.9294 1132.72 97.2825C1154.94 102.633 1155.7 115.288 1155.87 120.947C1155.87 132.882 1132.2 141.01 1123.46 143.582C1102.37 152.327 1101.68 184.565 1100.82 200.684C1099.59 228.67 1119.75 238.545 1127.57 244.411C1141.98 255.215 1150.9 277.85 1150.72 287.624H1194.35C1192.29 260.359 1198.47 255.42 1210.81 248.013C1231.39 235.666 1228.3 200.684 1228.3 188.852C1225.01 154.282 1221.1 145.64 1209.27 141.524C1191.78 135.44 1185.26 126.948 1185.09 120.947C1184.68 106.542 1191.26 99.8546 1198.98 97.2825C1221.2 92.3439 1223.67 76.362 1224.19 68.9884Z" fill="#36558F"/>
<path fill-rule="evenodd" clip-rule="evenodd" d="M1217.92 257.212L1217.8 257.292C1215.1 259.059 1207.73 267.462 1206.02 281.965H1319.51C1319.18 279.701 1318.6 277.142 1317.68 274.557C1315.86 269.444 1312.9 264.771 1308.39 261.814C1295.85 257.012 1276.68 237.656 1276.66 196.628C1276.48 187.037 1278.2 172.359 1284.05 159.009C1289.93 145.567 1300.41 132.671 1318.04 128.806L1318.41 128.723L1318.8 128.688C1323 128.307 1329.25 126.981 1334.24 124.437C1339.38 121.817 1341.48 118.892 1341.48 115.802V115.644L1341.49 115.486C1341.56 114.075 1340.93 110.9 1337.49 107.951C1334.06 105.015 1327.34 101.912 1314.73 101.912H1314.36L1314 101.869C1308.25 101.187 1299.69 98.9191 1292.37 94.1241C1286.31 90.1476 1280.73 84.1307 1278.86 75.6761H1237.8C1236.5 79.9867 1234.3 85.013 1230.99 89.7311C1226.16 96.6016 1218.73 103.127 1207.97 105.381C1206.08 105.783 1202.9 107.073 1200.3 109.502C1197.9 111.737 1195.98 114.912 1195.9 119.595C1196.17 121.19 1198.86 128.432 1212.18 131.9C1218.39 133.164 1225.11 138.74 1230.14 148.597C1235.31 158.737 1239.09 174.049 1239.11 196.415C1239.46 203.702 1238.9 215.141 1236.09 226.441C1233.31 237.643 1228.03 249.879 1218.04 257.126L1217.92 257.212ZM1232.93 196.569C1233.62 210.116 1230.88 240.193 1214.41 252.128C1209.97 255.04 1201.55 265.402 1199.81 281.965C1199.61 283.936 1199.49 285.995 1199.49 288.139H1326.05C1326.08 287.365 1326.09 286.471 1326.05 285.481C1326 284.41 1325.91 283.227 1325.75 281.965C1324.71 273.786 1320.96 262.273 1311.13 256.244C1301.7 252.985 1282.83 236.489 1282.83 196.569C1282.49 178.735 1289.32 141.421 1319.36 134.836C1328.79 133.979 1347.65 128.972 1347.65 115.802C1348 109.114 1341.89 95.7391 1314.73 95.7391C1304.61 94.5388 1284.38 87.611 1284.38 69.5028H1232.93C1231.56 77.9053 1224.39 95.6362 1206.7 99.3402C1201.04 100.541 1189.72 106.337 1189.72 119.918C1190.06 124.205 1194.76 133.807 1210.81 137.923C1218.19 139.295 1232.93 152.945 1232.93 196.569Z" fill="#36558F"/>
<path d="M1267.4 65.9015H1134.16L1223.16 40.1796C1239.62 35.2411 1247.51 39.8367 1249.39 42.7518L1267.4 65.9015Z" fill="#36558F"/>
</g>
</g>
<path d="M798.653 351C797.061 321.074 803.296 292.898 807.408 281.755L877.449 280.163C891.139 302.767 891.377 336.806 889.786 351H798.653Z" fill="#2E4168"/>
<path d="M810.99 351C809.398 321.073 817.224 291.306 821.337 280.163H880.633C894.323 302.767 894.561 336.806 892.969 351H810.99Z" fill="#3D537E"/>
<path d="M819.705 54.4545C795.828 62.0953 796.757 87.883 800.205 99.8218C810.712 73.0789 834.828 84.4341 845.573 93.4545C850.348 116.377 840.399 129.536 834.828 133.25H876.216C865.71 123.699 871.838 102.74 876.216 93.4545C879.081 74.6708 868.655 60.8218 857.114 54.4545C845.573 48.0871 827.267 51.8014 819.705 54.4545Z" fill="black"/>
<path d="M849.154 138.822C846.607 135.002 845.971 127.944 845.971 124.893C840.267 122.771 821.462 122.176 827.267 129.271C834.43 138.026 827.001 145.587 824.879 148.373H851.542C852.179 145.508 850.216 140.812 849.154 138.822Z" fill="#FFCCB3"/>
<path d="M845.175 127.679C841.593 141.608 826.869 148.373 826.869 148.373H824.879C830.848 139.618 831.644 136.036 830.052 128.475L845.175 127.679Z" fill="#FBB8A6"/>
<path d="M853.134 109.771C853.134 128.672 830.848 143.597 821.297 143.597C811.746 143.597 798.216 128.672 798.216 109.771C798.216 90.8691 810.51 75.5463 825.675 75.5463C840.84 75.5463 853.134 90.8691 853.134 109.771Z" fill="#FFCCB3"/>
<circle cx="857.512" cy="111.761" r="10.7449" fill="#FFCCB3"/>
<path d="M843.185 95.0465C835.226 92.8179 828.992 82.4444 826.869 77.5362C811.588 77.5362 801.267 99.5567 797.818 107.781C785.083 68.7812 808.165 58.0363 826.869 61.6179C851.702 57.1607 859.502 79.6587 860.298 91.4648C854.567 93.6934 855.788 106.057 854.726 110.169C848.359 107.304 842.788 97.6995 843.185 95.0465Z" fill="#020202"/>
<path d="M817.318 110.169C816.522 112.159 815.407 116.218 817.318 116.536" stroke="black" stroke-linecap="round"/>
<path d="M837.125 98.3519C835.297 97.2324 831.484 95.4506 830.848 97.2799" stroke="black" stroke-linecap="round"/>
<path d="M803.043 95.2212C804.991 94.3277 808.99 93.0139 809.403 94.906" stroke="black" stroke-linecap="round"/>
<path d="M826.073 120.516C826.073 122.31 825.36 124.031 824.091 125.299C822.823 126.568 821.102 127.281 819.308 127.281C817.513 127.281 815.792 126.568 814.524 125.299C813.255 124.031 812.542 122.31 812.542 120.516L819.308 120.516H826.073Z" fill="#E56441"/>
<ellipse cx="804.583" cy="107.383" rx="3.18367" ry="2.38776" fill="#FBB8A6"/>
<ellipse cx="833.236" cy="109.771" rx="4.77551" ry="2.38776" fill="#FBB8A6"/>
<circle cx="830.848" cy="103.404" r="2.38776" fill="black"/>
<circle cx="807.767" cy="101.812" r="2.38776" fill="#020202"/>
<path d="M782.776 204.625L781.842 221.06C781.842 221.06 766.959 252.943 740.279 194.579C733.56 179.883 722.643 181.982 722.643 181.982L733.981 166.447C731.881 172.745 735.24 173.165 742.798 179.463C764.632 195.419 772.096 201.876 782.776 204.625Z" fill="#FFCCB3"/>
<path d="M766.837 200.024L766.446 216.481C766.446 216.481 766.655 227.145 758.857 222.857C756.469 222.061 754.48 219.673 752.888 217.286L756.917 197.601C762.186 199.32 763.327 199.179 766.837 200.024Z" fill="#FFB692"/>
<path d="M758.334 192.899C812.919 207.175 806.621 172.325 819.637 151.331L838.952 167.706C838.952 244.545 803.682 262.6 753.295 231.529L758.334 192.899Z" fill="#B6BFC6"/>
<path fill-rule="evenodd" clip-rule="evenodd" d="M906.134 292.832H777.649C789.521 248.251 816.868 211.244 816.868 150.609L855.03 140.833C885.49 179.978 900.118 228.172 906.134 292.832Z" fill="#C5CFD6"/>
<path d="M854.908 195.839C860.282 182.738 859.946 184.082 861.206 173.585L878.421 172.325L890.178 215.153L852.388 228.59C850.373 211.122 852.248 203.537 854.908 195.839Z" fill="#B0B9C0"/>
<rect width="55.3954" height="67.1817" rx="10" transform="matrix(1 0 0.241922 0.970296 744.058 155.949)" fill="#D8D8D8"/>
<rect width="53.0382" height="64.8244" rx="9" transform="matrix(1 0 0.241922 0.970296 745.522 157.093)" fill="#DCDCDC"/>
<rect width="55.3954" height="67.1817" rx="10" transform="matrix(1 0 0.241922 0.970296 741.539 158.469)" fill="#D8D8D8"/>
<rect width="53.0382" height="64.8244" rx="9" transform="matrix(1 0 0.241922 0.970296 743.002 159.612)" fill="white"/>
<ellipse cx="774.776" cy="191.021" rx="5.57143" ry="5.57143" fill="#EEEEEE"/>
<path fill-rule="evenodd" clip-rule="evenodd" d="M859.106 142.093C877.581 178.623 950.222 241.186 863.725 256.722L853.228 223.551C852.046 178.766 871.637 181.642 854.067 147.362L856.587 142.513L859.106 142.093Z" fill="#B0B9C0"/>
<ellipse cx="784.499" cy="223.772" rx="15.9556" ry="9.65736" transform="rotate(-0.795294 784.499 223.772)" fill="#FFCCB3"/>
<ellipse cx="799.483" cy="225.651" rx="5.8784" ry="2.51931" transform="rotate(-7.2981 799.483 225.651)" fill="#FFCCB3"/>
<path d="M779.328 215.573L781.428 220.612" stroke="#E56441" stroke-width="2" stroke-linecap="round"/>
<path d="M785.207 214.733L787.306 219.772" stroke="#E56441" stroke-width="2" stroke-linecap="round"/>
<path d="M791.085 214.733L793.184 219.772" stroke="#E56441" stroke-width="2" stroke-linecap="round"/>
<path d="M773.45 216.413L775.549 221.452" stroke="#E56441" stroke-width="2" stroke-linecap="round"/>
<path d="M861.206 218.512L871.283 231.529C871.283 231.529 856.501 257.127 794.864 237.162C789.984 235.582 787.726 233.208 779.328 231.529L788.986 227.75C817.202 235.14 848.889 224.671 861.206 218.512Z" fill="#FFCCB3"/>
<path d="M863.196 217.286L873.273 230.302C873.273 230.302 881.429 232.773 872.674 234.365C867.5 235.559 866.379 237.582 863.196 238.776L853.97 221.663C859.143 219.673 859.939 218.845 863.196 217.286Z" fill="#FFB692"/>
<path d="M731.082 158.045C736.824 160.538 734.89 166.347 731.861 173.323C728.833 180.299 725.858 185.801 720.115 183.308C714.372 180.815 712.172 173.138 715.2 166.162C718.228 159.186 725.339 155.552 731.082 158.045Z" fill="#FFCCB3"/>
<ellipse cx="720.292" cy="156.586" rx="9.89975" ry="2.69506" transform="rotate(-129.669 720.292 156.586)" fill="#FFCCB3"/>
<path d="M715.876 168.497L722.05 170.211" stroke="#E56441" stroke-width="2" stroke-linecap="round"/>
<path d="M718.376 162.461L724.55 164.175" stroke="#E56441" stroke-width="2" stroke-linecap="round"/>
<path d="M728.411 159.03L731.628 160.744" stroke="#E56441" stroke-width="2" stroke-linecap="round"/>
<path d="M714.362 174.533L720.535 176.247" stroke="#E56441" stroke-width="2" stroke-linecap="round"/>
<path fill-rule="evenodd" clip-rule="evenodd" d="M857.427 140.414C910.626 175.684 940.984 235.728 873.802 252.523C867.063 240.061 863.284 233.074 856.544 220.612C855.362 175.827 869.957 179.962 852.388 145.683L854.907 140.834L857.427 140.414Z" fill="#C5CFD6"/>
<path d="M982.908 124.163C970.493 124.163 958.383 120.318 948.242 113.156C938.101 105.994 930.428 95.8671 926.276 84.167C922.124 72.4668 921.698 59.768 925.057 47.8159C928.415 35.8639 935.393 25.2454 945.031 17.42L965.48 42.6058C961.045 46.2064 957.834 51.0923 956.289 56.5918C954.744 62.0913 954.94 67.9344 956.85 73.318C958.76 78.7016 962.291 83.3613 966.957 86.6568C971.624 89.9522 977.196 91.7215 982.908 91.7215L982.908 124.163Z" fill="#F7D38C"/>
<path d="M947.74 15.3454C956.467 9.04667 966.726 5.20733 977.444 4.2286C988.162 3.24987 998.946 5.16767 1008.67 9.78161C1018.39 14.3956 1026.7 21.5363 1032.72 30.4576C1038.74 39.379 1042.25 49.7535 1042.89 60.4971L1010.51 62.4268C1010.21 57.4833 1008.6 52.7097 1005.83 48.6047C1003.06 44.4998 999.236 41.2141 994.762 39.0911C990.288 36.9681 985.326 36.0857 980.394 36.536C975.462 36.9863 970.742 38.7529 966.726 41.6512L947.74 15.3454Z" fill="#F7C8AD"/>
<path d="M1043 64.0715C1043 79.3793 1037.16 94.1101 1026.67 105.257C1016.17 116.404 1001.82 123.127 986.545 124.053L984.581 91.6708C991.612 91.2446 998.215 88.1512 1003.04 83.0222C1007.87 77.8931 1010.56 71.1151 1010.56 64.0715H1043Z" fill="#F7BB45"/>
<circle cx="982.908" cy="64.0714" r="3.23074" fill="#FFA800"/>
<path d="M933.959 130.531C933.959 135.299 932.482 139.951 929.731 143.846C926.98 147.741 923.091 150.689 918.596 152.283C914.102 153.878 909.225 154.042 904.634 152.752C900.043 151.462 895.964 148.781 892.959 145.079L910.878 130.531L933.959 130.531Z" fill="#F7D38C"/>
<path d="M892.162 144.039C889.742 140.687 888.268 136.746 887.892 132.63C887.516 128.513 888.252 124.37 890.025 120.635C891.797 116.901 894.54 113.71 897.966 111.398C901.393 109.085 905.378 107.736 909.505 107.49L910.878 130.531L892.162 144.039Z" fill="#F7BB45"/>
<path d="M923.732 111.36C926.703 113.352 929.17 116.006 930.939 119.115C932.707 122.223 933.73 125.7 933.925 129.271L910.878 130.531L923.732 111.36Z" fill="#E9C785"/>
<path d="M910.878 107.449C915.019 107.449 919.085 108.563 922.647 110.675L910.878 130.531L910.878 107.449Z" fill="#F7C8AD"/>
<rect x="536" y="8.755" width="173.51" height="104.265" rx="18" fill="#F7D38C"/>
<rect x="545.551" y="42.9795" width="97.898" height="4.77551" rx="2.38776" fill="white"/>
<rect x="649.816" y="42.9795" width="50.1429" height="4.77551" rx="2.38776" fill="white"/>
<rect x="545.551" y="60.4897" width="97.898" height="4.77551" rx="2.38776" fill="white"/>
<rect x="545.551" y="78" width="61.2857" height="4.77551" rx="2.38776" fill="white"/>
<rect x="613.204" y="78" width="86.7551" height="4.77551" rx="2.38776" fill="white"/>
<rect x="545.551" y="95.5103" width="33" height="6" rx="3" fill="white"/>
<rect x="586.551" y="95.5103" width="82" height="6" rx="3" fill="white"/>
<rect x="676.551" y="95.5103" width="22" height="6" rx="3" fill="white"/>
<path d="M536 35.0203C536 27.3225 536 23.4736 537.158 20.4032C538.984 15.561 542.806 11.7391 547.648 9.91294C550.719 8.755 554.567 8.755 562.265 8.755H683.245C690.943 8.755 694.792 8.755 697.862 9.91294C702.704 11.7391 706.526 15.561 708.352 20.4032C709.51 23.4736 709.51 27.3225 709.51 35.0203V35.0203H536V35.0203Z" fill="#F7BB45"/>
<circle cx="551.918" cy="23.0817" r="5.57143" fill="white"/>
<circle cx="566.245" cy="23.0817" r="5.57143" fill="white"/>
<path d="M1033.45 276.184V246.735H1062.1L1033.45 276.184Z" fill="#F7D38C"/>
<rect x="965" y="153.612" width="117.796" height="97.898" rx="18" fill="white"/>
<path fill-rule="evenodd" clip-rule="evenodd" d="M1023.91 200.793C1019.98 198.409 1009.2 194.073 1003.73 200.798C1003.73 200.798 991.959 212.151 1023.91 232.545V232.555C1023.91 232.554 1023.91 232.552 1023.91 232.55C1023.92 232.552 1023.92 232.554 1023.92 232.555V232.545C1055.87 212.151 1044.1 200.798 1044.1 200.798C1038.63 194.073 1027.85 198.409 1023.91 200.793Z" fill="#F4608A"/>
<path d="M965 179.877C965 172.18 965 168.331 966.158 165.26C967.984 160.418 971.806 156.596 976.648 154.77C979.719 153.612 983.568 153.612 991.265 153.612H1056.53C1064.23 153.612 1068.08 153.612 1071.15 154.77C1075.99 156.596 1079.81 160.418 1081.64 165.26C1082.8 168.331 1082.8 172.18 1082.8 179.877V179.877H965V179.877Z" fill="#F7BB45"/>
<circle cx="980.918" cy="167.939" r="5.57143" fill="white"/>
<circle cx="995.245" cy="167.939" r="5.57143" fill="white"/>
<path d="M914.459 294.776V236.102" stroke="#F7C8AD" stroke-width="2"/>
<path d="M935.204 286.183L893.715 244.694" stroke="#F7BB45" stroke-width="2" stroke-linecap="round"/>
<path d="M893.715 286.183L935.204 244.694" stroke="#F7C8AD" stroke-width="2" stroke-dasharray="6 6"/>
<path d="M885.122 265.439H943.797" stroke="#F7C8AD" stroke-width="2"/>
<circle cx="914.459" cy="236.102" r="2.8975" fill="#F7BB45"/>
<circle cx="885.122" cy="265.439" r="2.8975" fill="#F7BB45"/>
<circle cx="943.797" cy="265.439" r="2.8975" fill="#F7BB45"/>
<circle cx="914.459" cy="265.439" r="5.795" fill="#F7D38C"/>
<circle cx="914.459" cy="265.439" r="4.34625" fill="#F7BB45"/>
<circle cx="914.459" cy="294.776" r="2.8975" fill="#F7BB45"/>
<rect x="747.288" y="92.9006" width="18.363" height="8.10131" fill="#F7D38C"/>
<path fill-rule="evenodd" clip-rule="evenodd" d="M745.618 56.6651C748.353 53.9304 752.062 52.394 755.929 52.394V66.9764L755.929 81.5588L755.929 92.9006H747.288V78.7226C746.699 78.2897 746.141 77.8106 745.618 77.2877C742.883 74.553 741.347 70.8439 741.347 66.9764C741.347 63.1089 742.883 59.3998 745.618 56.6651Z" fill="#F7BB45"/>
<path fill-rule="evenodd" clip-rule="evenodd" d="M767.321 56.6651C764.586 53.9304 760.877 52.394 757.01 52.394V66.9764L757.01 81.5588L757.01 92.9006H765.651V78.7226C766.239 78.2897 766.798 77.8106 767.321 77.2877C770.056 74.553 771.592 70.8439 771.592 66.9764C771.592 63.1089 770.056 59.3998 767.321 56.6651Z" fill="#F7BB45"/>
<path d="M744.531 51.5982L741.347 48.4146" stroke="#F7BB45" stroke-width="2" stroke-linecap="round"/>
<path d="M768.408 51.5982L771.592 48.4146" stroke="#F7BB45" stroke-width="2" stroke-linecap="round"/>
<path d="M756.469 48.2779V43.7755" stroke="#F7BB45" stroke-width="2" stroke-linecap="round"/>
<rect x="633.898" y="129.735" width="127.347" height="23.0816" rx="11.5408" fill="white"/>
<path d="M753.021 142.45L752.811 138.926L752.773 137.598H754.177L754.138 138.926L753.938 142.45H753.021ZM753.47 144.991C752.973 144.991 752.601 144.599 752.601 144.074C752.601 143.549 752.973 143.167 753.47 143.167C753.976 143.167 754.349 143.549 754.349 144.074C754.349 144.599 753.976 144.991 753.47 144.991Z" fill="#F7BB45"/>
<path d="M748.133 144.991C747.178 144.991 746.557 144.322 746.557 143.405C746.557 142.269 747.483 141.667 749.632 141.428C749.603 140.903 749.384 140.511 748.725 140.511C748.228 140.511 747.741 140.722 747.254 141.018L746.748 140.082C747.378 139.7 748.133 139.384 748.983 139.384C750.339 139.384 751.036 140.187 751.036 141.744V144.857H749.89L749.785 144.294H749.747C749.279 144.695 748.744 144.991 748.133 144.991ZM748.591 143.892C748.992 143.892 749.288 143.711 749.632 143.377V142.297C748.324 142.46 747.894 142.813 747.894 143.3C747.894 143.711 748.18 143.892 748.591 143.892Z" fill="#F7BB45"/>
<path d="M745.042 144.991C743.771 144.991 743.284 144.188 743.284 142.994V140.616H742.539V139.575L743.37 139.518L743.523 138.066H744.688V139.518H746.016V140.616H744.688V142.994C744.688 143.606 744.946 143.892 745.414 143.892C745.596 143.892 745.796 143.825 745.949 143.768L746.178 144.79C745.892 144.886 745.519 144.991 745.042 144.991Z" fill="#F7BB45"/>
<path d="M738.992 144.991C738.037 144.991 737.416 144.322 737.416 143.405C737.416 142.269 738.343 141.667 740.492 141.428C740.463 140.903 740.243 140.511 739.584 140.511C739.088 140.511 738.6 140.722 738.113 141.018L737.607 140.082C738.237 139.7 738.992 139.384 739.842 139.384C741.198 139.384 741.896 140.187 741.896 141.744V144.857H740.749L740.644 144.294H740.606C740.138 144.695 739.603 144.991 738.992 144.991ZM739.45 143.892C739.852 143.892 740.148 143.711 740.492 143.377V142.297C739.183 142.46 738.753 142.813 738.753 143.3C738.753 143.711 739.04 143.892 739.45 143.892Z" fill="#F7BB45"/>
<path d="M730.98 144.857V137.789H732.919C735.077 137.789 736.405 138.907 736.405 141.295C736.405 143.673 735.077 144.857 732.995 144.857H730.98ZM732.394 143.721H732.823C734.151 143.721 734.963 143.014 734.963 141.295C734.963 139.575 734.151 138.916 732.823 138.916H732.394V143.721Z" fill="#F7BB45"/>
<path d="M722.583 144.857V139.518H723.719L723.834 140.225H723.863C724.321 139.766 724.875 139.384 725.601 139.384C726.747 139.384 727.253 140.187 727.253 141.524V144.857H725.849V141.705C725.849 140.865 725.611 140.588 725.095 140.588C724.655 140.588 724.378 140.798 723.987 141.18V144.857H722.583Z" fill="#F7BB45"/>
<path d="M719.364 144.991C717.864 144.991 716.699 143.959 716.699 142.192C716.699 140.454 717.921 139.384 719.182 139.384C720.663 139.384 721.417 140.454 721.417 141.935C721.417 142.202 721.388 142.45 721.36 142.584H718.055C718.179 143.463 718.752 143.912 719.545 143.912C719.975 143.912 720.357 143.778 720.748 143.539L721.216 144.408C720.691 144.771 720.023 144.991 719.364 144.991ZM718.036 141.648H720.223C720.223 140.922 719.898 140.464 719.211 140.464C718.647 140.464 718.151 140.865 718.036 141.648Z" fill="#F7BB45"/>
<path d="M710.887 146.911V139.518H712.023L712.138 140.072H712.166C712.606 139.68 713.16 139.384 713.733 139.384C715.051 139.384 715.834 140.454 715.834 142.106C715.834 143.94 714.736 144.991 713.561 144.991C713.102 144.991 712.644 144.79 712.243 144.418L712.291 145.287V146.911H710.887ZM713.255 143.835C713.895 143.835 714.392 143.281 714.392 142.126C714.392 141.094 714.077 140.531 713.332 140.531C712.978 140.531 712.653 140.712 712.291 141.084V143.444C712.625 143.74 712.969 143.835 713.255 143.835Z" fill="#F7BB45"/>
<path d="M706.459 144.991C704.578 144.991 703.298 143.596 703.298 141.295C703.298 138.993 704.578 137.665 706.459 137.665C708.331 137.665 709.611 139.002 709.611 141.295C709.611 143.596 708.331 144.991 706.459 144.991ZM706.459 143.768C707.51 143.768 708.179 142.804 708.179 141.295C708.179 139.785 707.51 138.878 706.459 138.878C705.399 138.878 704.74 139.785 704.74 141.295C704.74 142.804 705.399 143.768 706.459 143.768Z" fill="#F7BB45"/>
<path d="M698.048 144.857V139.079C698.048 137.971 698.574 137.111 699.911 137.111C700.331 137.111 700.694 137.197 700.933 137.283L700.665 138.334C700.484 138.257 700.283 138.21 700.102 138.21C699.682 138.21 699.452 138.468 699.452 139.06V144.857H698.048ZM697.332 140.617V139.575L698.134 139.518H700.465V140.617H697.332Z" fill="#F7BB45"/>
<path d="M694.169 144.991C692.822 144.991 691.599 143.959 691.599 142.192C691.599 140.416 692.822 139.384 694.169 139.384C695.506 139.384 696.728 140.416 696.728 142.192C696.728 143.959 695.506 144.991 694.169 144.991ZM694.169 143.854C694.895 143.854 695.296 143.195 695.296 142.192C695.296 141.18 694.895 140.531 694.169 140.531C693.433 140.531 693.032 141.18 693.032 142.192C693.032 143.195 693.433 143.854 694.169 143.854Z" fill="#F7BB45"/>
<path d="M685.601 144.857V139.518H686.737L686.852 140.464H686.88C687.262 139.757 687.845 139.384 688.399 139.384C688.686 139.384 688.857 139.423 689.02 139.499L688.781 140.702C688.59 140.655 688.447 140.616 688.218 140.616C687.807 140.616 687.301 140.903 687.005 141.677V144.857H685.601Z" fill="#F7BB45"/>
<path d="M682.381 144.991C680.882 144.991 679.717 143.959 679.717 142.192C679.717 140.454 680.939 139.384 682.2 139.384C683.68 139.384 684.435 140.454 684.435 141.935C684.435 142.202 684.406 142.45 684.378 142.584H681.073C681.197 143.463 681.77 143.912 682.563 143.912C682.993 143.912 683.375 143.778 683.766 143.539L684.234 144.408C683.709 144.771 683.04 144.991 682.381 144.991ZM681.054 141.648H683.241C683.241 140.922 682.916 140.464 682.229 140.464C681.665 140.464 681.168 140.865 681.054 141.648Z" fill="#F7BB45"/>
<path d="M672.815 144.857L671.44 139.518H672.834L673.426 142.154C673.522 142.68 673.589 143.186 673.684 143.711H673.732C673.827 143.186 673.923 142.67 674.057 142.154L674.706 139.518H675.948L676.616 142.154C676.74 142.68 676.846 143.186 676.96 143.711H677.008C677.103 143.186 677.17 142.68 677.275 142.154L677.848 139.518H679.157L677.829 144.857H676.177L675.613 142.527C675.499 142.03 675.413 141.543 675.308 140.97H675.26C675.165 141.543 675.079 142.03 674.964 142.536L674.42 144.857H672.815Z" fill="#F7BB45"/>
<path d="M668.323 144.991C666.976 144.991 665.754 143.959 665.754 142.192C665.754 140.416 666.976 139.384 668.323 139.384C669.66 139.384 670.883 140.416 670.883 142.192C670.883 143.959 669.66 144.991 668.323 144.991ZM668.323 143.854C669.049 143.854 669.45 143.195 669.45 142.192C669.45 141.18 669.049 140.531 668.323 140.531C667.588 140.531 667.186 141.18 667.186 142.192C667.186 143.195 667.588 143.854 668.323 143.854Z" fill="#F7BB45"/>
<path d="M660.131 144.857V137.789H662.452C664.008 137.789 665.212 138.334 665.212 140.015C665.212 141.629 664.008 142.345 662.49 142.345H661.544V144.857H660.131ZM661.544 141.228H662.394C663.369 141.228 663.837 140.817 663.837 140.015C663.837 139.184 663.321 138.916 662.347 138.916H661.544V141.228Z" fill="#F7BB45"/>
<path d="M654.633 144.991C653.134 144.991 651.968 143.959 651.968 142.192C651.968 140.454 653.191 139.384 654.452 139.384C655.932 139.384 656.687 140.454 656.687 141.935C656.687 142.202 656.658 142.45 656.629 142.584H653.325C653.449 143.463 654.022 143.912 654.815 143.912C655.244 143.912 655.626 143.778 656.018 143.539L656.486 144.408C655.961 144.771 655.292 144.991 654.633 144.991ZM653.305 141.648H655.493C655.493 140.922 655.168 140.464 654.48 140.464C653.917 140.464 653.42 140.865 653.305 141.648Z" fill="#F7BB45"/>
<path d="M646.193 144.857V137.245H647.597V139.165L647.53 140.168C647.951 139.766 648.486 139.384 649.211 139.384C650.358 139.384 650.864 140.187 650.864 141.524V144.857H649.46V141.705C649.46 140.865 649.221 140.588 648.705 140.588C648.266 140.588 647.989 140.798 647.597 141.18V144.857H646.193Z" fill="#F7BB45"/>
<path d="M641.743 144.857V138.964H639.746V137.789H645.152V138.964H643.156V144.857H641.743Z" fill="#F7BB45"/>
<path d="M594.102 141.674C594.064 145.918 592.418 154.408 586.143 154.408C588.796 154.347 594.102 156.808 594.102 167.143C594.064 162.898 595.602 154.408 602.061 154.408C599.408 154.47 594.102 152.009 594.102 141.674Z" stroke="#F7C8AD" stroke-width="2" stroke-linejoin="round"/>
<path d="M943.51 172.714C943.472 176.959 941.826 185.449 935.551 185.449C938.204 185.388 943.51 187.848 943.51 198.184C943.472 193.939 945.01 185.449 951.469 185.449C948.816 185.511 943.51 183.05 943.51 172.714Z" stroke="#F7BB45" stroke-width="2" stroke-linejoin="round"/>
<path d="M887 8.755C886.962 12.9999 885.316 21.4897 879.041 21.4897C881.694 21.4282 887 23.889 887 34.2244C886.962 29.9795 888.5 21.4897 894.959 21.4897C892.306 21.5512 887 19.0904 887 8.755Z" stroke="#CFCFCF" stroke-width="2" stroke-linejoin="round"/>
<path fill-rule="evenodd" clip-rule="evenodd" d="M553 301.164C553 300.209 553.791 299.435 554.766 299.435H565.56C566.536 299.435 567.327 300.209 567.327 301.164C567.327 302.119 566.536 302.893 565.56 302.893H554.766C553.791 302.893 553 302.119 553 301.164Z" fill="#C5CFD6"/>
<path fill-rule="evenodd" clip-rule="evenodd" d="M560.163 308.327C559.208 308.327 558.434 307.536 558.434 306.56L558.434 295.766C558.434 294.791 559.208 294 560.163 294C561.118 294 561.892 294.791 561.892 295.766L561.892 306.56C561.892 307.536 561.118 308.327 560.163 308.327Z" fill="#C5CFD6"/>
<path fill-rule="evenodd" clip-rule="evenodd" d="M777.959 7.16363C777.959 6.2087 778.75 5.43457 779.726 5.43457H790.519C791.495 5.43457 792.286 6.2087 792.286 7.16363C792.286 8.11857 791.495 8.8927 790.519 8.8927H779.726C778.75 8.8927 777.959 8.11857 777.959 7.16363Z" fill="#F7C8AD"/>
<path fill-rule="evenodd" clip-rule="evenodd" d="M785.123 14.3267C784.168 14.3267 783.394 13.5359 783.394 12.5604L783.394 1.76641C783.394 0.79092 784.168 0.00012682 785.123 0.000126778C786.078 0.000126736 786.852 0.79092 786.852 1.76641L786.852 12.5604C786.852 13.5359 786.078 14.3267 785.123 14.3267Z" fill="#F7C8AD"/>
<path fill-rule="evenodd" clip-rule="evenodd" d="M1053.35 117C1053.35 116.045 1054.14 115.271 1055.11 115.271H1065.91C1066.88 115.271 1067.67 116.045 1067.67 117C1067.67 117.955 1066.88 118.729 1065.91 118.729H1055.11C1054.14 118.729 1053.35 117.955 1053.35 117Z" fill="#F7D38C"/>
<path fill-rule="evenodd" clip-rule="evenodd" d="M1060.51 124.163C1059.56 124.163 1058.78 123.372 1058.78 122.397L1058.78 111.603C1058.78 110.627 1059.56 109.837 1060.51 109.837C1061.47 109.837 1062.24 110.627 1062.24 111.603L1062.24 122.397C1062.24 123.372 1061.47 124.163 1060.51 124.163Z" fill="#F7D38C"/>
<rect x="578" y="188" width="148" height="123" rx="18" fill="#F7D38C"/>
<rect x="594" y="233" width="17" height="68" fill="white"/>
<rect x="619" y="246" width="17" height="55" fill="white"/>
<rect x="644" y="282" width="17" height="19" fill="white"/>
<rect x="669" y="257" width="17" height="44" fill="white"/>
<rect x="694" y="233" width="17" height="68" fill="white"/>
<rect x="591" y="198" width="49" height="6" rx="3" fill="white"/>
<rect x="591" y="212" width="61" height="6" rx="3" fill="white" fill-opacity="0.6"/>
</g>
</g>
<defs>
<clipPath id="clip0_3208_370">
<rect width="1629" height="430" fill="white"/>
</clipPath>
</defs>
</svg>
