<svg width="394" height="358" viewBox="0 0 394 358" fill="none" xmlns="http://www.w3.org/2000/svg" style="opacity: 0.2;">
<path d="M197.001 358C88.1995 358 2.1811e-06 355.314 2.1811e-06 352C2.1811e-06 348.687 88.1995 346 197.001 346C305.8 346 394 348.687 394 352C394 355.314 305.8 358 197.001 358Z" fill="#F5F8FF"/>
<path d="M288.509 344.559L291.013 331.793H301.776L303.028 344.559H288.509Z" fill="#FFCCB3"/>
<path d="M324.806 344.559L327.309 331.793H338.073L339.325 344.559H324.806Z" fill="#FFCCB3"/>
<path d="M284.254 333.606L289.136 199.391L335.39 194.867L342.328 329.082C335.339 337.728 322.456 335.7 316.889 333.606L314.062 259.461L309.951 229.552L306.353 333.606C302.242 338.029 289.907 335.449 284.254 333.606Z" fill="#474463"/>
<path d="M292.032 99.2457C291.284 92.6814 293.226 80.428 306.42 78.5419C310.619 77.8223 316.366 79.3675 321.85 83.7295C327.335 88.0914 329.51 94.2536 327.372 100.544C324.254 105.023 326.066 108.262 313.064 114.215C311.144 117.328 308.804 119.131 307.214 119.841L313.064 114.215C315.07 110.966 316.618 106.288 316.378 99.9344C311.546 94.2523 299.913 86.1597 292.032 99.2457Z" fill="black"/>
<path d="M317.896 123.721C316.681 121.002 317.038 116.421 317.368 114.47C313.951 112.496 301.992 110.08 304.935 115.245C308.567 121.618 302.999 125.648 301.341 127.199L318.388 130.086C319.106 128.323 318.359 125.108 317.896 123.721Z" fill="#FFCCB3"/>
<path d="M316.558 116.165C312.76 124.683 302.613 127.414 302.613 127.414L301.341 127.199C306.105 122.248 307.002 120.044 306.803 115.037L316.558 116.165Z" fill="#FBB8A6"/>
<path d="M318.893 109.159C317.216 119.067 304.209 124.913 299.203 124.065C294.196 123.217 288.428 114.193 290.106 104.285C291.783 94.3768 299.587 87.4358 307.537 88.7817C315.486 90.1276 320.571 99.2508 318.893 109.159Z" fill="#FFCCB3"/>
<path d="M293.831 110.623C293.361 112.663 293.72 114.806 294.83 116.581C295.94 118.356 297.71 119.617 299.75 120.088C301.79 120.558 303.933 120.198 305.708 119.088C307.483 117.978 308.745 116.209 309.215 114.169L301.523 112.396L293.831 110.623Z" fill="#E56441"/>
<circle cx="321.012" cy="110.59" r="5.71254" transform="rotate(9.60962 321.012 110.59)" fill="#FFCCB3"/>
<path d="M319.035 96.5571C315.06 94.6825 308.663 92.6913 307.987 89.9302C299.976 88.5739 289.744 95.5424 289.008 99.8886C279.041 85.9899 306.334 71.446 307.83 83.2514C318.264 81.191 324.904 93.9389 324.273 100.198C321.072 100.858 320.614 107.447 319.693 109.508C316.609 107.441 318.591 97.9125 319.035 96.5571Z" fill="#020202"/>
<path d="M256.994 168.847C300.835 187.939 280.329 141.254 293.766 130.636L305.443 141.254C305.443 189.587 300.128 192.182 254.165 182.989L256.994 168.847Z" fill="#444D90"/>
<path fill-rule="evenodd" clip-rule="evenodd" d="M340.434 218.457H283.157C290.625 190.415 293.554 167.138 293.554 128.997L317.559 122.849C336.719 147.471 336.65 177.786 340.434 218.457Z" fill="#5661AE"/>
<path fill-rule="evenodd" clip-rule="evenodd" d="M320.123 123.641C331.744 146.619 377.436 185.972 323.028 195.744L316.426 174.879C315.682 146.709 328.005 148.518 316.954 126.955L318.539 123.905L320.123 123.641Z" fill="#444D90"/>
<path fill-rule="evenodd" clip-rule="evenodd" d="M319.368 122.376C357.094 144.584 378.623 182.391 330.981 192.966C326.201 185.119 323.522 180.72 318.742 172.873C317.904 144.674 328.254 147.278 315.795 125.693L317.581 122.64L319.368 122.376Z" fill="#5661AE"/>
<ellipse cx="344.927" cy="172.413" rx="10.0363" ry="6.0746" transform="rotate(-73.1567 344.927 172.413)" fill="#FFCCB3"/>
<ellipse cx="348.909" cy="163.789" rx="3.69758" ry="1.58468" transform="rotate(-79.6595 348.909 163.789)" fill="#FFCCB3"/>
<path fill-rule="evenodd" clip-rule="evenodd" d="M338.528 173.993C338.504 173.718 338.708 173.475 338.984 173.451L342.404 173.153C342.68 173.129 342.922 173.333 342.946 173.608C342.97 173.884 342.766 174.126 342.491 174.15L339.071 174.449C338.795 174.473 338.552 174.269 338.528 173.993Z" fill="#E56441"/>
<path fill-rule="evenodd" clip-rule="evenodd" d="M339.145 170.31C339.121 170.034 339.325 169.791 339.6 169.767L343.021 169.469C343.296 169.445 343.539 169.649 343.563 169.924C343.587 170.2 343.383 170.443 343.108 170.467L339.687 170.765C339.412 170.789 339.169 170.585 339.145 170.31Z" fill="#E56441"/>
<path fill-rule="evenodd" clip-rule="evenodd" d="M340.266 166.786C340.242 166.511 340.445 166.268 340.721 166.244L344.141 165.946C344.417 165.922 344.66 166.125 344.684 166.401C344.708 166.676 344.504 166.919 344.228 166.943L340.808 167.241C340.532 167.265 340.29 167.061 340.266 166.786Z" fill="#E56441"/>
<path fill-rule="evenodd" clip-rule="evenodd" d="M337.911 177.677C337.887 177.402 338.091 177.159 338.366 177.135L341.787 176.837C342.062 176.813 342.305 177.017 342.329 177.292C342.353 177.567 342.149 177.81 341.874 177.834L338.453 178.132C338.178 178.156 337.935 177.953 337.911 177.677Z" fill="#E56441"/>
<ellipse cx="6.95199" cy="4.20778" rx="6.95199" ry="4.20778" transform="matrix(-0.433314 0.901243 0.901243 0.433314 249.658 165.966)" fill="#FFCCB3"/>
<path fill-rule="evenodd" clip-rule="evenodd" d="M247.807 170.138C247.603 170.325 247.589 170.642 247.776 170.846L249.383 172.599C249.57 172.803 249.886 172.817 250.09 172.63C250.294 172.443 250.308 172.127 250.121 171.923L248.514 170.169C248.328 169.965 248.011 169.952 247.807 170.138Z" fill="#E56441"/>
<path fill-rule="evenodd" clip-rule="evenodd" d="M246.397 172.308C246.193 172.495 246.18 172.812 246.366 173.015L247.973 174.769C248.16 174.973 248.476 174.987 248.68 174.8C248.884 174.613 248.898 174.296 248.711 174.092L247.105 172.339C246.918 172.135 246.601 172.121 246.397 172.308Z" fill="#E56441"/>
<path fill-rule="evenodd" clip-rule="evenodd" d="M245.32 174.632C245.116 174.818 245.102 175.135 245.289 175.339L246.895 177.092C247.082 177.296 247.399 177.31 247.603 177.123C247.807 176.937 247.82 176.62 247.634 176.416L246.027 174.662C245.84 174.459 245.523 174.445 245.32 174.632Z" fill="#E56441"/>
<path fill-rule="evenodd" clip-rule="evenodd" d="M249.217 167.969C249.013 168.156 248.999 168.472 249.186 168.676L250.792 170.43C250.979 170.634 251.296 170.648 251.5 170.461C251.703 170.274 251.717 169.957 251.531 169.753L249.924 168C249.737 167.796 249.42 167.782 249.217 167.969Z" fill="#E56441"/>
<path d="M307.27 353.07C307.871 345.661 304.516 339.636 302.764 337.55C299.56 344.759 292.251 341.472 287.995 340.554C281.587 346.361 273.124 347.171 269.471 348.815C264.465 351.068 267.469 353.07 269.471 353.07C290.298 353.07 296.339 351.735 296.756 351.068L298.258 353.07H307.27Z" fill="#8B4E18"/>
<path d="M340.813 353.07C341.414 345.66 337.823 346.895 336.07 344.809C332.866 352.019 325.056 348.981 320.801 348.063C314.393 353.871 308.433 347.672 304.78 349.315C299.774 351.568 301.012 353.07 303.014 353.07C323.841 353.07 329.882 351.735 330.299 351.067L331.801 353.07H340.813Z" fill="#784213"/>
<path d="M343.316 353.07C343.917 345.661 340.563 339.636 338.81 337.55C335.606 344.759 328.297 341.472 324.041 340.554C317.633 346.361 309.17 347.171 305.518 348.815C300.511 351.068 303.515 353.07 305.518 353.07C326.344 353.07 332.385 351.735 332.803 351.068L334.305 353.07H343.316Z" fill="#8B4E18"/>
<path d="M155.754 327.594H169.988L167.082 334.418C167.082 334.418 180.826 345.991 186.001 347.708C187.998 348.371 186.712 353.096 186.712 353.096L163.583 347.708L160.38 342.68L157.889 346.272L154.331 345.194L155.754 334.418V327.594Z" fill="black"/>
<path d="M115.258 331.237H125.274L123.229 336.112C123.229 336.112 132.901 344.378 136.542 345.604C137.948 346.078 137.043 349.453 137.043 349.453L120.767 345.604L118.513 342.013L116.76 344.578L114.256 343.809L115.258 336.112V331.237Z" fill="black"/>
<path d="M127.039 331.237C127.039 331.237 148.766 282.054 143.908 275.982C139.05 269.91 136.014 269.303 136.014 269.303L128.121 264.445H91.6889L125.085 279.625L114.288 331.237H127.039Z" fill="#223150"/>
<rect width="10.9295" height="57.0765" transform="matrix(-1 0 0 1 117.899 292.376)" fill="#CCCCCC"/>
<path d="M107.345 291.825H118.006V302.486L107.345 291.825Z" fill="#AAAAAA"/>
<rect width="55.9689" height="15.1027" rx="7.55136" transform="matrix(-1 0 0 1 140.216 276.723)" fill="#CCCCCC"/>
<path d="M114.703 282.275C86.8076 282.275 82.9431 262.73 84.4978 252.958C86.9322 237.656 121.07 245.555 134.026 249.626C188.218 249.626 192.586 267.394 187.996 276.278L169.511 331.237H154.938L164.675 276.278C155.791 279.654 127.659 281.683 114.703 282.275Z" fill="#3D537E"/>
<ellipse cx="5.56136" cy="5.27718" rx="5.56136" ry="5.27718" transform="matrix(0.733959 -0.679194 -0.679194 -0.733959 191.1 188.667)" fill="#FFCCB3"/>
<path d="M187.675 181.459L168.529 199.439L177.405 197.046L190.894 185.523L187.675 181.459Z" fill="#FFCCB3"/>
<path fill-rule="evenodd" clip-rule="evenodd" d="M332.847 225.585V353.096H338.919V225.585H385.066V219.513L338.919 219.513H332.847H68.1091H63.2516L12.247 219.513V225.585H63.2516V353.096H68.1091V225.585H332.847Z" fill="#D9D9D9"/>
<path d="M110.003 153.163C112.336 151.15 114.016 146.701 114.564 144.728C118.634 144.38 130.902 147.374 125.873 150.919C119.668 155.294 123.113 161.518 123.985 163.701L106.742 158.91C106.846 156.943 108.959 154.259 110.003 153.163Z" fill="#FFCCB3"/>
<path d="M111.86 147.558C108.072 157.258 117.202 158.776 117.202 158.776L123.985 163.701C121.698 156.966 121.827 154.507 124.215 149.904L111.86 147.558Z" fill="#FBB8A6"/>
<path d="M105.596 155.901L124.606 160.722C123.964 161.793 124.338 163.31 124.606 163.935C139.386 165.435 144.152 172.773 144.687 174.38C148.971 202.875 164.653 203.726 181.655 180.045L184.691 184.903L188.941 190.985C184.691 195.225 161.01 220.727 139.332 204.911L141.474 249.636C117.056 262.491 93.2799 254.992 84.4443 249.636L94.8864 190.985C90.6024 194.627 85.069 205.714 82.8378 210.803C82.8378 216.588 86.5863 221.248 88.4605 222.854L84.4443 244.28L72.6635 226.336C67.3086 220.123 67.9333 208.571 68.915 203.572L87.6572 164.739C89.3708 161.311 101.312 159.829 104.525 160.186L105.596 155.901Z" fill="#C5CFD6"/>
<path d="M135.002 134.303C134.338 132.929 132.076 133.086 131.028 133.336C127.485 127.331 120.596 131.457 117.595 134.27C115.305 138.123 112.611 159.666 119.027 165.623C113.046 164.757 101.012 164.235 98.1754 162.645C93.514 160.031 99.39 158.52 99.3899 135.535C99.3898 124.196 109.662 119.784 115.289 118.979C132.964 117.75 137.383 125.968 137.383 130.231C137.285 128.817 135.542 129.293 134.683 129.708C136.405 132.004 135.613 133.728 135.002 134.303Z" fill="#020202"/>
<path d="M114.675 141.306C113.8 149.675 113.931 156.926 123.564 158.651C123.564 158.651 131.039 159.902 134.559 148.365C138.287 133.009 131.492 129.018 124.777 128.316C118.062 127.613 115.551 132.936 114.675 141.306Z" fill="#FFCCB3"/>
<path d="M125.291 149.073C124.994 150.36 125.221 151.712 125.921 152.832C126.622 153.952 127.738 154.748 129.025 155.045C130.312 155.341 130.81 155.43 131.258 155.15C132.377 154.45 133.39 152.187 133.686 150.9L130.144 150.192L125.291 149.073Z" fill="#E56441"/>
<circle cx="3.72066" cy="3.72066" r="3.72066" transform="matrix(-0.997593 0.0693342 0.0693342 0.997593 119.123 135.355)" fill="#FFCCB3"/>
<path d="M120.059 136.501C125.291 136.138 131.192 133.147 132.989 130.891C132.665 126.225 128.451 124.374 126.885 124.838C119.657 125.602 114.947 131.126 115.419 135.356C116.907 136.843 117.804 137.275 117.946 139.312L118.099 141.517C119.579 139.815 120.188 138.352 120.059 136.501Z" fill="#020202"/>
<rect width="67.2718" height="81.585" rx="10" transform="matrix(1 0 0.241922 0.970296 41.8198 207.369)" fill="#D8D8D8"/>
<rect width="64.4092" height="78.7224" rx="9" transform="matrix(1 0 0.241922 0.970296 41.1686 208.758)" fill="white"/>
<path d="M140.973 349.595C140.973 346.834 138.734 344.595 135.973 344.595H90.1107C87.3492 344.595 85.1107 346.834 85.1107 349.595V354.31H140.973V349.595Z" fill="#D9D9D9"/>
<path d="M250 18V81.5C250 85.9183 246.418 89.5 242 89.5H240.912L245 103.5L223.601 89.5H155C150.582 89.5 147 85.9183 147 81.5V18C147 13.5817 150.588 10 155.007 10H241.993C246.412 10 250 13.5817 250 18Z" fill="#FFA800"/>
<mask id="mask0_3180_15621" style="mask-type:alpha" maskUnits="userSpaceOnUse" x="164" y="14" width="70" height="70">
<circle cx="35" cy="35" r="35" transform="matrix(-1 0 0 1 234 14)" fill="#D9D9D9"/>
</mask>
<g mask="url(#mask0_3180_15621)">
<circle cx="35" cy="35" r="35" transform="matrix(-1 0 0 1 234 14)" fill="#FFB933"/>
<rect width="56" height="56" transform="matrix(-0.866025 0.5 0.5 0.866025 209.249 10.7513)" fill="#FD950F"/>
<circle cx="17" cy="17" r="16.5" transform="matrix(-1 0 0 1 216 32)" stroke="#FFB22C"/>
</g>
</svg>
