<svg width="339" height="45" viewBox="0 0 339 45" fill="none" xmlns="http://www.w3.org/2000/svg">
<g clip-path="url(#clip0_2817_16212)">
<path d="M13.8484 38.5005H24.3597C24.3597 38.5005 33.1057 29.915 47.8356 33.467C47.8372 33.467 32.8061 25.2773 13.8484 38.5005Z" fill="#008DCF"/>
<path d="M37.1282 1C37.1282 1 44.7905 18.171 71.9999 26.0658H53.6316C53.6316 26.0658 53.6316 33.5648 69.2491 41.3611C69.2491 41.3611 50.4876 38.104 45.2818 23.4994H54.1222C54.1222 23.4994 38.9945 13.6303 37.1282 1Z" fill="#E23C1B"/>
<path d="M28.7815 11.1655C28.7815 11.1655 31.1391 13.5341 32.1202 14.1254C32.1202 14.1254 36.345 10.0806 37.0325 5.64001C37.0325 5.64001 33.2998 11.7577 28.7815 11.1655Z" fill="#EC6716"/>
<path d="M25.4412 9.68555C25.4412 9.68555 32.2182 19.2605 40.3719 21.1324H31.8258C31.8258 21.1324 26.3249 18.0724 25.4412 9.68555Z" fill="#F6A807"/>
<path d="M24.0662 8.40198C24.0662 8.40198 18.8611 21.629 0 29.0264L16.0114 26.6579C16.0114 26.6579 15.0288 33.862 4.0308 38.5005C4.0308 38.5005 18.5691 37.3162 22.6942 25.6715L38.5086 23.5001H16.5035C16.5035 23.5001 23.4768 16.892 24.0662 8.40198Z" fill="#9DC63A"/>
</g>
<path d="M89.368 17.448V18.216H94.744C94.456 17.952 94.072 17.64 93.664 17.328L89.368 17.448ZM90.328 15.072H86.536C85.984 15.408 85.456 15.72 84.928 15.984L91.504 15.888C91.048 15.624 90.592 15.384 90.208 15.168L90.328 15.072ZM89.368 19.896V20.664H98.512V22.584H77.584V20.664H86.488V19.896H79.912V18.216H86.488V17.52C82.384 17.616 81.664 17.688 81.136 17.856C81.04 17.472 80.752 16.584 80.56 16.08C80.92 16.032 81.376 15.936 81.808 15.768C82.096 15.672 82.72 15.432 83.44 15.072H80.176V14.688H77.68V11.088H98.368V14.688H95.68V12.864H80.224V13.56H95.584V15.072H93.88C94.936 15.696 95.896 16.392 96.544 16.92L94.984 18.216H96.4V19.896H89.368ZM93.16 9.00003V8.16003H82.84V9.00003H93.16ZM80.224 6.76803H95.968V10.392H80.224V6.76803ZM89.368 1.87203H98.656V3.62403H89.368V4.41603H96.712V6.07203H79.36V4.41603H86.488V3.62403H77.416V1.87203H86.488V0.672032H89.368V1.87203Z" fill="#090909"/>
<path d="M113.464 12.792H118.888V7.63203H113.464V12.792ZM105.04 12.792H110.44V7.63203H105.04V12.792ZM113.464 4.82403H121.888V16.8H118.888V15.6H113.464V23.088H110.44V15.6H105.04V16.92H102.16V4.82403H110.44V0.672032H113.464V4.82403Z" fill="#090909"/>
<path d="M146.992 6.69603H137.416V9.38403H145.144V17.472C145.144 18.888 144.856 19.68 143.848 20.112C142.864 20.568 141.472 20.592 139.624 20.592C139.504 19.752 139.072 18.552 138.664 17.784C139.864 17.856 141.28 17.856 141.64 17.832C142.048 17.832 142.168 17.736 142.168 17.424V12.168H137.416V22.968H134.44V12.168H130V20.592H127.12V9.38403H134.44V6.69603H125.104V3.91203H134.728C134.368 3.04803 133.912 2.06403 133.504 1.27203L136.336 0.384033C136.936 1.48803 137.728 2.92803 138.136 3.91203H146.992V6.69603Z" fill="#090909"/>
<path d="M163.504 7.68003L163.384 7.99203C163.792 10.176 164.416 12.216 165.208 14.04C166 12.216 166.504 10.128 166.816 7.68003H163.504ZM171.184 7.68003H169.696C169.144 11.376 168.28 14.424 166.912 16.92C168.088 18.504 169.576 19.776 171.4 20.616C170.752 21.192 169.864 22.296 169.456 23.064C167.704 22.152 166.312 20.904 165.16 19.416C163.864 20.904 162.28 22.152 160.264 23.136C160.024 22.488 159.184 21.216 158.656 20.616C160.744 19.704 162.352 18.456 163.552 16.896C162.736 15.312 162.112 13.56 161.584 11.616C161.32 12.024 161.032 12.432 160.744 12.792C160.456 12.456 159.952 11.952 159.424 11.496V11.712H156.688V16.632C157.816 16.392 158.944 16.152 160.072 15.912L160.312 18.528C156.376 19.44 152.128 20.352 149.056 21.048L148.552 18.144L149.8 17.928V7.70403H152.368V17.472L153.904 17.184V4.82403H149.104V2.08803H160.096V4.82403H156.688V9.02403H159.424V9.62403C160.912 7.29603 161.872 4.05603 162.4 0.672032L165.232 1.10403C165.016 2.44803 164.704 3.76803 164.344 5.04003H171.184V7.68003Z" fill="#090909"/>
<path d="M177.472 5.64003V10.32C177.472 14.064 177.16 19.704 175.192 23.256C174.664 22.728 173.368 21.864 172.672 21.624C174.424 18.408 174.568 13.68 174.568 10.344V3.00003H183.544C183.328 2.35203 183.04 1.70403 182.8 1.12803L185.68 0.384033C186.112 1.20003 186.544 2.16003 186.856 3.00003H194.944V5.64003H177.472ZM181.48 5.85603L184.288 6.62403C183.832 7.92003 183.256 9.21603 182.584 10.488V23.04H179.896V14.4C179.488 14.88 179.056 15.288 178.648 15.672C178.432 14.976 177.856 13.656 177.472 12.984C179.32 11.232 180.832 8.28003 181.48 5.85603ZM183.904 14.016L186.208 13.08C187.096 14.496 188.08 16.296 188.584 17.496L186.184 18.624C185.728 17.376 184.744 15.456 183.904 14.016ZM194.968 9.40803V12.024H192.712V19.896C192.712 21.384 192.424 22.128 191.464 22.584C190.528 23.04 189.16 23.088 187.288 23.088C187.168 22.272 186.784 21.072 186.4 20.28C187.6 20.328 188.944 20.328 189.328 20.328C189.712 20.304 189.856 20.208 189.856 19.872V12.024H183.592V9.40803H189.856V6.24003H192.712V9.40803H194.968Z" fill="#090909"/>
<path d="M203.704 1.84803V3.93603H197.56V1.84803H203.704ZM202.912 16.296V17.376H213.304V16.296H202.912ZM202.912 13.656V14.688H213.304V13.656H202.912ZM202.912 11.016V12.048H213.304V11.016H202.912ZM216.208 19.056H212.704C214.912 19.872 217.264 20.832 218.68 21.528L216.112 23.064C214.744 22.272 212.248 21.096 209.872 20.232L211.336 19.056H204.568L206.656 20.016C204.688 21.264 201.592 22.464 199.168 23.136C198.688 22.584 197.68 21.528 197.056 21.048C199.36 20.616 201.928 19.896 203.608 19.056H200.152V9.31203H216.208V19.056ZM212.056 4.68003V4.94403C213.352 6.21603 215.896 6.81603 219.136 6.98403C218.56 7.53603 217.888 8.56803 217.552 9.26403C214.864 8.92803 212.776 8.16003 211.264 6.84003C210.352 7.89603 208.36 8.83203 204.328 9.28803C204.136 8.83203 203.752 8.23203 203.368 7.72803H197.008V5.54403H204.256V7.00803C208.84 6.52803 209.44 5.44803 209.44 4.56003V4.20003H208C207.496 4.99203 206.92 5.71203 206.32 6.26403C205.864 5.83203 204.808 5.13603 204.208 4.80003C205.48 3.74403 206.464 2.16003 207.016 0.528033L209.512 1.08003C209.392 1.44003 209.248 1.80003 209.104 2.13603H215.92L216.352 2.01603L218.296 2.61603C217.672 3.93603 216.856 5.44803 216.088 6.40803L213.88 5.59203C214.144 5.20803 214.456 4.70403 214.72 4.20003H212.056V4.68003Z" fill="#090909"/>
<path d="M237.256 4.87203L235.792 7.00803C235.048 6.07203 233.392 4.77603 232.072 3.88803L233.44 1.96803C234.784 2.76003 236.488 3.98403 237.256 4.87203ZM230.968 9.91203L232.312 7.87203C233.704 8.61603 235.48 9.76803 236.344 10.632L234.904 12.912C234.112 12.024 232.36 10.752 230.968 9.91203ZM228.808 2.04003L231.208 2.54403C230.584 4.46403 229.888 6.72003 229.288 8.11203L227.464 7.60803C227.968 6.09603 228.544 3.72003 228.808 2.04003ZM224.176 7.65603L222.04 8.20803C221.992 6.72003 221.512 4.41603 220.936 2.66403L222.928 2.16003C223.576 3.91203 224.08 6.16803 224.176 7.65603ZM227.224 12.912L228.136 12.264C228.616 12.912 230.416 15.912 230.776 16.656L228.808 18.792C228.472 17.736 227.824 16.104 227.224 14.784V23.088H224.584V14.52C224.032 16.92 223.144 19.44 221.896 20.832C221.656 19.824 221.032 18.384 220.6 17.424C221.608 16.224 222.568 14.016 222.928 12.192L224.584 12.768V11.28H220.96V8.61603H224.584V0.672032H227.224V8.61603H230.776V11.28H227.224V12.912ZM243.4 16.056L240.52 16.584V23.064H237.832V17.064L231.136 18.264L230.704 15.6L237.832 14.328V0.648033H240.52V13.848L242.968 13.392L243.4 16.056Z" fill="#090909"/>
<path d="M252.496 3.62403H248.728V4.84803H252.496V3.62403ZM248.728 8.01603H252.496V6.72003H248.728V8.01603ZM255.184 10.08H248.728V23.088H245.944V1.58403H255.184V10.08ZM254.8 15.36H257.032V13.56H254.8V15.36ZM262.168 17.688H259.528V22.632H257.032V17.688H254.728C254.488 19.344 253.696 21.672 251.656 23.064C251.248 22.56 250.384 21.816 249.832 21.432C251.368 20.472 252.04 18.912 252.28 17.688H249.856V15.36H252.376V13.56H250.192V11.304H261.784V13.56H259.528V15.36H262.168V17.688ZM259.48 8.06403H263.368V6.72003H259.48V8.06403ZM263.368 3.62403H259.48V4.84803H263.368V3.62403ZM266.176 1.58403V19.752C266.176 21.216 265.912 22.008 265.048 22.464C264.184 22.944 262.936 23.016 261.112 23.016C261.016 22.224 260.632 20.928 260.248 20.184C261.328 20.232 262.504 20.232 262.864 20.208C263.248 20.208 263.368 20.064 263.368 19.728V10.128H256.768V1.58403H266.176Z" fill="#090909"/>
<path d="M283.504 7.65603L283.456 7.75203C283.864 9.84003 284.416 11.808 285.16 13.536C285.856 11.832 286.336 9.88803 286.648 7.65603H283.504ZM291.256 7.65603H289.456C288.952 11.136 288.112 14.088 286.816 16.512C288.016 18.24 289.552 19.584 291.544 20.496C290.896 21.072 290.008 22.176 289.576 22.944C287.752 21.984 286.288 20.688 285.088 19.08C283.768 20.712 282.112 22.056 280 23.136C279.76 22.512 278.944 21.24 278.416 20.64C280.624 19.632 282.304 18.264 283.552 16.536C282.808 15.048 282.256 13.392 281.752 11.592C281.344 12.336 280.912 12.96 280.432 13.56C280.096 13.104 279.376 12.312 278.752 11.712C278.632 18.384 278.512 20.976 277.912 21.792C277.432 22.464 277 22.704 276.304 22.848C275.68 22.944 274.744 22.968 273.736 22.944C273.664 22.152 273.4 21.072 272.992 20.352C273.76 20.4 274.456 20.424 274.84 20.424C275.128 20.424 275.32 20.352 275.512 20.064C275.824 19.536 275.968 17.52 276.064 11.904H274.048C274.024 15.696 273.496 19.68 270.52 22.968C270.064 22.344 269.128 21.576 268.432 21.096C271 18.12 271.36 14.688 271.36 11.592V6.96003H269.008V4.32003H273.64C273.448 3.40803 273.016 2.16003 272.656 1.20003L275.176 0.600033C275.608 1.58403 276.088 2.90403 276.328 3.74403L274.36 4.32003H279.592V6.96003H274.048V9.31203H278.8C278.8 9.31203 278.8 10.128 278.776 10.464V10.656C280.528 8.23203 281.632 4.53603 282.208 0.672032L285.112 1.12803C284.896 2.44803 284.632 3.76803 284.296 5.01603H291.256V7.65603Z" fill="#090909"/>
<path d="M314.92 12.264V15.144H305.488V23.088H302.512V15.144H293.176V12.264H302.512V4.99203H294.424V2.16003H313.528V4.99203H305.488V12.264H314.92ZM295.888 6.52803L298.504 5.76003C299.296 7.29603 300.16 9.31203 300.424 10.656L297.64 11.52C297.4 10.224 296.656 8.13603 295.888 6.52803ZM309.904 11.472L307.408 10.752C308.176 9.36003 309.04 7.24803 309.496 5.68803L312.544 6.45603C311.68 8.30403 310.72 10.248 309.904 11.472Z" fill="#090909"/>
<path d="M329.368 17.448V18.216H334.744C334.456 17.952 334.072 17.64 333.664 17.328L329.368 17.448ZM330.328 15.072H326.536C325.984 15.408 325.456 15.72 324.928 15.984L331.504 15.888C331.048 15.624 330.592 15.384 330.208 15.168L330.328 15.072ZM329.368 19.896V20.664H338.512V22.584H317.584V20.664H326.488V19.896H319.912V18.216H326.488V17.52C322.384 17.616 321.664 17.688 321.136 17.856C321.04 17.472 320.752 16.584 320.56 16.08C320.92 16.032 321.376 15.936 321.808 15.768C322.096 15.672 322.72 15.432 323.44 15.072H320.176V14.688H317.68V11.088H338.368V14.688H335.68V12.864H320.224V13.56H335.584V15.072H333.88C334.936 15.696 335.896 16.392 336.544 16.92L334.984 18.216H336.4V19.896H329.368ZM333.16 9.00003V8.16003H322.84V9.00003H333.16ZM320.224 6.76803H335.968V10.392H320.224V6.76803ZM329.368 1.87203H338.656V3.62403H329.368V4.41603H336.712V6.07203H319.36V4.41603H326.488V3.62403H317.416V1.87203H326.488V0.672032H329.368V1.87203Z" fill="#090909"/>
<path d="M79.0361 42V34.14H76.3721V33.192H82.8161V34.14H80.1521V42H79.0361Z" fill="#6F6F6F"/>
<path d="M84.815 42.156C83.723 42.156 82.907 41.484 82.907 40.308C82.907 38.892 84.143 38.184 86.915 37.872C86.915 37.032 86.639 36.228 85.571 36.228C84.815 36.228 84.131 36.576 83.615 36.924L83.183 36.168C83.783 35.784 84.707 35.316 85.751 35.316C87.335 35.316 88.007 36.384 88.007 37.992V42H87.107L87.011 41.22H86.975C86.351 41.736 85.619 42.156 84.815 42.156ZM85.127 41.28C85.763 41.28 86.279 40.98 86.915 40.416V38.592C84.719 38.856 83.975 39.396 83.975 40.236C83.975 40.98 84.479 41.28 85.127 41.28Z" fill="#6F6F6F"/>
<path d="M90.0884 42V35.484H91.1804V42H90.0884ZM90.6404 34.14C90.2084 34.14 89.9084 33.852 89.9084 33.408C89.9084 32.988 90.2084 32.7 90.6404 32.7C91.0724 32.7 91.3724 32.988 91.3724 33.408C91.3724 33.852 91.0724 34.14 90.6404 34.14Z" fill="#6F6F6F"/>
<path d="M95.9611 42.156C94.2331 42.156 92.9011 40.908 92.9011 38.748C92.9011 36.576 94.3771 35.316 96.0451 35.316C96.8971 35.316 97.4851 35.676 97.9531 36.084L97.3891 36.804C97.0051 36.468 96.6091 36.228 96.0931 36.228C94.9051 36.228 94.0411 37.248 94.0411 38.748C94.0411 40.248 94.8571 41.244 96.0571 41.244C96.6571 41.244 97.1851 40.968 97.5931 40.596L98.0731 41.328C97.4851 41.856 96.7411 42.156 95.9611 42.156Z" fill="#6F6F6F"/>
<path d="M99.4986 42V32.448H100.591V35.064L100.555 36.408C101.155 35.808 101.827 35.316 102.715 35.316C104.083 35.316 104.707 36.204 104.707 37.872V42H103.615V38.016C103.615 36.792 103.243 36.276 102.379 36.276C101.707 36.276 101.251 36.612 100.591 37.272V42H99.4986Z" fill="#6F6F6F"/>
<path d="M108.684 42.156C107.316 42.156 106.704 41.268 106.704 39.612V35.484H107.796V39.48C107.796 40.692 108.156 41.208 109.02 41.208C109.692 41.208 110.16 40.884 110.784 40.104V35.484H111.876V42H110.964L110.88 40.98H110.844C110.232 41.688 109.584 42.156 108.684 42.156Z" fill="#6F6F6F"/>
<path d="M114.077 42V35.484H114.977L115.073 36.42H115.109C115.733 35.808 116.405 35.316 117.293 35.316C118.661 35.316 119.285 36.204 119.285 37.872V42H118.193V38.016C118.193 36.792 117.821 36.276 116.957 36.276C116.285 36.276 115.829 36.612 115.169 37.272V42H114.077Z" fill="#6F6F6F"/>
<path d="M123.609 45C122.013 45 120.921 44.376 120.921 43.248C120.921 42.696 121.269 42.168 121.881 41.772V41.724C121.533 41.52 121.281 41.172 121.281 40.656C121.281 40.116 121.677 39.684 122.013 39.444V39.396C121.581 39.048 121.161 38.424 121.161 37.644C121.161 36.216 122.289 35.316 123.609 35.316C123.969 35.316 124.293 35.4 124.521 35.484H126.789V36.324H125.457C125.769 36.624 125.985 37.104 125.985 37.668C125.985 39.06 124.929 39.936 123.609 39.936C123.285 39.936 122.925 39.852 122.637 39.708C122.397 39.912 122.217 40.128 122.217 40.488C122.217 40.908 122.481 41.196 123.357 41.196H124.629C126.141 41.196 126.909 41.676 126.909 42.744C126.909 43.956 125.625 45 123.609 45ZM123.609 39.192C124.353 39.192 125.001 38.592 125.001 37.644C125.001 36.696 124.377 36.12 123.609 36.12C122.841 36.12 122.217 36.684 122.217 37.644C122.217 38.592 122.853 39.192 123.609 39.192ZM123.765 44.256C125.013 44.256 125.841 43.596 125.841 42.912C125.841 42.312 125.373 42.108 124.509 42.108H123.381C123.141 42.108 122.829 42.072 122.541 42C122.073 42.336 121.881 42.72 121.881 43.104C121.881 43.8 122.589 44.256 123.765 44.256Z" fill="#6F6F6F"/>
<path d="M134.278 42.156C132.094 42.156 130.45 40.464 130.45 37.608C130.45 34.764 132.118 33.036 134.35 33.036C135.418 33.036 136.258 33.564 136.762 34.128L136.162 34.848C135.706 34.356 135.118 34.008 134.362 34.008C132.694 34.008 131.59 35.376 131.59 37.572C131.59 39.792 132.646 41.184 134.326 41.184C135.166 41.184 135.802 40.812 136.366 40.2L136.978 40.896C136.282 41.7 135.418 42.156 134.278 42.156Z" fill="#6F6F6F"/>
<path d="M138.51 42V35.484H139.602V42H138.51ZM139.062 34.14C138.63 34.14 138.33 33.852 138.33 33.408C138.33 32.988 138.63 32.7 139.062 32.7C139.494 32.7 139.794 32.988 139.794 33.408C139.794 33.852 139.494 34.14 139.062 34.14Z" fill="#6F6F6F"/>
<path d="M143.867 42.156C142.475 42.156 142.007 41.28 142.007 39.984V36.372H141.035V35.544L142.055 35.484L142.187 33.648H143.099V35.484H144.863V36.372H143.099V40.008C143.099 40.812 143.351 41.268 144.107 41.268C144.335 41.268 144.635 41.184 144.851 41.1L145.067 41.916C144.695 42.036 144.263 42.156 143.867 42.156Z" fill="#6F6F6F"/>
<path d="M146.446 44.808C146.134 44.808 145.882 44.76 145.678 44.676L145.894 43.8C146.026 43.848 146.218 43.908 146.386 43.908C147.13 43.908 147.598 43.308 147.862 42.504L148.006 42.012L145.39 35.484H146.53L147.862 39.108C148.054 39.672 148.282 40.344 148.486 40.932H148.546C148.726 40.344 148.918 39.684 149.098 39.108L150.262 35.484H151.33L148.87 42.54C148.426 43.824 147.742 44.808 146.446 44.808Z" fill="#6F6F6F"/>
<path d="M158.832 42.156C156.528 42.156 154.872 40.464 154.872 37.608C154.872 34.764 156.576 33.036 158.904 33.036C160.128 33.036 160.932 33.588 161.436 34.128L160.836 34.848C160.392 34.38 159.828 34.008 158.928 34.008C157.164 34.008 156.012 35.376 156.012 37.572C156.012 39.792 157.056 41.184 158.952 41.184C159.576 41.184 160.188 40.992 160.536 40.668V38.364H158.676V37.44H161.556V41.136C160.992 41.724 160.02 42.156 158.832 42.156Z" fill="#6F6F6F"/>
<path d="M166.085 42.156C164.489 42.156 163.061 40.908 163.061 38.748C163.061 36.576 164.489 35.316 166.085 35.316C167.681 35.316 169.109 36.576 169.109 38.748C169.109 40.908 167.681 42.156 166.085 42.156ZM166.085 41.244C167.213 41.244 167.981 40.248 167.981 38.748C167.981 37.248 167.213 36.228 166.085 36.228C164.957 36.228 164.201 37.248 164.201 38.748C164.201 40.248 164.957 41.244 166.085 41.244Z" fill="#6F6F6F"/>
<path d="M172.188 42L169.836 35.484H170.976L172.2 39.192C172.404 39.828 172.608 40.5 172.812 41.112H172.86C173.064 40.5 173.268 39.828 173.46 39.192L174.696 35.484H175.776L173.46 42H172.188Z" fill="#6F6F6F"/>
<path d="M179.623 42.156C177.895 42.156 176.503 40.896 176.503 38.748C176.503 36.636 177.931 35.316 179.443 35.316C181.099 35.316 182.035 36.516 182.035 38.376C182.035 38.616 182.011 38.844 181.987 39H177.595C177.667 40.392 178.519 41.28 179.755 41.28C180.391 41.28 180.907 41.088 181.387 40.764L181.783 41.484C181.207 41.856 180.511 42.156 179.623 42.156ZM177.583 38.208H181.075C181.075 36.9 180.475 36.192 179.455 36.192C178.531 36.192 177.715 36.936 177.583 38.208Z" fill="#6F6F6F"/>
<path d="M183.639 42V35.484H184.539L184.635 36.672H184.671C185.127 35.844 185.787 35.316 186.519 35.316C186.807 35.316 187.011 35.352 187.215 35.46L187.011 36.42C186.795 36.336 186.639 36.312 186.375 36.312C185.835 36.312 185.163 36.696 184.731 37.812V42H183.639Z" fill="#6F6F6F"/>
<path d="M188.292 42V35.484H189.192L189.288 36.432H189.324C189.888 35.808 190.572 35.316 191.352 35.316C192.348 35.316 192.888 35.796 193.152 36.564C193.824 35.832 194.508 35.316 195.3 35.316C196.644 35.316 197.28 36.204 197.28 37.872V42H196.188V38.016C196.188 36.792 195.804 36.276 194.976 36.276C194.472 36.276 193.944 36.6 193.332 37.272V42H192.24V38.016C192.24 36.792 191.856 36.276 191.028 36.276C190.536 36.276 189.984 36.6 189.384 37.272V42H188.292Z" fill="#6F6F6F"/>
<path d="M202.029 42.156C200.301 42.156 198.909 40.896 198.909 38.748C198.909 36.636 200.337 35.316 201.849 35.316C203.505 35.316 204.441 36.516 204.441 38.376C204.441 38.616 204.417 38.844 204.393 39H200.001C200.073 40.392 200.925 41.28 202.161 41.28C202.797 41.28 203.313 41.088 203.793 40.764L204.189 41.484C203.613 41.856 202.917 42.156 202.029 42.156ZM199.989 38.208H203.481C203.481 36.9 202.881 36.192 201.861 36.192C200.937 36.192 200.121 36.936 199.989 38.208Z" fill="#6F6F6F"/>
<path d="M206.045 42V35.484H206.945L207.041 36.42H207.077C207.701 35.808 208.373 35.316 209.261 35.316C210.629 35.316 211.253 36.204 211.253 37.872V42H210.161V38.016C210.161 36.792 209.789 36.276 208.925 36.276C208.253 36.276 207.797 36.612 207.137 37.272V42H206.045Z" fill="#6F6F6F"/>
<path d="M215.433 42.156C214.041 42.156 213.573 41.28 213.573 39.984V36.372H212.601V35.544L213.621 35.484L213.753 33.648H214.665V35.484H216.429V36.372H214.665V40.008C214.665 40.812 214.917 41.268 215.673 41.268C215.901 41.268 216.201 41.184 216.417 41.1L216.633 41.916C216.261 42.036 215.829 42.156 215.433 42.156Z" fill="#6F6F6F"/>
<path d="M223.936 42.156C221.728 42.156 220.18 40.392 220.18 37.572C220.18 34.752 221.728 33.036 223.936 33.036C226.144 33.036 227.692 34.752 227.692 37.572C227.692 40.392 226.144 42.156 223.936 42.156ZM223.936 41.184C225.508 41.184 226.552 39.768 226.552 37.572C226.552 35.364 225.508 34.008 223.936 34.008C222.352 34.008 221.32 35.364 221.32 37.572C221.32 39.768 222.352 41.184 223.936 41.184Z" fill="#6F6F6F"/>
<path d="M229.495 44.748V35.484H230.395L230.491 36.228H230.527C231.115 35.748 231.847 35.316 232.603 35.316C234.283 35.316 235.195 36.636 235.195 38.64C235.195 40.872 233.863 42.156 232.363 42.156C231.775 42.156 231.151 41.88 230.563 41.4L230.587 42.54V44.748H229.495ZM232.183 41.244C233.263 41.244 234.055 40.272 234.055 38.652C234.055 37.212 233.575 36.24 232.339 36.24C231.787 36.24 231.223 36.552 230.587 37.14V40.56C231.175 41.064 231.751 41.244 232.183 41.244Z" fill="#6F6F6F"/>
<path d="M239.564 42.156C237.836 42.156 236.444 40.896 236.444 38.748C236.444 36.636 237.872 35.316 239.384 35.316C241.04 35.316 241.976 36.516 241.976 38.376C241.976 38.616 241.952 38.844 241.928 39H237.536C237.608 40.392 238.46 41.28 239.696 41.28C240.332 41.28 240.848 41.088 241.328 40.764L241.724 41.484C241.148 41.856 240.452 42.156 239.564 42.156ZM237.524 38.208H241.016C241.016 36.9 240.416 36.192 239.396 36.192C238.472 36.192 237.656 36.936 237.524 38.208Z" fill="#6F6F6F"/>
<path d="M243.581 42V35.484H244.481L244.577 36.42H244.613C245.237 35.808 245.909 35.316 246.797 35.316C248.165 35.316 248.789 36.204 248.789 37.872V42H247.697V38.016C247.697 36.792 247.325 36.276 246.461 36.276C245.789 36.276 245.333 36.612 244.673 37.272V42H243.581Z" fill="#6F6F6F"/>
<path d="M253.696 42V33.192H255.904C258.604 33.192 260.056 34.776 260.056 37.572C260.056 40.356 258.604 42 255.952 42H253.696ZM254.812 41.088H255.808C257.884 41.088 258.904 39.792 258.904 37.572C258.904 35.34 257.884 34.104 255.808 34.104H254.812V41.088Z" fill="#6F6F6F"/>
<path d="M263.338 42.156C262.246 42.156 261.43 41.484 261.43 40.308C261.43 38.892 262.666 38.184 265.438 37.872C265.438 37.032 265.162 36.228 264.094 36.228C263.338 36.228 262.654 36.576 262.138 36.924L261.706 36.168C262.306 35.784 263.23 35.316 264.274 35.316C265.858 35.316 266.53 36.384 266.53 37.992V42H265.63L265.534 41.22H265.498C264.874 41.736 264.142 42.156 263.338 42.156ZM263.65 41.28C264.286 41.28 264.802 40.98 265.438 40.416V38.592C263.242 38.856 262.498 39.396 262.498 40.236C262.498 40.98 263.002 41.28 263.65 41.28Z" fill="#6F6F6F"/>
<path d="M270.488 42.156C269.096 42.156 268.628 41.28 268.628 39.984V36.372H267.656V35.544L268.676 35.484L268.808 33.648H269.72V35.484H271.484V36.372H269.72V40.008C269.72 40.812 269.972 41.268 270.728 41.268C270.956 41.268 271.256 41.184 271.472 41.1L271.688 41.916C271.316 42.036 270.884 42.156 270.488 42.156Z" fill="#6F6F6F"/>
<path d="M274.167 42.156C273.075 42.156 272.259 41.484 272.259 40.308C272.259 38.892 273.495 38.184 276.267 37.872C276.267 37.032 275.991 36.228 274.923 36.228C274.167 36.228 273.483 36.576 272.967 36.924L272.535 36.168C273.135 35.784 274.059 35.316 275.103 35.316C276.687 35.316 277.359 36.384 277.359 37.992V42H276.459L276.363 41.22H276.327C275.703 41.736 274.971 42.156 274.167 42.156ZM274.479 41.28C275.115 41.28 275.631 40.98 276.267 40.416V38.592C274.071 38.856 273.327 39.396 273.327 40.236C273.327 40.98 273.831 41.28 274.479 41.28Z" fill="#6F6F6F"/>
<defs>
<clipPath id="clip0_2817_16212">
<rect width="72" height="38" fill="white" transform="translate(0 1)"/>
</clipPath>
</defs>
</svg>
