<svg width="30" height="30" viewBox="0 0 30 30" fill="none" xmlns="http://www.w3.org/2000/svg">
<path d="M13.9774 11.3342L9.97301 7.32904C9.62194 6.97956 9.14666 6.78305 8.6514 6.78385C8.15615 6.78385 7.68127 6.98076 7.331 7.33104C6.98073 7.68131 6.78382 8.15618 6.78342 8.65183C6.78302 9.14669 6.97953 9.62197 7.329 9.97304L11.3338 13.9778C11.6844 14.3285 12.1601 14.5254 12.6554 14.5254C13.1514 14.5254 13.6271 14.3285 13.9778 13.9778C14.328 13.6275 14.5249 13.1518 14.5249 12.6558C14.5253 12.1601 14.328 11.6849 13.9774 11.3342Z" fill="#FFA800"/>
<path d="M22.8003 2.6438L22.8003 6.64895C22.7999 6.89458 22.8486 7.13742 22.9425 7.36468C23.0363 7.59114 23.1741 7.79763 23.3474 7.97097C23.5212 8.1447 23.7273 8.28209 23.9541 8.37635C24.181 8.46981 24.4238 8.51853 24.6698 8.51853C24.9151 8.51853 25.1583 8.47021 25.3852 8.37596C25.6116 8.2821 25.8181 8.1443 25.9914 7.97097C26.1652 7.79723 26.3026 7.59113 26.3968 7.36428C26.4907 7.13782 26.539 6.89459 26.5394 6.64896L26.539 2.6442C26.5394 2.39857 26.4907 2.15574 26.3968 1.92849C26.303 1.70203 26.1652 1.49553 25.9919 1.32219C25.8181 1.14845 25.6116 1.01066 25.3852 0.916806C25.1579 0.822948 24.9151 0.774226 24.6694 0.774626C24.4242 0.774626 24.181 0.82296 23.9545 0.916818C23.7273 1.01068 23.5216 1.14845 23.3478 1.32219C23.1741 1.49593 23.0363 1.70163 22.9425 1.92889C22.8486 2.15535 22.8003 2.39857 22.8003 2.6438Z" fill="#FFA800"/>
<path d="M8.51775 24.6704C8.51775 24.1743 8.32084 23.6987 7.97016 23.348C7.61949 22.9973 7.14422 22.8008 6.64817 22.8008L2.64342 22.8004C2.14776 22.8008 1.67208 22.9977 1.32141 23.3484C0.971141 23.6986 0.774237 24.1743 0.773838 24.67C0.773838 25.166 0.971144 25.6413 1.32181 25.992C1.67249 26.3427 2.14736 26.5396 2.64342 26.5396L6.64856 26.5396C7.14382 26.5396 7.61949 26.3427 7.97016 25.992C8.32084 25.6413 8.51775 25.1656 8.51775 24.6704Z" fill="#FFA800"/>
</svg>
