<svg width="233" height="136" viewBox="0 0 233 136" fill="none" xmlns="http://www.w3.org/2000/svg">
<g clip-path="url(#clip0_3180_16080)">
<g opacity="0.2">
<path d="M86.0961 69.054C54.0419 58.9528 43.6362 32.1765 42.4402 20.051C42.4402 51.5573 10.1467 65.8473 -6 69.054H86.0961Z" fill="#36558F"/>
<path fill-rule="evenodd" clip-rule="evenodd" d="M167.019 8.52459C166.894 22.7691 155.603 52.1428 110.135 67.1449L127.789 63.2549H240C216.233 57.8977 169.257 42.6859 167.068 9.42668C167.057 8.6275 167.03 7.81864 166.988 7C166.988 7.5123 166.999 8.02049 167.019 8.52459ZM163.098 54.5772C163.398 53.6795 173.272 44.4034 178.359 44.4034C180.254 43.9047 186.019 45.2413 193.919 54.5772H163.098Z" fill="#36558F"/>
<rect x="174.745" y="47.1381" width="8.37237" height="1.23123" fill="#36558F"/>
<rect x="171.79" y="49.6006" width="14.2823" height="0.984985" fill="#36558F"/>
<rect x="168.835" y="51.8168" width="20.1922" height="1.23123" fill="#36558F"/>
<path d="M136.259 51.8168L68.0523 55.7061C77.6252 64.3224 89.1924 67.2743 93.7794 67.6732V71.5625H25.2733V83.8288H138.054C136.858 79.76 132.171 73.9559 129.977 71.5625C126.148 67.7335 111.227 71.7932 105.147 71.5625V67.0748C111.031 65.5789 127.285 60.4929 136.259 51.8168Z" fill="#36558F"/>
<path d="M22.8604 106.971V72.3055H13.2935L4.32443 109.96H7.61308L4.32443 123.109H1.63373V129.384H17.479V126.396H29.7367V129.384H34.8191V126.396H49.1695V129.384H55.7468V126.396H85.3446V129.384H92.5198V126.396H110.159V129.384H116.437V126.396H143.942H181.612V129.384H189.086V126.396H204.932V129.384H230.643V121.614H227.354L212.406 67.8228H204.932V121.614H153.21V67.8228H141.55V83.9603L138.262 87.8453L133.179 121.614H11.4997V106.971H22.8604Z" fill="#36558F"/>
<path fill-rule="evenodd" clip-rule="evenodd" d="M154.72 67.7433H203.195V119.809H154.72V67.7433ZM162.799 78.2164H159.208V81.8072H162.799V78.2164ZM169.981 78.2164H173.571V81.8072H169.981V78.2164ZM183.147 78.2164H179.556V81.8072H183.147V78.2164ZM190.328 78.2164H193.919V81.8072H190.328V78.2164ZM162.799 83.004H159.208V86.5948H162.799V83.004ZM169.981 83.004H173.571V86.5948H169.981V83.004ZM183.147 83.004H179.556V86.5948H183.147V83.004ZM190.328 83.004H193.919V86.5948H190.328V83.004ZM167.587 78.2164H163.996V81.8072H167.587V78.2164ZM174.768 78.2164H178.359V81.8072H174.768V78.2164ZM187.934 78.2164H184.344V81.8072H187.934V78.2164ZM195.116 78.2164H198.707V81.8072H195.116V78.2164ZM167.587 83.004H163.996V86.5948H167.587V83.004ZM174.768 83.004H178.359V86.5948H174.768V83.004ZM187.934 83.004H184.344V86.5948H187.934V83.004ZM195.116 83.004H198.707V86.5948H195.116V83.004ZM166.39 111.73V93.7762H159.208V111.73H166.39ZM191.525 93.7762H198.706V111.73H191.525V93.7762ZM190.328 93.7762H167.587V111.73H190.328V93.7762Z" fill="#36558F"/>
<rect x="31.1832" y="96.1411" width="13.7898" height="20.4384" fill="#36558F"/>
<rect x="119.832" y="96.1411" width="5.90991" height="20.4384" fill="#36558F"/>
<rect x="111.952" y="96.1411" width="5.90991" height="20.4384" fill="#36558F"/>
<rect x="99.8859" y="96.1411" width="10.3423" height="20.4384" fill="#36558F"/>
<rect x="78.955" y="96.1411" width="7.14114" height="20.4384" fill="#36558F"/>
<rect x="89.2973" y="96.1411" width="7.14114" height="20.4384" fill="#36558F"/>
<rect x="68.8588" y="96.1411" width="7.14114" height="20.4384" fill="#36558F"/>
<rect x="59.7477" y="96.1411" width="7.38739" height="20.4384" fill="#36558F"/>
<rect x="47.1892" y="96.1411" width="7.38739" height="20.4384" fill="#36558F"/>
<path d="M137.315 85.0601H25.5195V86.6271H52.4222V88.5075H54.2157V86.6271H72.4498V88.5075H74.5423V86.6271H97.559V88.5075H99.6515V86.6271H120.576V88.5075H122.967V86.6271H137.315V85.0601Z" fill="#36558F"/>
</g>
</g>
<defs>
<clipPath id="clip0_3180_16080">
<rect width="233" height="136" fill="white"/>
</clipPath>
</defs>
</svg>
