<svg width="1440" height="459" viewBox="0 0 1440 459" fill="none" xmlns="http://www.w3.org/2000/svg">
<g opacity="0.2">
<path d="M51.632 220.265C58.609 220.265 64.265 214.609 64.265 207.632C64.265 200.655 58.609 195 51.632 195C44.656 195 39 200.655 39 207.632C39 214.609 44.656 220.265 51.632 220.265Z" fill="#FEBB94"/>
<path d="M1234.63 25.265C1241.61 25.265 1247.27 19.61 1247.27 12.633C1247.27 5.656 1241.61 0 1234.63 0C1227.66 0 1222 5.656 1222 12.633C1222 19.61 1227.66 25.265 1234.63 25.265Z" fill="#5661AE"/>
<path d="M600.633 458.265C607.609 458.265 613.265 452.609 613.265 445.633C613.265 438.656 607.609 433 600.633 433C593.656 433 588 438.656 588 445.633C588 452.609 593.656 458.265 600.633 458.265Z" fill="#1C85E8"/>
<path d="M1044.42 381.847C1049.63 381.847 1053.85 377.628 1053.85 372.424C1053.85 367.219 1049.63 363 1044.42 363C1039.22 363 1035 367.219 1035 372.424C1035 377.628 1039.22 381.847 1044.42 381.847Z" fill="#FEBB94"/>
<path d="M254.423 166.847C259.628 166.847 263.847 162.628 263.847 157.423C263.847 152.219 259.628 148 254.423 148C249.219 148 245 152.219 245 157.423C245 162.628 249.219 166.847 254.423 166.847Z" fill="#5661AE"/>
<path d="M0 139.304C0 139.304 141.537 110.692 179.631 177.079C217.72 243.461 250.567 368.13 351.915 352.061C453.263 335.986 530.843 10.046 630.476 13.0202C730.115 15.9945 694.986 229.465 803.437 232.444C911.883 235.424 892.596 113.203 964.876 116.609C1052.56 120.74 1019.87 373.996 1134.19 376.98C1248.52 379.965 1267.17 42.4556 1440 48.3781" stroke="#CBD9E7" stroke-width="7.56507" stroke-miterlimit="10" stroke-linecap="round"/>
</g>
</svg>
